<?xml version="1.0" encoding="UTF-8" standalone="no"?>
<!-- Created with Inkscape (http://www.inkscape.org/) -->

<svg
   xmlns:dc="http://purl.org/dc/elements/1.1/"
   xmlns:cc="http://creativecommons.org/ns#"
   xmlns:rdf="http://www.w3.org/1999/02/22-rdf-syntax-ns#"
   xmlns:svg="http://www.w3.org/2000/svg"
   xmlns="http://www.w3.org/2000/svg"
   xmlns:sodipodi="http://sodipodi.sourceforge.net/DTD/sodipodi-0.dtd"
   xmlns:inkscape="http://www.inkscape.org/namespaces/inkscape"
   width="210mm"
   height="297mm"
   viewBox="0 0 210 297"
   version="1.1"
   id="svg8"
   inkscape:version="0.92.1 r15371"
   sodipodi:docname="humidity.svg">
  <defs
     id="defs2" />
  <sodipodi:namedview
     id="base"
     pagecolor="#ffffff"
     bordercolor="#666666"
     borderopacity="1.0"
     inkscape:pageopacity="0.0"
     inkscape:pageshadow="2"
     inkscape:zoom="1.4142136"
     inkscape:cx="401.61863"
     inkscape:cy="563.41511"
     inkscape:document-units="mm"
     inkscape:current-layer="layer2"
     showgrid="false"
     inkscape:window-width="3000"
     inkscape:window-height="1859"
     inkscape:window-x="-14"
     inkscape:window-y="-14"
     inkscape:window-maximized="1"
     inkscape:snap-others="false" />
  <metadata
     id="metadata5">
    <rdf:RDF>
      <cc:Work
         rdf:about="">
        <dc:format>image/svg+xml</dc:format>
        <dc:type
           rdf:resource="http://purl.org/dc/dcmitype/StillImage" />
        <dc:title></dc:title>
      </cc:Work>
    </rdf:RDF>
  </metadata>
  <g
     inkscape:groupmode="layer"
     id="layer2"
     inkscape:label="grafik">
    <path
       style="fill:#ffffff;stroke-width:0.26458332;fill-opacity:1"
       d="M 101.74185,267.52822 C 82.879182,265.8726 65.760915,258.84366 51.484689,246.89209 31.189886,229.90198 19.439956,204.73524 19.459166,178.29782 c 0.0128,-17.5862 5.35576,-35.06346 15.12145,-49.46337 C 36.776674,125.59627 58.21239,90.91951 98.529897,25.383077 104.14748,16.251645 108.80901,8.7804733 108.88884,8.7804733 c 0.0798,0 15.9694,25.7472657 35.31017,57.2161447 19.34076,31.468879 36.20167,58.704422 37.4687,60.523432 9.1331,13.11201 14.23668,26.44003 16.15967,42.20104 0.52148,4.27408 0.44531,15.99703 -0.13216,20.34156 -1.93903,14.58797 -6.54948,27.05329 -14.34798,38.79281 -5.44442,8.1958 -12.95859,16.14597 -20.89361,22.10594 -12.66825,9.5151 -27.60132,15.40713 -43.91073,17.32552 -3.30994,0.38933 -13.45453,0.53503 -16.80105,0.2413 z m 16.03588,-21.2909 c 14.68362,-1.91271 28.0514,-8.39709 38.69823,-18.77157 11.32473,-11.03503 17.98728,-24.13952 20.31597,-39.95925 0.70333,-4.77801 0.64143,-14.11384 -0.12632,-19.05 -2.27584,-14.63235 -8.50478,-27.13476 -18.84054,-37.81577 l -3.3474,-3.45922 -17.98695,-27.781247 c -14.2766,-22.05052 -18.96533,-29.513201 -22.72989,-36.177349 -2.60861,-4.617855 -4.80246,-8.397136 -4.87522,-8.398404 -0.0728,-0.0013 -1.1348,1.633853 -2.36008,3.6336 -1.22528,1.999747 -12.168731,18.994966 -24.318784,37.767153 -16.928232,26.154607 -22.498566,34.564077 -23.834921,35.983327 -9.162063,9.73033 -15.31254,22.83181 -17.389175,37.04166 -0.609689,4.17194 -0.621785,13.79409 -0.02263,18.00068 2.112714,14.83306 8.395649,27.88179 18.448498,38.3148 11.999479,12.45325 26.794677,19.52912 44.053122,21.06861 3.46486,0.30907 10.36437,0.11773 14.31609,-0.39702 z m 4.41,-36.77343 c -2.43695,-0.52951 -5.1281,-2.05202 -6.779,-3.83519 -1.75906,-1.9 -2.59831,-3.32259 -3.52812,-5.98043 -0.67806,-1.93821 -0.73088,-2.39053 -0.73818,-6.32093 -0.009,-4.81406 0.30063,-6.399 1.88121,-9.63129 1.26405,-2.585 4.04362,-5.43154 6.4453,-6.6006 4.41375,-2.14849 10.41821,-2.14695 14.81667,0.004 3.29196,1.60969 5.90712,5.11871 7.06606,9.48122 0.65919,2.48136 0.647,8.72012 -0.022,11.24479 -2.32189,8.76261 -10.2351,13.57398 -19.14195,11.63864 z m 8.34945,-6.08301 c 3.18517,-1.73544 4.79894,-5.38313 4.79894,-10.84729 0,-5.46837 -1.58017,-8.93419 -4.86315,-10.66647 -1.19348,-0.62975 -1.63279,-0.7095 -3.86028,-0.70085 -2.19023,0.009 -2.68371,0.0992 -3.83646,0.70474 -3.5591,1.86974 -5.18339,5.32977 -5.1918,11.05945 -0.007,4.86381 1.33875,8.14451 4.09767,9.98832 1.76058,1.17662 2.5825,1.38244 5.19517,1.30098 1.90372,-0.0594 2.46556,-0.18814 3.65991,-0.83888 z m -48.987194,5.60822 c 0.118706,-0.19837 9.736614,-15.26319 21.373134,-33.47736 l 21.15731,-33.11669 h 3.5244 c 3.2767,0 3.50659,0.0325 3.27102,0.46302 -0.13935,0.25466 -9.71572,15.2863 -21.2808,33.40364 l -21.027427,32.94063 -3.616733,0.0737 c -2.996517,0.0611 -3.57972,0.0119 -3.400904,-0.28696 z m 1.009576,-33.56619 c -4.614394,-0.87359 -8.848254,-4.83511 -10.435973,-9.76467 -1.07918,-3.35065 -1.142416,-9.41516 -0.134565,-12.90526 1.013862,-3.51092 3.52148,-7.04848 6.227019,-8.78462 2.43164,-1.56038 4.507079,-2.15203 8.047686,-2.29419 5.208323,-0.20911 8.473355,0.86932 11.410564,3.76886 1.85588,1.83208 3.050867,3.99038 3.858077,6.96821 0.78451,2.89408 0.77926,8.57735 -0.0106,11.49456 -1.606394,5.93277 -5.71382,10.13061 -11.170973,11.41686 -1.87534,0.44202 -5.724337,0.49155 -7.791214,0.10025 z m 7.321159,-5.68091 c 1.633286,-0.51284 3.468259,-2.16571 4.306596,-3.87921 2.55973,-5.2319 1.650423,-14.12071 -1.736021,-16.97021 -1.793438,-1.50908 -2.81959,-1.85307 -5.526109,-1.8525 -2.203608,5.3e-4 -2.676662,0.0865 -3.836458,0.6976 -2.409354,1.26953 -4.191241,3.698 -4.921956,6.70797 -0.175025,0.72097 -0.323163,2.68007 -0.329195,4.35356 -0.01548,4.29479 0.83208,6.983 2.85782,9.0642 2.258436,2.32027 5.601282,3.00395 9.185323,1.87859 z"
       id="path4511"
       inkscape:connector-curvature="0" />
  </g>
</svg>
