<?xml version="1.0" encoding="UTF-8" standalone="no"?>
<!-- Created with Inkscape (http://www.inkscape.org/) -->

<svg
   xmlns:dc="http://purl.org/dc/elements/1.1/"
   xmlns:cc="http://creativecommons.org/ns#"
   xmlns:rdf="http://www.w3.org/1999/02/22-rdf-syntax-ns#"
   xmlns:svg="http://www.w3.org/2000/svg"
   xmlns="http://www.w3.org/2000/svg"
   xmlns:sodipodi="http://sodipodi.sourceforge.net/DTD/sodipodi-0.dtd"
   xmlns:inkscape="http://www.inkscape.org/namespaces/inkscape"
   width="167.00357mm"
   height="130.35355mm"
   viewBox="0 0 167.00357 130.35355"
   version="1.1"
   id="svg8"
   inkscape:version="0.92.1 r15371"
   sodipodi:docname="mailbox.svg">
  <defs
     id="defs2" />
  <sodipodi:namedview
     id="base"
     pagecolor="#ffffff"
     bordercolor="#666666"
     borderopacity="1.0"
     inkscape:pageopacity="0.0"
     inkscape:pageshadow="2"
     inkscape:zoom="0.49497475"
     inkscape:cx="-788.58464"
     inkscape:cy="29.383773"
     inkscape:document-units="mm"
     inkscape:current-layer="layer1"
     showgrid="false"
     inkscape:window-width="3000"
     inkscape:window-height="1859"
     inkscape:window-x="-14"
     inkscape:window-y="-14"
     inkscape:window-maximized="1"
     fit-margin-top="0"
     fit-margin-left="0"
     fit-margin-right="0"
     fit-margin-bottom="0" />
  <metadata
     id="metadata5">
    <rdf:RDF>
      <cc:Work
         rdf:about="">
        <dc:format>image/svg+xml</dc:format>
        <dc:type
           rdf:resource="http://purl.org/dc/dcmitype/StillImage" />
        <dc:title></dc:title>
      </cc:Work>
    </rdf:RDF>
  </metadata>
  <g
     inkscape:label="Layer 1"
     inkscape:groupmode="layer"
     id="layer1"
     transform="translate(-32.685802,-86.700076)">
    <path
       style="fill:#ffffff;fill-opacity:1;stroke-width:0.05568014"
       d="m 100.83724,217.03915 c -3.293882,-0.3585 -5.561682,-2.69763 -6.067772,-6.25858 -0.0724,-0.50941 -0.0835,-4.0642 -0.0878,-28.17248 -0.003,-15.17423 -0.0258,-28.66692 -0.0513,-29.98375 -0.0506,-2.61541 -0.0847,-2.96899 -0.41952,-4.35437 -0.89699,-3.71119 -3.00218,-7.65119 -6.12257,-11.45879 -1.53348,-1.87121 -3.68793,-4.02544 -5.56976,-5.5692 -4.71527,-3.86819 -9.78849,-6.23835 -14.78307,-6.90651 -0.91879,-0.12291 -3.18301,-0.16954 -4.10832,-0.0846 -0.38941,0.0357 -0.99616,0.11301 -1.34834,0.17169 -1.11282,0.18542 -1.06338,0.1813 -0.75168,0.0625 0.15312,-0.0583 21.97695,-8.04974 48.497402,-17.75867 30.43028,-11.140276 48.50657,-17.784965 48.99852,-18.01142 2.26579,-1.043006 4.4939,-1.634141 7.32193,-1.942564 0.99673,-0.108703 3.99449,-0.09162 5.15042,0.02935 6.8076,0.712419 13.63743,3.689292 19.321,8.421328 0.94165,0.78399 3.13971,2.97765 3.87254,3.86477 2.79533,3.383886 4.33709,6.550056 4.88042,10.022426 0.0858,0.54859 0.10007,1.00725 0.0994,3.20161 -5.5e-4,1.4087 -0.038,3.38813 -0.0835,4.39873 -0.10432,2.31638 -0.1046,3.17326 -0.001,3.70273 0.0707,0.36173 0.0841,3.54624 0.10025,23.80326 0.0129,16.16431 5.6e-4,23.66547 -0.0407,24.29181 -0.13419,2.04624 -0.66791,3.99391 -1.64368,5.99818 -1.87898,3.85952 -5.09204,7.10549 -8.42574,8.51202 -0.48563,0.20489 -44.2032,17.45808 -77.54515,30.60327 -4.10363,1.61787 -7.70284,3.00707 -7.99823,3.0871 -0.29541,0.08 -0.74642,0.18274 -1.00224,0.22823 -0.47495,0.0845 -1.78976,0.14559 -2.19123,0.1019 z m 10.13747,-21.57362 c 0.96719,-0.17665 1.74976,-0.90583 1.99896,-1.86256 0.0757,-0.29085 0.0854,-2.1904 0.0855,-16.89475 v -16.56707 l 11.01057,-3.61488 c 6.05583,-1.9882 11.16436,-3.68289 11.3523,-3.766 1.4461,-0.63942 2.67551,-2.19131 3.06308,-3.8665 0.0974,-0.42103 0.10305,-0.83297 0.10305,-7.51682 0,-7.77956 0.0164,-7.38334 -0.33659,-8.12952 -0.41262,-0.87219 -1.455,-1.44123 -2.44741,-1.33603 -0.22216,0.0236 -4.50313,1.42141 -12.77859,4.17259 -7.19785,2.39293 -12.60333,4.16163 -12.82121,4.19518 -1.01088,0.15564 -1.81426,0.8804 -2.08095,1.8773 -0.0617,0.2305 -0.0746,4.65743 -0.0751,25.73228 -6.7e-4,25.33667 0,25.45554 0.11122,25.81609 0.27734,0.89793 0.96894,1.53478 1.8926,1.74275 0.39438,0.0888 0.521,0.0913 0.92242,0.0179 z m -40.510992,10.49826 -20.29541,-10.04543 -0.63234,-1.0732 c -2.23603,-3.79493 -5.24008,-9.47854 -7.15946,-13.54555 -5.68475,-12.04553 -8.90676,-21.93091 -9.61856,-29.51048 -0.10817,-1.15193 -0.0916,-3.93028 0.0289,-4.8349 0.43367,-3.25686 1.55656,-5.37376 3.54778,-6.68837 1.16656,-0.77017 2.62451,-1.28002 4.32127,-1.51117 1.47277,-0.20064 3.7093,-0.11871 5.5674,0.20394 6.19162,1.07515 13.24496,4.84796 16.98746,9.08654 0.93715,1.06137 1.55054,1.93472 2.53178,3.60476 5.24011,8.91852 12.59803,27.26313 21.5625,53.75918 1.46254,4.3228 3.49176,10.49538 3.47012,10.55559 -0.009,0.0245 -9.14893,-4.47592 -20.3114,-10.00091 z m 19.55049,-6.79086 c -9.21826,-26.74437 -16.62009,-44.48685 -21.67238,-51.94957 -2.45031,-3.61935 -6.53488,-6.97276 -11.51974,-9.45765 -0.75029,-0.37401 -1.69657,-0.81695 -2.10284,-0.98431 -0.85551,-0.35244 -0.80892,-0.23388 -0.45162,-1.14936 1.2871,-3.2978 3.68684,-5.38299 7.3501,-6.38667 1.98245,-0.54317 4.17117,-0.62968 6.39607,-0.2528 4.50527,0.76314 9.3414,3.42559 13.58595,7.47954 4.35037,4.155 7.49942,9.21277 8.30152,13.33325 0.10731,0.55126 0.1187,0.89287 0.16637,4.9905 0.0281,2.4193 0.0449,13.44397 0.0373,24.49926 -0.0119,17.1645 -0.0251,20.068 -0.0907,19.87781 z"
       id="path4509"
       inkscape:connector-curvature="0" />
  </g>
</svg>
