<?xml version="1.0" encoding="UTF-8" standalone="no"?>
<!-- Created with Inkscape (http://www.inkscape.org/) -->

<svg
   xmlns:dc="http://purl.org/dc/elements/1.1/"
   xmlns:cc="http://creativecommons.org/ns#"
   xmlns:rdf="http://www.w3.org/1999/02/22-rdf-syntax-ns#"
   xmlns:svg="http://www.w3.org/2000/svg"
   xmlns="http://www.w3.org/2000/svg"
   xmlns:sodipodi="http://sodipodi.sourceforge.net/DTD/sodipodi-0.dtd"
   xmlns:inkscape="http://www.inkscape.org/namespaces/inkscape"
   width="255.93925mm"
   height="236.29865mm"
   viewBox="0 0 255.93925 236.29865"
   version="1.1"
   id="svg8"
   inkscape:version="0.92.1 r15371"
   sodipodi:docname="mail.svg">
  <defs
     id="defs2" />
  <sodipodi:namedview
     id="base"
     pagecolor="#ffffff"
     bordercolor="#666666"
     borderopacity="1.0"
     inkscape:pageopacity="0.0"
     inkscape:pageshadow="2"
     inkscape:zoom="0.35"
     inkscape:cx="-926.84709"
     inkscape:cy="-280.59707"
     inkscape:document-units="mm"
     inkscape:current-layer="layer1"
     showgrid="false"
     inkscape:window-width="3000"
     inkscape:window-height="1859"
     inkscape:window-x="-14"
     inkscape:window-y="-14"
     inkscape:window-maximized="1"
     fit-margin-top="0"
     fit-margin-left="0"
     fit-margin-right="0"
     fit-margin-bottom="0" />
  <metadata
     id="metadata5">
    <rdf:RDF>
      <cc:Work
         rdf:about="">
        <dc:format>image/svg+xml</dc:format>
        <dc:type
           rdf:resource="http://purl.org/dc/dcmitype/StillImage" />
        <dc:title></dc:title>
      </cc:Work>
    </rdf:RDF>
  </metadata>
  <g
     inkscape:label="Layer 1"
     inkscape:groupmode="layer"
     id="layer1"
     transform="translate(10.862921,-20.438403)">
    <path
       style="fill:#ffffff;fill-opacity:1;stroke-width:0.10257364"
       d="m 110.73073,256.66875 c -21.395504,-1.05661 -41.4136,-6.67704 -59.569079,-16.72507 -2.251093,-1.24585 -7.171976,-4.25339 -9.234267,-5.64379 C 25.256348,223.06022 11.984998,208.65442 2.751465,191.77512 -4.2285135,179.01543 -8.5873547,165.25187 -10.217248,150.82493 c -0.753542,-6.66997 -0.854637,-14.95557 -0.265753,-21.78098 2.1832319,-25.30468 13.1213321,-49.17708 31.316782,-68.348887 6.296532,-6.634405 13.256881,-12.505892 21.054452,-17.760741 2.10168,-1.416329 7.009898,-4.417428 9.273418,-5.67016 18.284766,-10.119576 38.410651,-15.742517 59.878299,-16.729311 2.81338,-0.129326 9.42726,-0.128528 12.2019,0.002 18.06108,0.846163 34.84708,4.85772 50.74097,12.126197 22.65628,10.361013 41.61259,26.821893 54.21521,47.07825 8.91554,14.330066 14.45988,30.207612 16.28714,46.642172 0.50747,4.56433 0.59116,6.29431 0.59116,12.22099 0,5.92668 -0.0837,7.65667 -0.59116,12.221 -4.74389,42.66688 -34.26319,79.61709 -77.12113,96.53478 -13.0957,5.1694 -26.53804,8.14333 -41.47416,9.17561 -2.68521,0.1856 -12.37596,0.27089 -15.15915,0.13343 z m 14.51862,-14.12922 c 6.39933,-0.47681 11.46196,-1.17746 17.13878,-2.37191 17.11788,-3.6018 33.40303,-11.06966 46.96736,-21.53777 5.05498,-3.90112 10.24614,-8.69381 14.46266,-13.3525 20.05128,-22.15396 29.16441,-50.84997 25.29691,-79.65652 C 226.62888,107.10275 218.73665,89.5319 206.23872,74.690081 201.73021,69.33604 196.18773,63.975399 190.52979,59.496538 172.51217,45.233696 150.1965,36.593757 126.69053,34.779959 c -6.21707,-0.479725 -12.89198,-0.479725 -19.10907,0 C 73.189716,37.43374 41.90865,54.652425 22.812502,81.441084 8.8850663,100.97892 2.6091353,123.79049 4.6726146,147.37545 c 1.734713,19.82717 9.9530104,39.23674 23.3341354,55.10941 2.954083,3.50413 5.644387,6.29942 9.378023,9.74401 5.735862,5.29181 10.85766,9.17221 17.458503,13.22698 16.401709,10.07528 35.325068,15.96327 55.033414,17.12365 0.9688,0.057 2.04968,0.11947 2.40198,0.13874 1.72512,0.0944 11.0257,-0.0338 12.97068,-0.17871 z M 43.772661,187.64742 c -0.511683,-0.0606 -0.989679,-0.16567 -1.062204,-0.23342 -0.07256,-0.0678 -0.235889,-0.12319 -0.363016,-0.12319 -0.127116,0 -0.345696,-0.0826 -0.485726,-0.18356 -0.14003,-0.10095 -0.362098,-0.21465 -0.49349,-0.25266 -0.407738,-0.11792 -2.163084,-1.82625 -2.163084,-2.10513 0,-0.0525 -0.07202,-0.15075 -0.160135,-0.21824 -0.08811,-0.0675 -0.160134,-0.21182 -0.160134,-0.32074 0,-0.10892 -0.108081,-0.3585 -0.240197,-0.55464 l -0.240196,-0.35657 V 139.93202 96.564781 l 0.240196,-0.281908 c 0.132116,-0.155054 0.240197,-0.38138 0.240197,-0.502941 0,-0.121571 0.07202,-0.276246 0.160134,-0.34373 0.08811,-0.06748 0.160135,-0.176885 0.160135,-0.243123 0,-0.06629 0.120044,-0.249302 0.266757,-0.406798 0.146714,-0.157496 0.266812,-0.316119 0.266887,-0.352493 2.06e-4,-0.09201 0.959134,-0.968711 1.059559,-0.968711 0.04503,0 0.168729,-0.08872 0.274996,-0.197109 0.106246,-0.108413 0.250497,-0.197119 0.320485,-0.197119 0.06997,0 0.238026,-0.08872 0.373424,-0.19711 0.135398,-0.108413 0.360878,-0.197109 0.501059,-0.197109 0.140181,0 0.401054,-0.09979 0.579728,-0.221751 l 0.324868,-0.22176 66.579266,-0.0636 c 44.32403,-0.04236 67.23941,-0.09819 68.55422,-0.167085 2.66965,-0.139903 12.70905,-0.190052 12.91731,-0.06449 0.31229,0.188218 0.91333,0.341547 1.34457,0.343013 0.3001,9.96e-4 0.49774,0.0633 0.63038,0.198594 0.10625,0.108413 0.27902,0.19712 0.3839,0.19712 0.10484,0 0.22155,0.04615 0.2593,0.102542 0.0378,0.05642 0.2567,0.212141 0.48653,0.346092 0.91704,0.534441 2.23548,2.031292 2.39367,2.717577 0.0421,0.182894 0.13568,0.399063 0.20784,0.480373 0.37027,0.417235 0.38003,1.53776 0.38003,43.660505 0,42.07413 -0.01,43.23848 -0.37758,43.66049 -0.0708,0.0813 -0.16154,0.27503 -0.20164,0.43048 -0.14806,0.57402 -1.62252,2.41589 -1.94087,2.4245 -0.0643,0.002 -0.20385,0.0919 -0.31013,0.20028 -0.10624,0.10841 -0.25194,0.19711 -0.32372,0.19711 -0.0718,0 -0.18927,0.0654 -0.26108,0.14522 -0.0718,0.0798 -0.30586,0.17498 -0.52016,0.21134 -0.21427,0.0364 -0.4221,0.11248 -0.46182,0.16917 -0.24787,0.35377 -0.3223,0.35412 -75.24315,0.3446 -53.112298,-0.007 -73.219914,-0.0393 -73.897109,-0.1195 z M 182.248,181.29318 c 0.0897,-0.15471 0.001,-0.26068 -0.57949,-0.68989 -0.37698,-0.27891 -0.72936,-0.50711 -0.78304,-0.50711 -0.0537,0 -0.15404,-0.0628 -0.22305,-0.13957 -0.069,-0.0768 -0.46917,-0.35396 -0.88924,-0.61598 -0.42006,-0.26202 -0.93394,-0.62034 -1.14196,-0.79623 -0.20801,-0.17592 -0.43082,-0.32006 -0.4951,-0.32032 -0.0644,0 -0.20386,-0.0892 -0.31013,-0.19758 -0.10625,-0.10841 -0.25783,-0.19712 -0.33681,-0.19712 -0.0789,0 -0.14359,-0.0369 -0.14359,-0.0819 0,-0.0451 -0.24995,-0.23148 -0.55544,-0.41424 -0.50848,-0.30418 -0.65748,-0.41179 -1.16158,-0.83888 -0.093,-0.0788 -0.21766,-0.14327 -0.27703,-0.14327 -0.0594,0 -0.19489,-0.0887 -0.30117,-0.19712 -0.10624,-0.10841 -0.25545,-0.19711 -0.33151,-0.19711 -0.076,0 -0.17669,-0.058 -0.22364,-0.12887 -0.047,-0.0709 -0.33759,-0.27792 -0.64584,-0.4601 -0.30825,-0.18218 -0.56046,-0.3681 -0.56046,-0.41319 0,-0.0451 -0.0717,-0.0819 -0.15922,-0.0819 -0.0876,0 -0.21924,-0.0887 -0.29258,-0.19711 -0.0733,-0.10841 -0.18639,-0.19712 -0.25124,-0.19712 -0.0649,0 -0.20485,-0.0887 -0.31113,-0.19711 -0.10625,-0.10841 -0.23916,-0.1971 -0.29531,-0.1971 -0.0561,0 -0.33158,-0.17741 -0.61211,-0.39423 -0.28051,-0.21683 -0.56491,-0.39423 -0.632,-0.39423 -0.0671,0 -0.14963,-0.0665 -0.18343,-0.14784 -0.0338,-0.0813 -0.10969,-0.14783 -0.16865,-0.14783 -0.059,0 -0.33672,-0.1774 -0.61723,-0.39423 -0.28052,-0.21682 -0.54474,-0.39422 -0.58715,-0.39422 -0.0424,0 -0.30664,-0.17741 -0.58715,-0.39422 -0.28052,-0.21683 -0.56491,-0.39423 -0.63201,-0.39423 -0.067,0 -0.14963,-0.0665 -0.18342,-0.14784 -0.0338,-0.0813 -0.12022,-0.14784 -0.19204,-0.14784 -0.0718,0 -0.34292,-0.17676 -0.60243,-0.39283 -0.25949,-0.21606 -0.52442,-0.39345 -0.58871,-0.39423 -0.0644,-9.7e-4 -0.20385,-0.0901 -0.31013,-0.19849 -0.10624,-0.10842 -0.24179,-0.19712 -0.30116,-0.19712 -0.0594,0 -0.18404,-0.0663 -0.27703,-0.14731 -0.29291,-0.2552 -0.83774,-0.64114 -0.9051,-0.64114 -0.0355,0 -0.15728,-0.0777 -0.2705,-0.17248 -0.49434,-0.41415 -1.23577,-0.91164 -1.3587,-0.91164 -0.0333,0 -0.29002,-0.1774 -0.57054,-0.39423 -0.28052,-0.21682 -0.56491,-0.39422 -0.632,-0.39422 -0.0671,0 -0.14963,-0.0665 -0.18343,-0.14784 -0.0338,-0.0813 -0.10969,-0.14783 -0.16865,-0.14783 -0.059,0 -0.33672,-0.17741 -0.61724,-0.39423 -0.28051,-0.21682 -0.54263,-0.39422 -0.58247,-0.39422 -0.059,0 -0.74106,-0.47557 -1.41467,-0.98636 -0.0709,-0.0537 -0.17086,-0.0978 -0.22208,-0.0978 -0.0512,0 -0.30548,-0.17678 -0.56497,-0.39284 -0.2595,-0.21605 -0.52443,-0.39346 -0.58872,-0.39422 -0.0644,-9.9e-4 -0.20385,-0.0901 -0.31012,-0.19851 -0.10624,-0.10841 -0.24031,-0.19711 -0.29787,-0.19711 -0.0576,0 -0.21149,-0.0998 -0.34205,-0.22175 -0.34353,-0.32089 -0.71869,-0.56671 -0.86494,-0.56671 -0.0699,0 -0.15464,-0.0665 -0.18844,-0.14782 -0.0338,-0.0813 -0.13229,-0.14784 -0.21888,-0.14784 -0.0866,0 -0.22041,-0.0777 -0.29738,-0.17248 -0.17241,-0.21245 -0.78458,-0.61598 -0.93447,-0.61598 -0.0606,0 -0.17018,-0.0887 -0.24352,-0.19711 -0.0733,-0.10841 -0.19535,-0.19711 -0.27114,-0.19711 -0.0758,0 -0.16416,-0.0634 -0.19639,-0.14095 -0.0322,-0.0776 -0.19886,-0.18609 -0.37029,-0.24126 -0.17143,-0.0552 -0.3117,-0.14697 -0.3117,-0.204 0,-0.057 -0.0533,-0.10368 -0.11863,-0.10368 -0.0652,0 -0.34814,-0.1774 -0.62865,-0.39423 -0.28052,-0.21683 -0.54012,-0.39423 -0.5769,-0.39423 -0.0368,0 -0.42533,-0.25501 -0.86345,-0.56669 -1.41918,-1.00963 -1.86318,-1.30588 -1.9572,-1.30588 -0.0507,0 -0.17921,-0.0887 -0.28549,-0.19711 -0.10624,-0.10841 -0.23619,-0.19712 -0.28873,-0.19712 -0.0525,0 -0.26724,-0.15399 -0.47716,-0.3422 -0.20992,-0.18822 -0.47651,-0.37 -0.5924,-0.40396 -0.11591,-0.034 -0.29863,-0.13498 -0.40604,-0.22449 -0.55292,-0.4607 -1.2309,-0.90192 -1.38591,-0.90192 -0.054,0 -0.14968,-0.0887 -0.21253,-0.1971 -0.0628,-0.10842 -0.18225,-0.19712 -0.26533,-0.19712 -0.0831,0 -0.18949,-0.0555 -0.23644,-0.12348 -0.047,-0.0679 -0.30156,-0.25547 -0.56578,-0.41678 -0.26421,-0.16131 -0.6775,-0.43836 -0.9184,-0.61569 -0.2409,-0.17732 -0.49271,-0.32239 -0.55956,-0.32239 -0.0668,0 -0.18155,-0.0887 -0.25488,-0.19712 -0.0733,-0.10842 -0.17124,-0.19711 -0.21756,-0.19711 -0.0463,0 -0.32111,-0.16632 -0.61065,-0.36959 -0.28954,-0.20327 -0.79752,-0.54699 -1.12883,-0.76382 -0.33133,-0.21681 -0.69351,-0.47183 -0.80485,-0.56669 -0.11136,-0.0949 -0.24463,-0.17247 -0.29615,-0.17247 -0.0515,0 -0.15014,-0.0628 -0.21915,-0.13959 -0.069,-0.0767 -0.47123,-0.35321 -0.8938,-0.61432 -0.42258,-0.26112 -0.79339,-0.5061 -0.82404,-0.5444 -0.0768,-0.096 -0.84654,-0.57427 -0.92426,-0.57427 -0.0347,0 -0.17399,-0.0998 -0.30955,-0.22175 -0.47733,-0.42949 -0.65062,-0.5667 -0.71574,-0.5667 -0.10128,0 -0.95114,-0.54424 -1.25477,-0.80351 -0.149,-0.12724 -0.40121,-0.28583 -0.56047,-0.35242 -0.15926,-0.0666 -0.28955,-0.16638 -0.28955,-0.22175 0,-0.0554 -0.0494,-0.10067 -0.10989,-0.10067 -0.10312,0 -0.32261,-0.1446 -1.72077,-1.13339 -0.30658,-0.21683 -0.64463,-0.42606 -0.75119,-0.46498 -0.10657,-0.0389 -0.19377,-0.11651 -0.19377,-0.17247 0,-0.0559 -0.0494,-0.10173 -0.10989,-0.10173 -0.0605,0 -0.35299,-0.1774 -0.65011,-0.39423 -0.60059,-0.43828 -0.88429,-0.49129 -1.05482,-0.19711 -0.0628,0.10841 -0.17309,0.19711 -0.24497,0.19711 -0.0719,0 -0.1907,0.0887 -0.26404,0.19712 -0.0733,0.10841 -0.18989,0.19711 -0.259,0.19711 -0.10549,0 -0.69328,0.41062 -1.36709,0.95506 -0.44156,0.3568 -1.28777,0.91751 -1.38467,0.91751 -0.0605,0 -0.10989,0.0405 -0.10989,0.09 0,0.0495 -0.20417,0.22671 -0.45371,0.39374 -0.24954,0.16703 -0.55782,0.37391 -0.68509,0.45972 -0.12726,0.0858 -0.43951,0.32934 -0.6939,0.54117 -0.25439,0.21182 -0.52019,0.38576 -0.59066,0.38652 -0.0705,9.9e-4 -0.16656,0.0608 -0.21352,0.13334 -0.047,0.0726 -0.16428,0.17235 -0.26072,0.22175 -0.18083,0.0926 -0.92668,0.64765 -1.27951,0.95218 -0.10991,0.0949 -0.22579,0.17247 -0.25754,0.17247 -0.10754,0 -0.74124,0.44254 -0.88198,0.61598 -0.077,0.0949 -0.19773,0.17248 -0.26837,0.17248 -0.0706,0 -0.1884,0.0887 -0.26173,0.19711 -0.0733,0.10841 -0.21322,0.19711 -0.31085,0.19711 -0.0976,0 -0.2579,0.0672 -0.35617,0.14926 -0.12554,0.1049 -0.52473,0.16663 -1.34284,0.20763 -1.11126,0.0557 -1.37054,0.0211 -1.85808,-0.24757 -0.0881,-0.0486 -0.28023,-0.13911 -0.42702,-0.20125 -0.41388,-0.17523 -0.67464,-0.33174 -0.96276,-0.5779 -0.1457,-0.12447 -0.341,-0.29079 -0.43401,-0.36959 -0.093,-0.0787 -0.21501,-0.14326 -0.27115,-0.14326 -0.0562,0 -0.30349,-0.16631 -0.54968,-0.36959 -0.24618,-0.20327 -0.57154,-0.45828 -0.72302,-0.5667 -0.15148,-0.10841 -0.35513,-0.27472 -0.45258,-0.36958 -0.0974,-0.0949 -0.22652,-0.17307 -0.28686,-0.17379 -0.0604,-9.8e-4 -0.37394,-0.22448 -0.69688,-0.49726 -0.32293,-0.27276 -0.71926,-0.5616 -0.88072,-0.64183 -0.16146,-0.0802 -0.29358,-0.1891 -0.29358,-0.24192 0,-0.0528 -0.0717,-0.096 -0.15922,-0.096 -0.0876,0 -0.21924,-0.0887 -0.29258,-0.19711 -0.0733,-0.10841 -0.17167,-0.19712 -0.21853,-0.19712 -0.0469,0 -0.28518,-0.1774 -0.52961,-0.39422 -0.24441,-0.21683 -0.50828,-0.39423 -0.58637,-0.39423 -0.0781,0 -0.16963,-0.0665 -0.20343,-0.14784 -0.0338,-0.0813 -0.1197,-0.14783 -0.19091,-0.14783 -0.0712,0 -0.22835,-0.0998 -0.34922,-0.22175 -0.24865,-0.2509 -1.04445,-0.87019 -1.27546,-0.99257 -0.2189,-0.11597 -0.7311,0.0103 -0.95073,0.23434 -0.10322,0.10535 -0.23029,0.19153 -0.28228,0.19153 -0.11212,0 -0.64868,0.34957 -1.03707,0.67565 -0.15207,0.12767 -0.52424,0.38427 -0.82704,0.5702 -0.30279,0.18593 -0.60891,0.40301 -0.68028,0.48239 -0.0714,0.0794 -0.18436,0.14433 -0.25112,0.14433 -0.0667,0 -0.1814,0.0887 -0.25472,0.19712 -0.0733,0.10841 -0.18611,0.19711 -0.2506,0.19711 -0.1118,0 -1.026948,0.6176 -1.384457,0.93432 -0.09297,0.0824 -0.206433,0.1498 -0.252074,0.1498 -0.04567,0 -0.312484,0.1774 -0.593008,0.39423 -0.280513,0.21682 -0.563402,0.39422 -0.62865,0.39422 -0.06522,0 -0.11863,0.0457 -0.11863,0.10165 0,0.0559 -0.08411,0.13046 -0.186825,0.16565 -0.10279,0.0352 -0.43255,0.24447 -0.732909,0.46505 -0.300348,0.22058 -0.655308,0.46758 -0.788817,0.54889 -0.133497,0.0813 -0.375097,0.24762 -0.536873,0.36958 -0.161765,0.12197 -0.335688,0.22176 -0.386489,0.22176 -0.05075,0 -0.15235,0.0887 -0.225685,0.19711 -0.07331,0.10841 -0.186177,0.19711 -0.250745,0.19711 -0.06457,0 -0.434007,0.23284 -0.820982,0.51742 -0.386964,0.28458 -0.787629,0.56177 -0.890355,0.61598 -0.192289,0.10147 -0.999925,0.65946 -2.389406,1.65082 -0.436847,0.31168 -0.824362,0.5667 -0.861148,0.5667 -0.03682,0 -0.296375,0.1774 -0.576888,0.39422 -0.280513,0.21683 -0.563413,0.39423 -0.628661,0.39423 -0.06522,0 -0.118619,0.0458 -0.118619,0.10165 0,0.0559 -0.08411,0.12988 -0.186825,0.16439 -0.10279,0.0345 -0.40966,0.2327 -0.682032,0.44041 -0.272362,0.20772 -0.532554,0.37767 -0.578195,0.37767 -0.04567,0 -0.159076,0.0666 -0.252073,0.14804 -0.3146,0.27545 -1.381868,1.03464 -1.454491,1.03464 -0.03963,0 -0.388745,0.23284 -0.775709,0.51742 -0.386975,0.28458 -0.787629,0.56177 -0.890355,0.61598 -0.192299,0.10146 -0.999936,0.65946 -2.389406,1.65081 -0.436858,0.31169 -0.824372,0.5667 -0.861148,0.5667 -0.03682,0 -0.296375,0.1774 -0.576888,0.39423 -0.280524,0.21683 -0.563413,0.39423 -0.628661,0.39423 -0.06521,0 -0.11863,0.0457 -0.11863,0.10164 0,0.0559 -0.08411,0.13113 -0.186814,0.16718 -0.168708,0.0591 -0.63853,0.38027 -2.342373,1.60092 -0.304829,0.21838 -0.583086,0.39706 -0.61835,0.39706 -0.03531,0 -0.122128,0.044 -0.193044,0.0978 -0.351506,0.26655 -1.330269,0.94882 -1.485674,1.03563 -0.192246,0.1074 -1.13568,0.76101 -2.382831,1.65082 -0.436847,0.31169 -0.831023,0.56691 -0.875951,0.56718 -0.04492,0 -0.2542,0.14439 -0.465039,0.3203 -0.472413,0.39414 -1.02071,0.76335 -1.133628,0.76335 -0.04643,0 -0.294647,0.1774 -0.551579,0.39422 -0.256932,0.21682 -0.482693,0.39423 -0.501685,0.39423 -0.08066,0 -0.977025,0.59303 -1.251729,0.82815 -0.164497,0.14079 -0.334867,0.25597 -0.378617,0.25597 -0.08476,0 -0.237433,0.10238 -1.138973,0.76381 -0.314007,0.23038 -0.598904,0.41886 -0.63311,0.41886 -0.03423,0 -0.414497,0.25502 -0.845081,0.5667 -0.430596,0.31168 -0.892709,0.63323 -1.02693,0.71454 -0.13421,0.0813 -0.498543,0.33632 -0.809613,0.5667 -0.311058,0.23038 -0.604842,0.41907 -0.652836,0.41933 -0.04794,0 -0.259782,0.1444 -0.470632,0.32032 -0.480338,0.40074 -1.02125,0.76333 -1.138757,0.76333 -0.04924,0 -0.28955,0.17741 -0.533968,0.39423 -0.244418,0.21682 -0.467868,0.39422 -0.496546,0.39422 -0.09491,0 -0.965039,0.56771 -1.269339,0.82815 -0.164497,0.14079 -0.318217,0.25597 -0.341604,0.25597 -0.08854,0 -0.975708,0.58767 -1.326824,0.87893 -0.201402,0.16707 -0.405568,0.30375 -0.453713,0.30375 -0.08281,0 -0.172357,0.0633 -0.714704,0.5051 -0.124774,0.10165 -0.267449,0.18479 -0.317063,0.18479 -0.04956,0 -0.177161,0.0887 -0.283428,0.19712 -0.106246,0.10842 -0.245833,0.19747 -0.310131,0.19791 -0.06424,0 -0.402015,0.24256 -0.750486,0.53804 l -0.633596,0.53724 60.843182,0.0523 c 33.46376,0.0288 61.82801,0.0878 63.03167,0.13123 1.20366,0.0435 3.01546,0.0882 4.02623,0.0996 1.69346,0.019 1.84608,0.006 1.94372,-0.16216 z m 7.69087,-3.9501 c 0.11987,-0.20675 0.16528,-75.4514 0.0457,-75.73904 -0.11993,-0.28853 -0.49925,-0.15929 -1.27806,0.43545 -0.42589,0.32524 -0.82642,0.59133 -0.89005,0.59133 -0.0636,0 -0.11569,0.0433 -0.11569,0.096 0,0.0528 -0.13212,0.16121 -0.29358,0.24089 -0.25441,0.12555 -0.70252,0.46425 -1.31669,0.99524 -0.093,0.0804 -0.20644,0.1462 -0.25208,0.1462 -0.0798,0 -1.06731,0.71337 -1.28692,0.92968 -0.0587,0.0578 -0.32292,0.23821 -0.58714,0.40082 -0.26422,0.16262 -0.52844,0.34299 -0.58716,0.40083 -0.22937,0.22593 -1.20896,0.92976 -1.29587,0.93108 -0.082,9.9e-4 -0.76803,0.52408 -1.22182,0.93107 -0.093,0.0834 -0.20432,0.15165 -0.24738,0.15165 -0.11262,0 -1.27539,0.88324 -1.37697,1.04594 -0.047,0.0753 -0.15655,0.13674 -0.24355,0.13674 -0.087,0 -0.18583,0.0665 -0.21962,0.14784 -0.0338,0.0813 -0.12135,0.14783 -0.19458,0.14783 -0.0732,0 -0.25513,0.0998 -0.40426,0.22176 -0.5897,0.4823 -1.18945,0.92468 -1.61194,1.18897 -0.40493,0.25333 -1.03973,0.73072 -1.46644,1.10284 -0.093,0.0811 -0.20643,0.14745 -0.25207,0.14745 -0.0798,0 -1.06731,0.71339 -1.28692,0.9297 -0.0587,0.0578 -0.32293,0.2382 -0.58715,0.40082 -0.26422,0.16262 -0.52844,0.34299 -0.58715,0.40082 -0.23896,0.23537 -1.21062,0.92969 -1.30104,0.92969 -0.0534,0 -0.29711,0.1774 -0.54153,0.39423 -0.24443,0.21682 -0.4943,0.39422 -0.55528,0.39422 -0.061,0 -0.11088,0.0369 -0.11088,0.0819 0,0.0451 -0.22867,0.21875 -0.50817,0.38596 -0.2795,0.16719 -0.68546,0.46294 -0.90213,0.65721 -0.21668,0.19427 -0.41822,0.35322 -0.44787,0.35322 -0.0642,0 -0.69898,0.39288 -0.92105,0.57012 -0.0861,0.0687 -0.37271,0.30085 -0.63693,0.51584 -0.26421,0.21499 -0.56446,0.41639 -0.66721,0.44756 -0.10279,0.0312 -0.18682,0.095 -0.18682,0.14194 0,0.0469 -0.0884,0.11119 -0.19655,0.14286 -0.1081,0.0317 -0.38433,0.23349 -0.61384,0.44849 -0.22951,0.21499 -0.47884,0.39164 -0.55409,0.39256 -0.0753,9.9e-4 -0.16444,0.0682 -0.19824,0.14949 -0.0338,0.0813 -0.11637,0.14783 -0.18351,0.14783 -0.0672,0 -0.33229,0.1774 -0.58923,0.39423 -0.25693,0.21682 -0.50167,0.39423 -0.54387,0.39423 -0.0422,0 -0.16366,0.0887 -0.26994,0.19711 -0.10624,0.10841 -0.23381,0.1971 -0.28343,0.1971 -0.0497,0 -0.17428,0.0677 -0.27702,0.15031 -1.20217,0.96721 -1.69241,1.32805 -1.80432,1.32805 -0.0555,0 -0.30093,0.1774 -0.54534,0.39422 -0.24443,0.21682 -0.47827,0.39422 -0.51965,0.39422 -0.0413,0 -0.15132,0.0675 -0.24432,0.14987 -0.093,0.0824 -0.49335,0.376 -0.88967,0.65242 -0.39633,0.27639 -0.7206,0.54159 -0.7206,0.5893 0,0.0477 -0.0459,0.0867 -0.10203,0.0867 -0.10441,0 -0.68854,0.34471 -0.96914,0.57195 -0.0861,0.0698 -0.37079,0.3022 -0.63265,0.51659 -0.26187,0.2144 -0.51731,0.38981 -0.56766,0.38981 -0.12227,0 -1.28188,0.87246 -1.39019,1.04593 -0.047,0.0752 -0.13508,0.13675 -0.19583,0.13675 -0.14722,0 -1.37349,0.8929 -1.37349,1.0001 0,0.0462 -0.0647,0.084 -0.14358,0.084 -0.0789,0 -0.23055,0.0887 -0.33681,0.19711 -0.10625,0.10842 -0.24181,0.19711 -0.30117,0.19711 -0.0594,0 -0.18404,0.0664 -0.27703,0.14755 -0.72877,0.63593 -1.25705,1.03513 -1.36986,1.03513 -0.0735,0 -0.13366,0.0414 -0.13366,0.0919 0,0.0505 -0.0867,0.11732 -0.19258,0.14835 -0.10592,0.031 -0.3923,0.2336 -0.6364,0.45015 -0.24411,0.21654 -0.47769,0.39371 -0.51907,0.39371 -0.0414,0 -0.15133,0.0669 -0.24431,0.14863 -0.13857,0.12181 -1.47333,1.07125 -2.66322,1.89437 -0.13873,0.096 -0.35157,0.27431 -0.47295,0.39628 -0.12138,0.12196 -0.28409,0.22175 -0.36157,0.22175 -0.0775,0 -0.14088,0.0369 -0.14088,0.0819 0,0.0451 -0.24396,0.2279 -0.54213,0.40627 -0.29817,0.17837 -0.56753,0.38542 -0.59857,0.4601 -0.0311,0.0747 -0.12168,0.1358 -0.20139,0.1358 -0.0797,0 -0.19638,0.0887 -0.25922,0.19711 -0.0628,0.10841 -0.1656,0.19711 -0.22833,0.19711 -0.0627,0 -0.56202,0.33263 -1.10953,0.73917 -0.54751,0.40655 -1.03091,0.73918 -1.07422,0.73918 -0.0816,0 -0.3118,0.18462 -0.70665,0.56669 -0.12605,0.12197 -0.28101,0.22176 -0.34437,0.22176 -0.0634,0 -0.17521,0.0887 -0.24855,0.19711 -0.0733,0.10842 -0.1861,0.19711 -0.25059,0.19711 -0.14518,0 -1.18396,0.75467 -1.30074,0.94499 -0.047,0.0766 -0.1348,0.13914 -0.19521,0.13914 -0.0604,0 -0.46259,0.26609 -0.89371,0.59133 -0.43114,0.32524 -0.83055,0.59134 -0.88761,0.59134 -0.34118,0 -0.15774,0.78937 0.2257,0.97127 0.3603,0.17093 0.60716,0.3246 1.21032,0.75347 0.30495,0.21682 0.66436,0.47185 0.7987,0.5667 0.13434,0.0949 0.30139,0.17247 0.37125,0.17247 0.0699,0 0.15062,0.0568 0.17952,0.12636 0.0506,0.1219 1.29806,0.95776 1.4293,0.95776 0.0354,0 0.17538,0.0998 0.31094,0.22176 0.53533,0.48167 0.65568,0.5667 0.80215,0.5667 0.0837,0 0.2122,0.0887 0.28552,0.19711 0.0733,0.10841 0.20261,0.19711 0.28728,0.19711 0.0846,0 0.19233,0.0554 0.23928,0.12319 0.11066,0.15968 0.73959,0.56671 0.87565,0.56671 0.0578,0 0.16802,0.0777 0.24498,0.17247 0.17086,0.21054 0.78406,0.61598 0.93162,0.61598 0.0591,0 0.15875,0.0887 0.22159,0.19711 0.0628,0.10841 0.18225,0.19712 0.26534,0.19712 0.083,0 0.18949,0.0554 0.23644,0.12319 0.0931,0.13424 0.73063,0.5667 0.83554,0.5667 0.0671,0 1.14858,0.77314 1.44726,1.03464 0.093,0.0814 0.21922,0.14804 0.2805,0.14804 0.0613,0 0.16788,0.0628 0.23689,0.13957 0.069,0.0768 0.47015,0.35396 0.89143,0.61598 0.70598,0.4391 0.89303,0.57236 1.3668,0.97375 0.093,0.0788 0.24743,0.14327 0.34319,0.14327 0.0958,0 0.22553,0.0887 0.28838,0.19712 0.0628,0.10841 0.18463,0.19711 0.27064,0.19711 0.0861,0 0.15637,0.0365 0.15637,0.081 0,0.0854 0.81763,0.60884 0.95113,0.60884 0.0429,0 0.18105,0.0998 0.30708,0.22175 0.4166,0.40312 0.60739,0.54098 0.84033,0.60724 0.12669,0.0361 0.25729,0.13036 0.29023,0.20961 0.0329,0.0792 0.13107,0.14407 0.21807,0.14407 0.087,0 0.19659,0.0554 0.24355,0.1232 0.11273,0.16267 0.74069,0.56671 0.8808,0.56671 0.0606,0 0.17017,0.0887 0.24351,0.19711 0.0733,0.10841 0.19343,0.19711 0.26689,0.19711 0.0734,0 0.19355,0.0887 0.26688,0.19712 0.0733,0.1084 0.19432,0.19711 0.26884,0.19711 0.0745,0 0.21777,0.0887 0.31831,0.1971 0.10052,0.10842 0.22551,0.19712 0.27772,0.19712 0.0522,0 0.3244,0.17741 0.60493,0.39422 0.28051,0.21683 0.54451,0.39423 0.58668,0.39423 0.0801,0 1.05152,0.67534 1.34386,0.93432 0.093,0.0824 0.21922,0.1498 0.28049,0.1498 0.0613,0 0.16789,0.0628 0.23689,0.13958 0.069,0.0768 0.47016,0.35395 0.89144,0.61598 0.42127,0.26202 0.86309,0.55607 0.98183,0.65345 0.11872,0.0974 0.28794,0.23589 0.37601,0.30782 0.0881,0.0719 0.26378,0.16025 0.39046,0.19628 0.12669,0.0361 0.25729,0.13037 0.29022,0.20961 0.0329,0.0793 0.13108,0.14408 0.21808,0.14408 0.087,0 0.19659,0.058 0.24354,0.12887 0.047,0.0709 0.33758,0.27793 0.64584,0.46011 0.30825,0.18217 0.56045,0.3681 0.56045,0.41319 0,0.0451 0.0717,0.0819 0.15923,0.0819 0.0876,0 0.21923,0.0887 0.29258,0.19711 0.0733,0.10842 0.1943,0.19712 0.26883,0.19712 0.0745,0 0.21777,0.0887 0.3183,0.19711 0.10052,0.10841 0.22552,0.19711 0.27773,0.19711 0.0522,0 0.3244,0.1774 0.60492,0.39423 0.28052,0.21683 0.54608,0.39423 0.59016,0.39423 0.0441,0 0.40715,0.24392 0.80684,0.54205 0.39968,0.29814 0.75863,0.54206 0.79765,0.54206 0.039,0 0.30045,0.1774 0.58097,0.39423 0.28052,0.21683 0.54133,0.39423 0.5796,0.39423 0.0382,0 0.22045,0.0998 0.40486,0.22175 0.30664,0.20281 0.48348,0.33615 0.93712,0.70662 0.0881,0.072 0.26823,0.16155 0.40033,0.19918 0.13211,0.0376 0.2402,0.11087 0.2402,0.16276 0,0.0519 0.1201,0.1365 0.26689,0.18803 0.14679,0.0515 0.26688,0.13475 0.26688,0.18495 0,0.0774 0.53475,0.42938 0.91386,0.60141 0.1056,0.0479 0.1882,0.10843 0.67577,0.49488 0.3075,0.24372 0.85222,0.59134 0.92666,0.59134 0.0382,0 0.29908,0.1774 0.5796,0.39422 0.28052,0.21682 0.54738,0.39423 0.593,0.39423 0.0457,0 0.15908,0.0666 0.25208,0.148 0.27849,0.24376 1.27853,0.93612 1.35212,0.93612 0.0376,0 0.2979,0.1774 0.57842,0.39423 0.28051,0.21682 0.55596,0.39421 0.61211,0.39421 0.0562,0 0.18903,0.0887 0.29531,0.19712 0.10624,0.10842 0.23113,0.19711 0.27748,0.19711 0.0463,0 0.26709,0.15503 0.49054,0.34448 0.22346,0.18947 0.45888,0.34469 0.52317,0.34495 0.0643,0 0.20384,0.0892 0.31012,0.19759 0.10624,0.10841 0.25545,0.19711 0.33151,0.19711 0.076,0 0.17669,0.0632 0.22364,0.14055 0.0858,0.14127 0.83796,0.64789 0.96189,0.64789 0.0365,0 0.14246,0.0645 0.23545,0.14326 0.62736,0.53153 1.23276,0.94086 1.39154,0.94086 0.0606,0 0.17017,0.0887 0.24352,0.19712 0.0733,0.10842 0.18639,0.19711 0.25124,0.19711 0.0649,0 0.20486,0.0887 0.31113,0.19711 0.10625,0.10842 0.2418,0.19712 0.30116,0.19712 0.0594,0 0.18404,0.0674 0.27703,0.14979 0.29234,0.25899 1.2637,0.93433 1.34386,0.93433 0.0422,0 0.30617,0.17741 0.58668,0.39422 0.28053,0.21683 0.55598,0.39423 0.61211,0.39423 0.0562,0 0.18903,0.0887 0.29531,0.19711 0.10624,0.10841 0.23114,0.19712 0.27749,0.19712 0.0463,0 0.26709,0.15501 0.49053,0.34447 0.22346,0.18946 0.44738,0.3447 0.49761,0.34495 0.0812,0 0.47988,0.26976 0.9147,0.61794 0.19255,0.15418 0.57172,0.36004 0.6716,0.36461 0.042,0.002 0.12604,-0.0823 0.18681,-0.18715 z M 46.212339,176.79454 c 0.0338,-0.0813 0.121351,-0.14783 0.194567,-0.14783 0.07321,0 0.272243,-0.11214 0.442289,-0.24919 0.170036,-0.13707 0.3796,-0.303 0.465698,-0.36875 0.266272,-0.20337 0.863599,-0.56474 0.93349,-0.56474 0.07018,0 0.315701,-0.20038 0.694265,-0.5667 0.126047,-0.12197 0.270493,-0.22175 0.321003,-0.22175 0.141725,0 0.774068,-0.43325 1.373188,-0.94086 0.09296,-0.0787 0.217662,-0.14326 0.277025,-0.14326 0.05939,0 0.194891,-0.0887 0.301169,-0.19712 0.106245,-0.10841 0.256144,-0.19711 0.333053,-0.19711 0.07688,0 0.191252,-0.0887 0.254092,-0.19711 0.06284,-0.10841 0.173081,-0.19712 0.244969,-0.19712 0.07191,0 0.190702,-0.0887 0.264037,-0.19711 0.07331,-0.10841 0.182917,-0.1971 0.243511,-0.1971 0.158774,0 0.764178,-0.40934 1.391532,-0.94086 0.09296,-0.0787 0.203032,-0.14327 0.244526,-0.14327 0.121783,0 0.747496,-0.42838 0.899727,-0.61598 0.07699,-0.0949 0.209294,-0.17247 0.294031,-0.17247 0.08476,0 0.154078,-0.0458 0.154078,-0.10165 0,-0.0559 0.08411,-0.12997 0.186825,-0.16461 0.187182,-0.0631 0.679322,-0.39426 0.996438,-0.67055 0.09296,-0.081 0.206422,-0.14732 0.252073,-0.14732 0.04567,0 0.312495,-0.17739 0.593009,-0.39421 0.280513,-0.21683 0.551849,-0.39423 0.602974,-0.39423 0.05118,0 0.152954,-0.0887 0.226289,-0.19711 0.07331,-0.10842 0.182917,-0.19712 0.243511,-0.19712 0.158775,0 0.764178,-0.40933 1.391533,-0.94086 0.09296,-0.0788 0.203032,-0.14326 0.244526,-0.14326 0.121782,0 0.747485,-0.42837 0.899726,-0.61597 0.07699,-0.0949 0.197731,-0.17248 0.268356,-0.17248 0.07061,0 0.188402,-0.0887 0.261737,-0.19711 0.07331,-0.10841 0.182917,-0.19712 0.243511,-0.19712 0.158785,0 0.764178,-0.40933 1.391543,-0.94086 0.09296,-0.0787 0.217652,-0.14326 0.277026,-0.14326 0.05938,0 0.194891,-0.0887 0.301168,-0.19711 0.106246,-0.10841 0.252689,-0.19711 0.325387,-0.19711 0.07267,0 0.160092,-0.0672 0.194222,-0.14931 0.03412,-0.0821 0.183392,-0.19191 0.331692,-0.24396 0.14829,-0.052 0.269619,-0.14008 0.269619,-0.19563 0,-0.0555 0.06392,-0.10099 0.142017,-0.10099 0.07806,0 0.354334,-0.17678 0.613836,-0.39285 0.259502,-0.21605 0.500508,-0.39345 0.535556,-0.39422 0.03509,-9.8e-4 0.174506,-0.0901 0.309904,-0.1985 0.135398,-0.10841 0.299333,-0.19712 0.3643,-0.19712 0.065,0 0.178123,-0.0887 0.251458,-0.19711 0.07331,-0.10841 0.193433,-0.19711 0.266887,-0.19711 0.07342,0 0.193552,-0.0887 0.266887,-0.19712 0.07331,-0.1084 0.182917,-0.19711 0.243511,-0.19711 0.136025,0 0.650159,-0.33851 1.159359,-0.76334 0.210838,-0.17591 0.435962,-0.32005 0.500249,-0.3203 0.06424,0 0.203852,-0.0892 0.310119,-0.19759 0.106245,-0.10841 0.246286,-0.19711 0.311135,-0.19711 0.06489,0 0.177906,-0.0887 0.251241,-0.19712 0.07331,-0.10841 0.180974,-0.19711 0.239193,-0.19711 0.0582,0 0.189924,-0.0679 0.292671,-0.15094 0.372808,-0.30123 1.839792,-1.32741 1.897601,-1.32741 0.10889,0 0.741784,-0.4412 0.883606,-0.61598 0.07699,-0.0949 0.204155,-0.17247 0.282619,-0.17247 0.0785,0 0.170305,-0.0665 0.204101,-0.14783 0.03379,-0.0813 0.116341,-0.14784 0.183435,-0.14784 0.06705,0 0.351484,-0.1774 0.631997,-0.39422 0.280514,-0.21682 0.547368,-0.39423 0.593008,-0.39423 0.04567,0 0.159077,-0.0683 0.252074,-0.15172 0.180217,-0.16171 1.209781,-0.88343 1.611311,-1.12951 0.132666,-0.0813 0.495724,-0.33632 0.806794,-0.56671 0.31107,-0.23037 0.59479,-0.41886 0.630486,-0.41886 0.09858,0 0.739624,-0.42852 0.827255,-0.55306 0.04243,-0.0603 0.412176,-0.31899 0.821706,-0.57496 0.40953,-0.25597 0.801061,-0.52821 0.870066,-0.60497 0.069,-0.0768 0.180099,-0.13957 0.246859,-0.13957 0.06673,0 0.181383,-0.0887 0.254718,-0.19712 0.07331,-0.10842 0.189892,-0.19711 0.259005,-0.19711 0.0691,0 0.353557,-0.17741 0.632095,-0.39423 0.278527,-0.21683 0.557842,-0.39422 0.620703,-0.39422 0.06284,0 0.11429,-0.0457 0.11429,-0.10166 0,-0.0559 0.08411,-0.12987 0.186825,-0.16439 0.10279,-0.0345 0.402998,-0.22524 0.667218,-0.42385 0.264209,-0.19861 0.56446,-0.38935 0.667207,-0.42385 0.10279,-0.0345 0.186826,-0.10849 0.186826,-0.16439 0,-0.0559 0.04869,-0.10166 0.108264,-0.10166 0.0596,0 0.363966,-0.18848 0.676493,-0.41886 0.312538,-0.23038 0.67862,-0.48539 0.813532,-0.5667 0.134901,-0.0813 0.499795,-0.33633 0.810854,-0.5667 0.31107,-0.23037 0.599541,-0.41886 0.641046,-0.41886 0.04146,0 0.402479,-0.24393 0.802162,-0.54207 0.399694,-0.29812 0.757062,-0.54205 0.794173,-0.54205 0.03714,0 0.420208,-0.26611 0.851333,-0.59134 0.431135,-0.32524 0.818369,-0.59134 0.860532,-0.59134 0.04211,0 0.403668,-0.24393 0.803351,-0.54207 0.399693,-0.29812 0.754017,-0.54205 0.787402,-0.54205 0.03336,0 0.417779,-0.25502 0.854227,-0.5667 0.436448,-0.31169 1.060639,-0.74411 1.387084,-0.96092 0.326456,-0.21683 0.693282,-0.46076 0.815195,-0.54207 0.121901,-0.0813 0.4698,-0.32925 0.773074,-0.55098 0.303296,-0.22173 0.599476,-0.42202 0.658192,-0.44507 0.325484,-0.1278 0.907414,-0.51641 0.907414,-0.60595 0,-0.135 -1.063975,-1.04219 -1.307745,-1.11503 -0.10279,-0.0307 -0.186825,-0.0983 -0.186825,-0.15019 0,-0.0519 -0.12133,-0.13694 -0.269619,-0.18898 -0.14829,-0.052 -0.297552,-0.16183 -0.331682,-0.24396 -0.03412,-0.0821 -0.126598,-0.14931 -0.205472,-0.14931 -0.07882,0 -0.181827,-0.0626 -0.228773,-0.13914 -0.116784,-0.19032 -1.155558,-0.94499 -1.300749,-0.94499 -0.06446,0 -0.177248,-0.0887 -0.250583,-0.19711 -0.07331,-0.10841 -0.191458,-0.19712 -0.262493,-0.19712 -0.07105,0 -0.167563,-0.0628 -0.21452,-0.13952 -0.08389,-0.13707 -0.628391,-0.55485 -1.102694,-0.84603 -0.132451,-0.0813 -0.351333,-0.23654 -0.486418,-0.34495 -0.652242,-0.52348 -1.15099,-0.89536 -1.310023,-0.97682 -0.09642,-0.0494 -0.213776,-0.14919 -0.260733,-0.22175 -0.04697,-0.0726 -0.1334,-0.13194 -0.192116,-0.13194 -0.05874,0 -0.284012,-0.15895 -0.500692,-0.35322 -0.216669,-0.19427 -0.622625,-0.49001 -0.902113,-0.65721 -0.279498,-0.1672 -0.508174,-0.34088 -0.508174,-0.38596 0,-0.0451 -0.06964,-0.0819 -0.154833,-0.0819 -0.08519,0 -0.193239,-0.0615 -0.240196,-0.13675 -0.120822,-0.19354 -1.27477,-1.04593 -1.415956,-1.04593 -0.06457,0 -0.144953,-0.0665 -0.178749,-0.14784 -0.03379,-0.0813 -0.125982,-0.14782 -0.204856,-0.14782 -0.07882,0 -0.181827,-0.0615 -0.228773,-0.13676 -0.107649,-0.1724 -1.267569,-1.04592 -1.388876,-1.04592 -0.04967,0 -0.171299,-0.0777 -0.270364,-0.17248 -0.476322,-0.45606 -1.625131,-1.30587 -1.765323,-1.30587 -0.06759,0 -0.174247,-0.0887 -0.237087,-0.19711 -0.06284,-0.10841 -0.184634,-0.19712 -0.270645,-0.19712 -0.08605,0 -0.156377,-0.0378 -0.156377,-0.084 0,-0.10719 -1.226269,-1.0001 -1.37349,-1.0001 -0.06079,0 -0.148991,-0.0636 -0.196089,-0.14126 -0.04708,-0.0777 -0.493846,-0.43067 -0.992789,-0.7844 -0.498931,-0.35373 -0.989193,-0.70962 -1.089456,-0.79086 -0.66007,-0.53482 -1.791734,-1.33873 -1.884536,-1.33873 -0.06111,0 -0.149435,-0.0615 -0.196392,-0.13675 -0.113738,-0.18217 -1.270862,-1.04592 -1.401185,-1.04592 -0.05636,0 -0.130183,-0.0665 -0.163978,-0.14784 -0.0338,-0.0813 -0.132634,-0.14784 -0.219628,-0.14784 -0.08703,0 -0.196597,-0.0615 -0.243543,-0.13674 -0.09221,-0.14773 -1.259482,-1.04593 -1.359227,-1.04593 -0.06306,0 -0.14681,-0.0642 -0.873154,-0.66921 -0.529067,-0.44071 -1.068975,-0.80913 -1.185758,-0.80913 -0.04697,0 -0.145407,-0.0887 -0.218742,-0.19712 -0.07331,-0.10842 -0.176525,-0.19711 -0.229313,-0.19711 -0.0528,0 -0.280556,-0.15467 -0.506176,-0.34371 -0.22561,-0.18903 -1.611192,-1.2151 -3.079072,-2.28014 -1.46788,-1.06503 -2.740922,-1.9949 -2.828996,-2.06635 -0.08811,-0.0715 -0.268226,-0.22068 -0.400331,-0.33161 -0.132105,-0.11092 -0.269565,-0.20168 -0.305444,-0.20168 -0.06047,0 -0.924722,-0.6304 -1.345061,-0.98105 -0.100414,-0.0838 -0.292606,-0.22898 -0.427021,-0.32264 -0.620024,-0.43204 -1.445789,-1.02399 -1.585171,-1.13634 -0.08454,-0.0682 -0.446738,-0.33545 -0.804786,-0.59398 -0.35806,-0.25851 -0.729162,-0.53536 -0.824675,-0.61522 -0.09556,-0.0798 -0.282964,-0.22126 -0.416538,-0.31421 -0.884081,-0.61525 -1.441771,-1.01706 -1.599811,-1.15265 -0.100415,-0.0862 -0.292607,-0.23274 -0.427011,-0.3257 -0.797455,-0.55153 -1.448456,-1.02564 -1.652902,-1.2038 -0.549387,-0.47872 -0.642179,-0.54904 -0.724541,-0.54904 -0.04772,0 -0.307928,-0.16272 -0.578194,-0.36159 -0.475642,-0.35001 -0.649738,-0.4875 -1.158603,-0.91497 -0.132115,-0.11098 -0.269565,-0.20178 -0.305455,-0.20178 -0.03585,0 -0.312117,-0.18658 -0.613836,-0.41462 -0.778009,-0.588 -0.840957,-0.63693 -1.109054,-0.86204 -0.132104,-0.11093 -0.276248,-0.20169 -0.320301,-0.20169 -0.04405,0 -0.290339,-0.1774 -0.547271,-0.39423 -0.256932,-0.21682 -0.4916,-0.39421 -0.521487,-0.39421 -0.02991,0 -0.163406,-0.0998 -0.29671,-0.22177 -0.342295,-0.31314 -0.560163,-0.46812 -0.658321,-0.46825 -0.04654,-6e-5 -0.372808,-0.24588 -0.725102,-0.54628 -0.732455,-0.62456 -1.131166,-0.85081 -1.314753,-0.74606 -0.0989,0.0564 -0.127829,8.50916 -0.127839,37.35404 0,20.50462 0.02721,37.32171 0.06036,37.37132 0.09664,0.14433 0.475739,0.10409 0.542953,-0.0576 z m 71.038981,-32.17729 c 0.25951,-0.21604 0.50786,-0.39345 0.5519,-0.39422 0.044,-9.8e-4 0.17309,-0.079 0.28679,-0.17386 0.1137,-0.0949 0.33217,-0.26117 0.48548,-0.36959 0.15332,-0.10841 0.38971,-0.28581 0.52533,-0.39422 0.13561,-0.10842 0.35493,-0.26364 0.48738,-0.34495 0.4743,-0.29119 1.01883,-0.70897 1.10269,-0.84604 0.047,-0.0768 0.15267,-0.13953 0.2349,-0.13953 0.0823,0 0.18794,-0.0555 0.23489,-0.12348 0.047,-0.0679 0.30155,-0.2564 0.56577,-0.41886 0.26422,-0.16246 0.52843,-0.34271 0.58715,-0.40054 0.22969,-0.22625 1.209,-0.92976 1.29588,-0.93092 0.0785,-0.001 0.59155,-0.39466 1.22181,-0.9373 0.093,-0.08 0.20432,-0.14559 0.24739,-0.14559 0.11262,0 1.27539,-0.88323 1.37697,-1.04593 0.047,-0.0753 0.13296,-0.13675 0.19114,-0.13675 0.11045,0 0.70982,-0.36678 0.89657,-0.54865 0.2001,-0.19488 1.17443,-0.90042 1.29792,-0.93987 0.15727,-0.0502 0.95873,-0.66264 1.24427,-0.95075 0.12087,-0.12196 0.26428,-0.22175 0.31868,-0.22175 0.13155,0 1.17381,-0.76805 1.28239,-0.94499 0.047,-0.0765 0.1476,-0.13913 0.22366,-0.13913 0.076,0 0.22523,-0.0887 0.33149,-0.19711 0.10625,-0.10842 0.23382,-0.19711 0.28344,-0.19711 0.0496,0 0.18284,-0.0777 0.29606,-0.17248 0.45136,-0.37816 1.11412,-0.86734 1.50222,-1.10876 0.48565,-0.30212 1.0168,-0.7108 1.09954,-0.84604 0.047,-0.0768 0.13103,-0.13952 0.18683,-0.13952 0.0558,0 0.18551,-0.0687 0.28826,-0.1526 0.10279,-0.0839 0.69123,-0.50434 1.30775,-0.93424 1.47413,-1.02796 1.53024,-1.06897 2.05258,-1.50027 0.24618,-0.20327 0.49989,-0.36959 0.56381,-0.36959 0.0639,0 0.31619,-0.17741 0.56061,-0.39422 0.24443,-0.21683 0.49191,-0.39423 0.54998,-0.39423 0.0581,0 0.14399,-0.0555 0.19094,-0.12349 0.047,-0.0679 0.27753,-0.24466 0.5124,-0.39278 0.23485,-0.14811 0.60983,-0.42518 0.83329,-0.61569 0.22345,-0.19051 0.44418,-0.34639 0.49053,-0.34639 0.0463,0 0.17121,-0.0887 0.27749,-0.19711 0.10624,-0.10841 0.24716,-0.19711 0.31308,-0.19711 0.066,0 0.19792,-0.0777 0.29332,-0.17248 0.33122,-0.32935 0.80799,-0.68758 1.38897,-1.04359 0.3213,-0.19689 0.75802,-0.51386 0.9705,-0.70436 0.21247,-0.19051 0.4207,-0.34637 0.46272,-0.34637 0.042,0 0.15249,-0.0669 0.24549,-0.14863 0.093,-0.0817 0.6735,-0.5003 1.29001,-0.93012 0.61651,-0.42981 1.22206,-0.87295 1.34567,-0.98477 0.1236,-0.1118 0.26818,-0.20328 0.32127,-0.20328 0.0531,0 0.15654,-0.0887 0.22986,-0.19712 0.0733,-0.10841 0.19986,-0.1971 0.28115,-0.1971 0.0813,0 0.17545,-0.0665 0.20926,-0.14784 0.0338,-0.0813 0.12303,-0.14784 0.19829,-0.14784 0.0752,0 0.34705,-0.17739 0.60399,-0.39422 0.25693,-0.21682 0.50744,-0.39423 0.55666,-0.39423 0.0492,0 0.14093,-0.0887 0.20377,-0.19711 0.0628,-0.10841 0.16256,-0.19712 0.22159,-0.19712 0.11168,0 0.71016,-0.36561 0.89812,-0.54865 0.2266,-0.22068 1.20896,-0.92969 1.28813,-0.92969 0.0855,0 0.31113,-0.17987 0.71089,-0.56669 0.12605,-0.12197 0.29256,-0.22176 0.37004,-0.22176 0.0775,0 0.14089,-0.0369 0.14089,-0.0819 0,-0.0451 0.22867,-0.21875 0.50817,-0.38596 0.2795,-0.16719 0.68545,-0.46294 0.90212,-0.6572 0.21668,-0.19428 0.42225,-0.35322 0.45685,-0.35322 0.0345,0 0.51085,-0.33263 1.05835,-0.73918 0.54749,-0.40655 1.03397,-0.73917 1.08105,-0.73917 0.0837,0 0.23706,-0.11816 0.73557,-0.5667 0.13556,-0.12196 0.28944,-0.22175 0.34198,-0.22175 0.0526,0 0.15552,-0.0887 0.22886,-0.19712 0.0733,-0.1084 0.1861,-0.19711 0.25059,-0.19711 0.14519,0 1.18397,-0.75467 1.30074,-0.94499 0.047,-0.0765 0.15266,-0.13913 0.2349,-0.13913 0.0823,0 0.18793,-0.0555 0.23489,-0.12348 0.047,-0.0679 0.30143,-0.25641 0.5655,-0.41887 0.26408,-0.16246 0.55231,-0.36662 0.64053,-0.45372 0.26808,-0.26462 1.13658,-0.8765 1.24411,-0.8765 0.0555,0 0.30093,-0.1774 0.54535,-0.39423 0.24443,-0.21683 0.4943,-0.39422 0.55528,-0.39422 0.061,0 0.11088,-0.0369 0.11088,-0.0819 0,-0.0451 0.22819,-0.21926 0.50708,-0.38707 0.2789,-0.16782 0.67522,-0.46216 0.88073,-0.65409 0.2055,-0.19192 0.41474,-0.35038 0.46498,-0.35209 0.09,-0.003 0.60248,-0.35737 0.93179,-0.64427 0.093,-0.081 0.2251,-0.14731 0.29357,-0.14731 0.0685,0 0.12449,-0.0405 0.12449,-0.09 0,-0.08 0.19331,-0.22404 1.16833,-0.87041 0.1435,-0.0951 0.33432,-0.25057 0.42405,-0.34543 0.0897,-0.0949 0.22283,-0.17248 0.2958,-0.17248 0.073,0 0.18406,-0.0887 0.24691,-0.19711 0.0628,-0.10841 0.16768,-0.19712 0.23296,-0.19712 0.1089,0 0.87046,-0.53445 1.26394,-0.887 0.0907,-0.0813 0.37954,-0.28089 0.64178,-0.44351 0.63791,-0.39557 0.72111,-0.45599 0.98386,-0.71454 0.12394,-0.12196 0.27719,-0.22175 0.34055,-0.22175 0.0634,0 0.17521,-0.0887 0.24854,-0.19711 0.0733,-0.10841 0.19298,-0.19773 0.26589,-0.1985 0.11526,-0.001 0.73658,-0.45946 1.26242,-0.93107 0.093,-0.0834 0.20906,-0.15166 0.25792,-0.15166 0.0488,0 0.16494,-0.0674 0.25793,-0.14966 0.093,-0.0823 0.48135,-0.37489 0.86299,-0.65019 0.38165,-0.2753 0.71793,-0.53039 0.74729,-0.566884 0.0294,-0.03648 0.17402,-0.115112 0.32148,-0.174701 0.14745,-0.05961 0.33647,-0.226326 0.42005,-0.370495 0.29621,-0.510975 0.28053,-0.512411 -4.85159,-0.44371 -2.58345,0.03459 -21.43898,0.110456 -41.90117,0.16861 -39.153156,0.111284 -47.913326,0.15318 -66.72163,0.319129 -12.027837,0.106131 -11.965764,0.103529 -11.796991,0.495256 0.03336,0.07739 0.323346,0.290495 0.644446,0.473585 0.321111,0.18309 0.583831,0.37159 0.583831,0.41887 0,0.0472 0.05042,0.0859 0.112054,0.0859 0.06165,0 0.289324,0.15896 0.505993,0.35322 0.216669,0.19427 0.622625,0.49002 0.902124,0.65722 0.279498,0.1672 0.508174,0.34087 0.508174,0.38596 0,0.0451 0.06964,0.0819 0.154822,0.0819 0.08519,0 0.193844,0.0644 0.241535,0.14303 0.04772,0.0787 0.374342,0.34356 0.725902,0.58863 0.933241,0.6506 1.103482,0.77423 1.372464,0.99667 0.607811,0.50264 1.220589,0.93268 1.328994,0.93268 0.06532,0 0.170111,0.0887 0.232951,0.19712 0.06284,0.10842 0.158537,0.19711 0.212631,0.19711 0.0541,0 0.304613,0.17685 0.556708,0.39299 0.252084,0.21615 0.494375,0.39356 0.538407,0.39423 0.04405,6.9e-4 0.188153,0.092 0.320269,0.20292 0.132104,0.11093 0.312257,0.25698 0.40033,0.32456 0.89123,0.68386 1.272201,0.9521 1.352209,0.9521 0.05215,0 0.174257,0.0777 0.271249,0.17248 0.221776,0.21689 0.398096,0.35409 1.20096,0.93446 0.35481,0.25648 0.721194,0.53367 0.814191,0.61598 0.09296,0.0823 0.203464,0.14965 0.245487,0.14965 0.042,0 0.244407,0.15063 0.449739,0.33473 0.205332,0.1841 0.575258,0.46116 0.822051,0.6157 0.246804,0.15452 0.487141,0.33652 0.534098,0.40443 0.04697,0.0679 0.152652,0.12349 0.234895,0.12349 0.08228,0 0.188542,0.0644 0.236223,0.14303 0.07461,0.12313 0.450776,0.40692 1.609476,1.21431 0.134415,0.0937 0.326574,0.23884 0.427021,0.32264 0.460936,0.38451 1.287587,0.98105 1.359508,0.98105 0.04384,0 0.184298,0.0998 0.312138,0.22175 0.529315,0.50496 1.580474,1.25659 1.757377,1.25659 0.0582,0 0.144305,0.0636 0.191403,0.14126 0.04708,0.0776 0.493846,0.43246 0.992778,0.78838 0.498942,0.35593 0.979216,0.70673 1.06729,0.77958 0.391822,0.32404 1.801634,1.34602 1.856841,1.34602 0.03358,0 0.242107,0.15446 0.463278,0.34323 0.433922,0.37037 1.487229,1.13512 1.563404,1.13512 0.0257,0 0.231234,0.15545 0.456854,0.34545 0.22561,0.18998 0.796516,0.6224 1.26867,0.96092 0.472155,0.33851 0.952547,0.69666 1.067538,0.79587 0.115002,0.0992 0.464812,0.35068 0.777361,0.5588 0.312549,0.20812 0.768918,0.53797 1.014167,0.73298 0.245239,0.195 0.830214,0.62827 1.299939,0.96281 0.469714,0.33453 0.90207,0.65762 0.960786,0.71797 0.05874,0.0603 0.298912,0.2285 0.533774,0.37368 0.234863,0.14519 0.614625,0.41902 0.843926,0.60852 0.229302,0.1895 0.535556,0.4232 0.680564,0.51933 0.716648,0.47509 1.399004,0.98292 1.779284,1.32423 0.231764,0.20799 0.465298,0.37819 0.518961,0.37819 0.106677,0 0.977942,0.64303 1.56526,1.15521 0.203788,0.17772 0.413298,0.32313 0.465579,0.32313 0.08368,0 0.787446,0.5037 1.405741,1.00616 0.488124,0.3967 0.730425,0.57074 0.794572,0.57074 0.03747,0 0.269425,0.16632 0.515614,0.36959 0.246178,0.20327 0.568077,0.45829 0.715319,0.5667 0.147243,0.10841 0.3716,0.27473 0.498565,0.36959 0.126965,0.0949 0.262018,0.17247 0.300121,0.17247 0.03812,0 0.331002,0.22368 0.650885,0.49705 0.31988,0.27338 0.71371,0.56279 0.87517,0.64315 0.16146,0.0803 0.29358,0.18931 0.29358,0.24212 0,0.0528 0.06,0.0966 0.13344,0.0974 0.0734,9.9e-4 0.39766,0.22448 0.72059,0.49725 0.32294,0.27278 0.71926,0.56161 0.88072,0.64185 0.16148,0.0802 0.29358,0.18909 0.29358,0.24191 0,0.0528 0.0717,0.096 0.15923,0.096 0.0876,0 0.21923,0.0887 0.29257,0.19711 0.0733,0.10841 0.17167,0.19711 0.21854,0.19711 0.0469,0 0.28517,0.1774 0.5296,0.39422 0.24442,0.21683 0.4961,0.39423 0.5593,0.39423 0.0632,0 0.19462,0.0777 0.29205,0.17247 0.0974,0.0949 0.30213,0.26118 0.45488,0.36959 0.15276,0.10841 0.48005,0.3628 0.72731,0.56531 0.24725,0.2025 0.4976,0.36904 0.55632,0.37007 0.0587,9.7e-4 0.28502,0.15302 0.50291,0.33779 0.2179,0.18475 0.67428,0.53744 1.01417,0.78373 0.33991,0.24629 0.70207,0.51624 0.80483,0.59988 0.10279,0.0836 0.21322,0.15208 0.24549,0.15208 0.0323,0 0.23594,0.15895 0.45262,0.35321 0.21667,0.19428 0.62263,0.49001 0.90213,0.65722 0.27948,0.16721 0.50816,0.34088 0.50816,0.38596 0,0.0451 0.0517,0.0819 0.11497,0.0819 0.0633,0 0.26289,0.13658 0.4437,0.30349 0.1808,0.16693 0.45334,0.37652 0.60562,0.46578 0.1523,0.0892 0.31533,0.21879 0.36227,0.28785 0.047,0.0691 0.14436,0.12556 0.21647,0.12556 0.0721,0 0.20796,0.0777 0.3019,0.17248 0.2247,0.2269 1.0267,0.8382 1.24924,0.95218 0.0964,0.0494 0.21378,0.14918 0.26073,0.22175 0.047,0.0726 0.15335,0.13194 0.23643,0.13194 0.083,0 0.2025,0.0887 0.26535,0.19711 0.0628,0.10841 0.17308,0.19712 0.24496,0.19712 0.0719,0 0.1907,0.0887 0.26403,0.19711 0.20565,0.30399 0.58083,0.23728 1.10089,-0.19573 z"
       id="path4561"
       inkscape:connector-curvature="0" />
  </g>
</svg>
