<?xml version="1.0" encoding="UTF-8" standalone="no"?>
<!-- Created with Inkscape (http://www.inkscape.org/) -->

<svg
   xmlns:dc="http://purl.org/dc/elements/1.1/"
   xmlns:cc="http://creativecommons.org/ns#"
   xmlns:rdf="http://www.w3.org/1999/02/22-rdf-syntax-ns#"
   xmlns:svg="http://www.w3.org/2000/svg"
   xmlns="http://www.w3.org/2000/svg"
   xmlns:sodipodi="http://sodipodi.sourceforge.net/DTD/sodipodi-0.dtd"
   xmlns:inkscape="http://www.inkscape.org/namespaces/inkscape"
   width="133.73843mm"
   height="105.62831mm"
   viewBox="0 0 133.73843 105.62831"
   version="1.1"
   id="svg8"
   inkscape:version="0.92.1 r15371"
   sodipodi:docname="stereo.svg">
  <defs
     id="defs2" />
  <sodipodi:namedview
     id="base"
     pagecolor="#ffffff"
     bordercolor="#666666"
     borderopacity="1.0"
     inkscape:pageopacity="0.0"
     inkscape:pageshadow="2"
     inkscape:zoom="0.49497475"
     inkscape:cx="-808.29354"
     inkscape:cy="-28.235264"
     inkscape:document-units="mm"
     inkscape:current-layer="layer1"
     showgrid="false"
     inkscape:window-width="3000"
     inkscape:window-height="1859"
     inkscape:window-x="-14"
     inkscape:window-y="-14"
     inkscape:window-maximized="1"
     fit-margin-top="0"
     fit-margin-left="0"
     fit-margin-right="0"
     fit-margin-bottom="0" />
  <metadata
     id="metadata5">
    <rdf:RDF>
      <cc:Work
         rdf:about="">
        <dc:format>image/svg+xml</dc:format>
        <dc:type
           rdf:resource="http://purl.org/dc/dcmitype/StillImage" />
        <dc:title></dc:title>
      </cc:Work>
    </rdf:RDF>
  </metadata>
  <g
     inkscape:label="Layer 1"
     inkscape:groupmode="layer"
     id="layer1"
     transform="translate(-37.900447,-96.180282)">
    <path
       style="fill:#ffffff;fill-opacity:1;stroke-width:0.74299127"
       d="m 39.130087,200.3263 c -1.11863,-1.23607 -1.22964,-5.88726 -1.22964,-51.52273 0,-47.65448 0.068,-50.225518 1.35874,-51.393648 1.19493,-1.0814 3.8202,-1.22964 21.77623,-1.22964 16.45863,0 20.69715,0.20444 21.85974,1.05437 1.39937,1.02303 1.44823,2.53926 1.64345,51.001728 0.17726,44.00278 0.0647,50.15571 -0.94587,51.698 l -1.14707,1.75066 h -21.04297 c -19.44249,0 -21.13649,-0.10334 -22.27261,-1.35874 z m 37.40591,-51.78021 v -44.96604 l -15.41707,0.20082 -15.41707,0.20082 -0.19155,44.76523 -0.19155,44.76522 h 15.60862 15.60862 z m -20.43226,32.78641 c -9.56965,-4.19286 -11.12887,-16.94125 -2.84484,-23.25979 2.40185,-1.83198 3.36679,-2.08163 8.04578,-2.08163 4.62819,0 5.65635,0.25913 7.94043,2.00128 6.47962,4.94225 7.07898,14.96979 1.22166,20.43874 -3.87197,3.61525 -9.93733,4.84048 -14.36303,2.9014 z m 9.10164,-8.83903 c 2.23482,-2.04548 2.16995,-5.29834 -0.15197,-7.62026 -3.61676,-3.61677 -9.32117,-1.13272 -9.32117,4.05899 0,5.48486 5.22531,7.44923 9.47314,3.56127 z m -5.41248,-30.26126 c -3.79542,-1.41404 -4.3551,-5.85099 -1.04801,-8.3084 2.38582,-1.77285 5.48731,-0.83378 6.80615,2.06076 1.61361,3.54148 -2.12727,7.60037 -5.75814,6.24764 z m -1.69159,-15.61823 c -3.08598,-2.87503 -1.22657,-8.14396 2.874,-8.14396 4.57241,0 6.70126,4.97884 3.43919,8.04339 -2.15158,2.02131 -4.21622,2.0542 -6.31319,0.10057 z m 68.542863,74.01669 c -1.39951,-1.02313 -1.44819,-2.54163 -1.64323,-51.25116 -0.19824,-49.512028 -0.18051,-50.217258 1.30024,-51.698008 1.43442,-1.43441 2.42187,-1.50122 22.18982,-1.50122 19.09919,0 20.78307,0.10439 21.91824,1.35874 1.11868,1.23612 1.22964,5.892338 1.22964,51.595768 v 50.23702 l -1.6513,1.15662 c -2.34527,1.64269 -41.1112,1.73413 -43.34341,0.10224 z m 37.38481,-51.51226 -0.19151,-45.13672 -15.41707,-0.20082 -15.41706,-0.20082 v 45.33754 45.33754 h 15.60857 15.60857 z m -21.026,31.89387 c -3.47187,-1.62513 -6.83662,-5.31184 -7.46144,-8.17541 -0.23834,-1.09228 -0.57584,-2.4397 -0.74999,-2.99427 -0.48087,-1.53119 1.15273,-6.89165 2.80913,-9.21783 5.17032,-7.26105 18.39649,-6.29581 22.50137,1.64215 2.18994,4.23489 2.22986,7.85248 0.13352,12.10122 -3.4336,6.95905 -10.63121,9.73413 -17.23259,6.64414 z m 9.50388,-8.41789 c 1.99723,-2.36032 1.68497,-6.16245 -0.65745,-8.00498 -2.48379,-1.95375 -4.74572,-1.95375 -7.22951,0 -1.39442,1.09684 -1.95768,2.23173 -1.95768,3.94444 0,5.58983 6.33841,8.20418 9.84464,4.06054 z m -5.89536,-30.40437 c -3.14781,-1.17028 -4.03686,-4.69787 -1.86115,-7.38475 1.63393,-2.01783 4.82278,-2.17543 6.85239,-0.33865 3.67241,3.32348 -0.29851,9.46805 -4.99124,7.7234 z M 145.36289,126.589 c -1.15433,-0.908 -1.95768,-2.28001 -1.95768,-3.34346 0,-2.3371 2.46596,-4.77552 4.82945,-4.77552 1.02161,0 2.52617,0.66869 3.34346,1.48599 0.81729,0.81729 1.48598,2.32184 1.48598,3.34346 0,2.18582 -2.38542,4.82944 -4.35775,4.82944 -0.76218,0 -2.26674,-0.69296 -3.34346,-1.53991 z m -52.737433,64.07842 c -1.71228,-1.89205 -1.53371,-4.28795 0.42166,-5.65755 1.2974,-0.90873 3.8098,-1.15662 11.722553,-1.15662 11.03435,0 13.37384,0.71485 13.37384,4.08645 0,3.40184 -2.31118,4.08646 -13.7955,4.08646 -9.221763,0 -10.641873,-0.16461 -11.722553,-1.35874 z m -0.33805,-14.39268 c -1.25027,-1.25027 -1.10974,-3.98505 0.27597,-5.37076 0.95663,-0.95664 3.16173,-1.16756 12.206293,-1.16756 11.68964,0 13.37384,0.46783 13.37384,3.71496 0,3.26179 -1.66505,3.71495 -13.64981,3.71495 -7.809673,0 -11.590893,-0.27619 -12.206293,-0.89159 z m 0.27597,-14.3928 c -1.38571,-1.38572 -1.52624,-4.1205 -0.27597,-5.37077 1.24816,-1.24815 23.716353,-1.24815 24.964513,0 1.25027,1.25027 1.10975,3.98505 -0.27597,5.37077 -1.72158,1.72159 -22.690983,1.72159 -24.412573,0 z m -0.27597,-14.58386 c -1.25027,-1.25026 -1.10974,-3.98505 0.27597,-5.37076 1.72159,-1.72159 22.690993,-1.72159 24.412573,0 1.38572,1.38571 1.52624,4.1205 0.27597,5.37076 -1.24816,1.24816 -23.716353,1.24816 -24.964513,0 z"
       id="path4496"
       inkscape:connector-curvature="0" />
  </g>
</svg>
