<?xml version="1.0" encoding="UTF-8" standalone="no"?>
<!-- Created with Inkscape (http://www.inkscape.org/) -->

<svg
   xmlns:dc="http://purl.org/dc/elements/1.1/"
   xmlns:cc="http://creativecommons.org/ns#"
   xmlns:rdf="http://www.w3.org/1999/02/22-rdf-syntax-ns#"
   xmlns:svg="http://www.w3.org/2000/svg"
   xmlns="http://www.w3.org/2000/svg"
   xmlns:sodipodi="http://sodipodi.sourceforge.net/DTD/sodipodi-0.dtd"
   xmlns:inkscape="http://www.inkscape.org/namespaces/inkscape"
   width="210mm"
   height="297mm"
   viewBox="0 0 210 297"
   version="1.1"
   id="svg8"
   inkscape:version="0.92.1 r15371"
   sodipodi:docname="temperature.svg">
  <defs
     id="defs2" />
  <sodipodi:namedview
     id="base"
     pagecolor="#ffffff"
     bordercolor="#666666"
     borderopacity="1.0"
     inkscape:pageopacity="0.0"
     inkscape:pageshadow="2"
     inkscape:zoom="1.4142136"
     inkscape:cx="217.44349"
     inkscape:cy="841.71023"
     inkscape:document-units="mm"
     inkscape:current-layer="layer2"
     showgrid="false"
     inkscape:window-width="3000"
     inkscape:window-height="1859"
     inkscape:window-x="-14"
     inkscape:window-y="-14"
     inkscape:window-maximized="1"
     inkscape:snap-others="false" />
  <metadata
     id="metadata5">
    <rdf:RDF>
      <cc:Work
         rdf:about="">
        <dc:format>image/svg+xml</dc:format>
        <dc:type
           rdf:resource="http://purl.org/dc/dcmitype/StillImage" />
        <dc:title></dc:title>
      </cc:Work>
    </rdf:RDF>
  </metadata>
  <g
     inkscape:groupmode="layer"
     id="layer2"
     inkscape:label="grafik">
    <path
       style="fill:#ffffff;fill-opacity:1;stroke-width:0.55508727"
       d="m 86.986092,193.83444 c -8.376811,-1.94064 -15.549373,-6.24726 -20.417081,-12.25902 -3.120182,-3.85352 -6.633972,-10.86269 -7.652491,-15.2649 -0.969953,-4.1923 -0.848555,-12.31961 0.247607,-16.57677 1.551649,-6.02612 5.078796,-12.02563 9.910563,-16.8574 l 4.311764,-4.31177 0.01116,-26.78296 c 0.0061,-14.730615 0.234673,-28.327984 0.507854,-30.216358 1.139205,-7.874791 6.354359,-14.761003 13.2002,-17.429848 4.066373,-1.585275 10.789963,-1.740816 14.867782,-0.343947 5.61552,1.923611 10.83172,7.093994 12.99795,12.88378 1.11808,2.988312 1.15709,4.070552 1.16641,32.351765 l 0.01,29.260028 3.7372,3.70227 c 6.25248,6.19403 9.57198,12.94901 10.65796,21.68828 0.97606,7.85472 -0.71246,16.1123 -4.69661,22.96841 -2.29959,3.95726 -9.39859,10.80139 -13.60344,13.11505 -7.5402,4.1489 -17.792899,5.80247 -25.256472,4.07339 z m 15.775628,-10.95665 c 8.14076,-2.78698 13.99643,-8.72967 16.74737,-16.99623 1.5735,-4.7284 1.29933,-13.16138 -0.58346,-17.94616 -1.6739,-4.25389 -5.42973,-8.86371 -9.44113,-11.58779 l -3.3479,-2.27352 v -31.35958 c 0,-34.027853 0.0549,-33.3816 -3.1025,-36.510007 -2.44939,-2.426883 -4.629649,-3.319222 -8.117589,-3.322374 -4.15433,-0.0038 -7.825363,2.148396 -9.691356,5.68157 -1.09945,2.081764 -1.292043,3.260823 -1.292043,7.909994 v 5.463562 h 4.317186 c 4.599583,0 6.784563,0.86822 6.784563,2.6959 0,1.85637 -1.19892,2.29989 -6.216981,2.29989 h -4.884768 v 2.775437 2.77543 l 4.024383,0.008 c 4.321916,0.009 6.675976,0.81541 6.979516,2.39155 0.39379,2.0448 -0.89644,2.59606 -6.076079,2.59606 h -4.92782 v 2.47706 2.477058 l 5.075768,0.1596 c 4.118021,0.12949 5.191061,0.3429 5.686811,1.13101 0.44465,0.7069 0.44465,1.23591 0,1.9428 -0.49575,0.78811 -1.56879,1.00152 -5.686811,1.13101 l -5.075768,0.1596 v 3.01132 3.01132 l 5.075768,0.1596 c 4.118021,0.12949 5.191061,0.3429 5.686811,1.13101 0.44465,0.7069 0.44465,1.2359 0,1.9428 -0.49575,0.78811 -1.56879,1.00152 -5.686811,1.13101 l -5.075768,0.1596 v 2.47706 2.47706 h 4.678592 c 4.759577,0 6.423157,0.64695 6.423157,2.4979 0,1.85094 -1.66358,2.49789 -6.423157,2.49789 h -4.678592 v 3.30386 3.30385 l -2.636665,1.8307 -2.636664,1.8307 7.651545,0.15456 c 7.418613,0.14986 7.669593,0.19419 8.244643,1.45628 0.4274,0.93803 0.41661,1.6315 -0.0386,2.48211 -0.6091,1.13812 -0.99734,1.18038 -10.843505,1.18038 H 73.46205 l -1.216846,1.70891 c -0.669266,0.93989 -1.805058,3.37534 -2.523983,5.4121 -3.799221,10.76342 0.469138,23.40942 10.047127,29.76692 6.960838,4.62034 15.132783,5.68407 22.993372,2.99301 z m -14.823942,-6.65077 c -3.969857,-1.52547 -8.001311,-5.61233 -9.507616,-9.63829 -1.133572,-3.02975 -1.513585,-8.05409 -0.808234,-10.6861 l 0.334705,-1.24894 h 16.523138 16.523139 l 0.3347,1.24894 c 0.18409,0.68692 0.33812,2.67587 0.34229,4.41988 0.0289,12.0826 -12.261819,20.31597 -23.742122,15.90451 z"
       id="path4524"
       inkscape:connector-curvature="0" />
  </g>
</svg>
