<?xml version="1.0" encoding="UTF-8" standalone="no"?>
<!-- Created with Inkscape (http://www.inkscape.org/) -->

<svg
   xmlns:dc="http://purl.org/dc/elements/1.1/"
   xmlns:cc="http://creativecommons.org/ns#"
   xmlns:rdf="http://www.w3.org/1999/02/22-rdf-syntax-ns#"
   xmlns:svg="http://www.w3.org/2000/svg"
   xmlns="http://www.w3.org/2000/svg"
   xmlns:sodipodi="http://sodipodi.sourceforge.net/DTD/sodipodi-0.dtd"
   xmlns:inkscape="http://www.inkscape.org/namespaces/inkscape"
   width="125mm"
   height="125mm"
   viewBox="0 0 125 125"
   version="1.1"
   id="svg8"
   inkscape:version="0.92.1 r15371"
   sodipodi:docname="cactus.svg">
  <defs
     id="defs2" />
  <sodipodi:namedview
     id="base"
     pagecolor="#ffffff"
     bordercolor="#666666"
     borderopacity="1.0"
     inkscape:pageopacity="0.0"
     inkscape:pageshadow="2"
     inkscape:zoom="1.4"
     inkscape:cx="97.175423"
     inkscape:cy="194.02721"
     inkscape:document-units="mm"
     inkscape:current-layer="layer2"
     showgrid="false"
     inkscape:window-width="3000"
     inkscape:window-height="1881"
     inkscape:window-x="-14"
     inkscape:window-y="-14"
     inkscape:window-maximized="1"
     fit-margin-top="0"
     fit-margin-left="0"
     fit-margin-right="0"
     fit-margin-bottom="0" />
  <metadata
     id="metadata5">
    <rdf:RDF>
      <cc:Work
         rdf:about="">
        <dc:format>image/svg+xml</dc:format>
        <dc:type
           rdf:resource="http://purl.org/dc/dcmitype/StillImage" />
        <dc:title></dc:title>
      </cc:Work>
    </rdf:RDF>
  </metadata>
  <g
     inkscape:groupmode="layer"
     id="layer2"
     inkscape:label="Layer 2"
     transform="translate(-86.702694,-57.816626)">
    <path
       style="color:#000000;font-style:normal;font-variant:normal;font-weight:normal;font-stretch:normal;font-size:medium;line-height:normal;font-family:sans-serif;font-variant-ligatures:normal;font-variant-position:normal;font-variant-caps:normal;font-variant-numeric:normal;font-variant-alternates:normal;font-feature-settings:normal;text-indent:0;text-align:start;text-decoration:none;text-decoration-line:none;text-decoration-style:solid;text-decoration-color:#000000;letter-spacing:normal;word-spacing:normal;text-transform:none;writing-mode:lr-tb;direction:ltr;text-orientation:mixed;dominant-baseline:auto;baseline-shift:baseline;text-anchor:start;white-space:normal;shape-padding:0;clip-rule:nonzero;display:inline;overflow:visible;visibility:visible;opacity:1;isolation:auto;mix-blend-mode:normal;color-interpolation:sRGB;color-interpolation-filters:linearRGB;solid-color:#000000;solid-opacity:1;vector-effect:none;fill-opacity:1;fill-rule:nonzero;stroke:#ffffff;stroke-width:2.84846973;stroke-linecap:butt;stroke-linejoin:miter;stroke-miterlimit:4;stroke-dasharray:none;stroke-dashoffset:0;stroke-opacity:1;color-rendering:auto;image-rendering:auto;shape-rendering:auto;text-rendering:auto;enable-background:accumulate"
       d="m 151.43927,59.466485 c -2.26912,-0.211955 -4.62119,0.656093 -6.17732,2.685787 -0.55176,0.719673 -1.13239,1.943201 -1.31806,2.785095 -0.0569,0.257731 -0.0996,0.790365 -0.13993,1.61373 -0.0403,0.823364 -0.075,1.92541 -0.10378,3.272598 -0.0575,2.694376 -0.0897,6.368518 -0.0926,10.749923 l -0.0116,13.988668 h -2.75123 -2.75125 l -0.002,-9.86068 c -5.3e-4,-3.182065 -0.0324,-5.796326 -0.0903,-7.714305 -0.029,-0.958989 -0.064,-1.745201 -0.10609,-2.340473 -0.0421,-0.59527 -0.087,-0.991196 -0.14896,-1.214246 -0.23287,-0.838788 -0.80833,-1.698049 -1.53249,-2.410438 -0.72416,-0.71239 -1.59712,-1.278318 -2.44881,-1.507653 -2.71219,-0.73031 -5.86544,1.136117 -6.63777,3.918091 -0.0777,0.279975 -0.12657,0.865395 -0.1738,1.735605 -0.0473,0.87021 -0.0862,2.008232 -0.11509,3.324509 -0.0576,2.632554 -0.0774,5.978594 -0.0655,9.312233 0.012,3.333645 0.0569,6.653552 0.13318,9.237755 0.0381,1.292107 0.0842,2.400099 0.13768,3.234236 0.0267,0.41706 0.055,0.76535 0.0858,1.03596 0.0307,0.27059 0.0589,0.45659 0.10377,0.58228 0.53002,1.48614 1.28424,2.32863 2.7535,3.0785 0.51528,0.263 1.01234,0.41503 2.05611,0.49653 1.04379,0.0815 2.64787,0.0993 5.42804,0.0993 h 6.12538 v 14.3701 14.37007 h -8.64416 c -3.73479,0 -5.9621,0.0169 -7.33293,0.0858 -1.37084,0.0688 -1.90079,0.18386 -2.23441,0.41755 -0.32908,0.23049 -0.54686,0.47278 -0.64099,1.05174 -0.0942,0.57897 -0.10376,1.51121 -0.10376,3.25228 0,2.05723 0.0607,3.26671 0.34532,4.00612 0.14232,0.3697 0.3539,0.62705 0.63646,0.77639 0.28255,0.14934 0.62232,0.19409 1.02918,0.19409 0.15394,0 0.27168,-0.0387 0.34758,-0.0519 0.0759,-0.0132 0.0848,-0.0179 0.12638,0.018 0.0416,0.0361 0.11706,0.15115 0.20315,0.39497 0.0861,0.24383 0.18676,0.61125 0.3092,1.14879 0.48972,2.15019 1.34051,7.00844 3.2839,17.77813 0.81942,4.541 1.613,8.74648 2.2299,11.86485 0.30843,1.5592 0.57188,2.84667 0.77414,3.76913 0.1011,0.46123 0.18698,0.83072 0.25504,1.09915 0.034,0.13421 0.0647,0.24358 0.0903,0.32726 0.0257,0.0837 0.0393,0.13235 0.0743,0.18958 l 0.4672,0.76059 15.59565,-0.005 c 4.26571,-0.001 8.18339,-0.0273 11.06137,-0.07 1.43899,-0.0214 2.61818,-0.0466 3.4509,-0.0743 0.41637,-0.014 0.74544,-0.0276 0.97952,-0.0429 0.11704,-0.008 0.20968,-0.0165 0.27987,-0.0249 0.0351,-0.005 0.064,-0.008 0.0903,-0.0135 0.0262,-0.006 0.0438,-0.002 0.0926,-0.0339 0.14012,-0.0891 0.26175,-0.24189 0.38369,-0.43108 0.12192,-0.18921 0.23365,-0.41295 0.31371,-0.63422 0.0321,-0.0889 0.0658,-0.24591 0.1264,-0.53263 0.0606,-0.28672 0.1398,-0.68412 0.23696,-1.17814 0.19438,-0.98804 0.45893,-2.36634 0.77189,-4.03545 0.62594,-3.33821 1.45051,-7.83726 2.32469,-12.69317 l 3.15748,-17.52985 h 0.9231 c 0.49003,0 0.88345,-0.0323 1.20974,-0.16024 0.32629,-0.12795 0.57702,-0.36346 0.74027,-0.72223 0.32653,-0.71754 0.37241,-1.91363 0.37241,-4.03996 0,-1.76851 -0.008,-2.71456 -0.10157,-3.29968 -0.094,-0.58512 -0.31381,-0.82776 -0.64324,-1.05852 -0.33362,-0.23365 -0.86357,-0.34869 -2.2344,-0.41755 -1.37082,-0.0688 -3.59587,-0.0857 -7.33063,-0.0857 h -8.64642 v -9.02075 -9.01882 h 5.36029 c 2.95282,0 4.67744,-0.0442 5.84328,-0.2686 1.16586,-0.22445 1.77741,-0.64723 2.42398,-1.34965 0.80217,-0.87144 1.24479,-1.42708 1.45123,-3.58857 0.20644,-2.16151 0.2099,-5.96359 0.2099,-13.474086 0,-4.886125 -0.0276,-8.467305 -0.0858,-10.932738 -0.0291,-1.232715 -0.0651,-2.186446 -0.11058,-2.886657 -0.0455,-0.700211 -0.0966,-1.136571 -0.16928,-1.379005 -0.23541,-0.785755 -0.81381,-1.593162 -1.54375,-2.268249 -0.72995,-0.675088 -1.61065,-1.218419 -2.46687,-1.448973 -2.32906,-0.627152 -4.97808,0.628111 -6.24052,2.934056 -0.24744,0.451954 -0.38479,1.053661 -0.47169,2.782837 -0.0869,1.729174 -0.12665,4.603307 -0.16928,9.634986 l -0.0948,11.237419 h -1.95679 -1.95905 l -0.0857,-20.256254 -0.0881,-20.445842 -0.69515,-1.302268 c -1.22331,-2.287621 -3.4094,-3.579747 -5.67852,-3.791702 z m -0.027,0.297919 c 2.16943,0.203142 4.26017,1.441731 5.43476,3.638227 l 0.66129,1.234559 0.0881,20.371363 0.0858,20.560947 h 2.26375 2.26147 l 0.0971,-11.542115 c 0.0426,-5.031068 0.0806,-7.904655 0.16702,-9.621442 0.0862,-1.716784 0.21771,-2.258109 0.43333,-2.651933 1.19815,-2.188528 3.71999,-3.370209 5.89294,-2.785094 0.78998,0.212723 1.64096,0.72982 2.34046,1.376748 0.69949,0.646929 1.2484,1.423428 1.46026,2.130575 0.0524,0.175078 0.10851,0.620605 0.15347,1.313554 0.045,0.692947 0.0838,1.642781 0.11289,2.873116 0.058,2.46067 0.0836,6.040948 0.0836,10.925965 0,7.510366 -0.005,11.316866 -0.20764,13.444736 -0.20322,2.12788 -0.5736,2.54267 -1.37224,3.41028 -0.62473,0.67872 -1.13912,1.0419 -2.25696,1.25713 -1.11784,0.21521 -2.83504,0.26406 -5.7846,0.26406 h -5.66498 v 9.32352 9.32578 h 8.95111 c 3.73377,0 5.95797,0.0177 7.31483,0.0858 1.35687,0.0682 1.83323,0.19307 2.07641,0.36337 0.31007,0.21718 0.42865,0.32222 0.51459,0.85766 0.086,0.53543 0.0993,1.48267 0.0993,3.25002 0,2.12062 -0.072,3.30831 -0.34759,3.91356 -0.1377,0.30264 -0.3092,0.46158 -0.57101,0.56426 -0.26179,0.10262 -0.62287,0.13767 -1.09914,0.13767 h -1.18038 l -3.20038,17.78263 c -0.87405,4.85527 -1.69895,9.35375 -2.32468,12.69091 -0.31287,1.66858 -0.57558,3.04674 -0.76963,4.03318 -0.0971,0.49325 -0.17691,0.88944 -0.23699,1.17363 -0.06,0.28421 -0.10954,0.4766 -0.11509,0.49202 -0.0708,0.19571 -0.17527,0.40397 -0.28437,0.57326 -0.10631,0.16504 -0.22332,0.28801 -0.28438,0.32953 -0.0135,0.002 -0.0336,0.008 -0.0608,0.0116 -0.0606,0.007 -0.15002,0.0128 -0.26406,0.0203 -0.22808,0.0149 -0.55587,0.0313 -0.97051,0.0452 -0.82923,0.0277 -2.00621,0.0508 -3.44411,0.0722 -2.87579,0.0426 -6.7924,0.0709 -11.05687,0.0721 l -15.42412,0.005 -0.37918,-0.61616 c 0.006,0.0104 -0.0198,-0.0439 -0.0429,-0.11962 -0.0231,-0.0756 -0.0525,-0.1801 -0.0858,-0.31146 -0.0666,-0.26268 -0.1498,-0.6307 -0.25053,-1.09012 -0.20145,-0.9188 -0.46594,-2.20439 -0.77413,-3.76234 -0.61642,-3.11594 -1.41075,-7.32079 -2.2299,-11.86036 -1.9433,-10.76922 -2.79137,-15.61919 -3.28616,-17.79164 -0.12369,-0.54313 -0.22485,-0.91819 -0.31823,-1.18267 -0.0934,-0.26446 -0.17633,-0.42222 -0.29341,-0.52361 -0.11707,-0.10135 -0.26903,-0.10909 -0.37692,-0.0903 -0.10792,0.0188 -0.19484,0.0474 -0.29566,0.0474 -0.38385,0 -0.6732,-0.045 -0.88699,-0.15798 -0.2138,-0.11301 -0.36791,-0.2915 -0.49202,-0.61389 -0.24824,-0.64479 -0.32501,-1.84739 -0.32501,-3.89779 0,-1.73987 0.0116,-2.67371 0.0971,-3.20262 0.086,-0.52892 0.20733,-0.63408 0.51685,-0.85089 0.24318,-0.17032 0.71728,-0.29523 2.07416,-0.36337 1.35687,-0.0682 3.58332,-0.0857 7.31713,-0.0857 h 8.95113 V 119.93995 105.2629 h -6.43236 c -2.77895,0 -4.38289,-0.0172 -5.40545,-0.0971 -1.02256,-0.0798 -1.45212,-0.21541 -1.94101,-0.46491 -1.42639,-0.72802 -2.09227,-1.47061 -2.60456,-2.90699 -0.0228,-0.0639 -0.0583,-0.25216 -0.0881,-0.51459 -0.0298,-0.26241 -0.057,-0.60612 -0.0836,-1.02014 -0.053,-0.828052 -0.0996,-1.935176 -0.13768,-3.225204 -0.0761,-2.580054 -0.12119,-5.899383 -0.13315,-9.230984 -0.012,-3.331595 0.0104,-6.674651 0.0677,-9.303208 0.0288,-1.314278 0.066,-2.450874 0.1129,-3.315481 0.0469,-0.864607 0.11036,-1.474185 0.16475,-1.670154 0.72394,-2.607556 3.73673,-4.383959 6.26312,-3.703678 0.77942,0.209877 1.61958,0.74612 2.3134,1.428659 0.69381,0.682536 1.24126,1.510547 1.4535,2.275019 0.0453,0.163288 0.0961,0.567016 0.13767,1.155566 0.0415,0.588551 0.0771,1.370482 0.10608,2.326932 0.0578,1.912899 0.0898,4.525181 0.0903,7.705275 V 94.86731 h 3.05819 3.0582 l 0.009,-14.293355 c 0.002,-4.379972 0.0373,-8.052201 0.0948,-10.743151 0.0288,-1.345477 0.0637,-2.444908 0.10378,-3.263572 0.04,-0.818664 0.0877,-1.368159 0.13091,-1.564077 0.16956,-0.768892 0.75043,-1.998692 1.26162,-2.665474 1.49132,-1.94517 3.7393,-2.776082 5.90875,-2.57294 z"
       id="path4548"
       inkscape:connector-curvature="0" />
  </g>
</svg>
