<?xml version="1.0" encoding="UTF-8" standalone="no"?>
<svg
   xmlns:dc="http://purl.org/dc/elements/1.1/"
   xmlns:cc="http://creativecommons.org/ns#"
   xmlns:rdf="http://www.w3.org/1999/02/22-rdf-syntax-ns#"
   xmlns:svg="http://www.w3.org/2000/svg"
   xmlns="http://www.w3.org/2000/svg"
   id="svg8"
   version="1.1"
   viewBox="0 0 165.55833 149.6821"
   height="149.6821mm"
   width="165.55833mm">
  <defs
     id="defs2" />
  <metadata
     id="metadata5">
    <rdf:RDF>
      <cc:Work
         rdf:about="">
        <dc:format>image/svg+xml</dc:format>
        <dc:type
           rdf:resource="http://purl.org/dc/dcmitype/StillImage" />
        <dc:title></dc:title>
      </cc:Work>
    </rdf:RDF>
  </metadata>
  <g
     transform="translate(-17.12475,-117.41045)"
     id="layer1">
    <path
       id="path4531"
       d="m 31.941339,266.75076 c -0.52388,-0.18044 -1.175974,-0.70115 -1.521354,-1.21482 l -0.604475,-0.89903 v -36.23494 c 0,-39.77127 -0.09702,-37.39444 1.566453,-38.37707 1.840586,-1.08726 4.20914,-0.15424 4.774331,1.88071 0.178204,0.64162 0.271353,12.5368 0.272324,34.7757 l 0.0015,33.80053 h 22.085779 22.085777 l 0.07308,-18.49319 c 0.07138,-18.06546 0.08532,-18.50691 0.602242,-19.08652 1.178099,-1.32094 1.078743,-1.31404 18.917704,-1.31404 18.22398,0 17.9011,-0.026 19.00879,1.52963 0.56393,0.79197 0.56695,0.8806 0.63465,18.61692 l 0.068,17.82115 21.76197,0.0677 21.76198,0.0677 0.002,-31.15622 c 0.001,-20.67979 0.0937,-31.48816 0.27563,-32.14338 0.80739,-2.90718 5.25708,-3.09101 6.08044,-0.25119 0.19533,0.67372 0.25804,11.34592 0.20353,34.63694 l -0.0789,33.66318 -0.86494,0.86495 -0.86493,0.86494 -26.19451,0.0699 c -29.31731,0.0783 -27.2657,0.2137 -28.27249,-1.86605 -0.54811,-1.13226 -0.55626,-1.40551 -0.55626,-18.66034 V 228.20267 H 100.20329 87.247351 l -0.07477,18.3224 c -0.07041,17.2524 -0.103066,18.36408 -0.559258,19.03631 -1.080802,1.59263 -0.234704,1.54691 -28.222808,1.52509 -19.048296,-0.0149 -25.765137,-0.10011 -26.449172,-0.33571 z M 177.66549,188.06645 c -0.61815,-0.41351 -5.6664,-4.47174 -13.74536,-11.04975 -1.25844,-1.02465 -3.62203,-2.93455 -5.25242,-4.24424 -1.63039,-1.30969 -3.3392,-2.68995 -3.79734,-3.06726 -1.6442,-1.35407 -16.54215,-13.43364 -21.3382,-17.30146 -2.69214,-2.17109 -5.61659,-4.54849 -6.49878,-5.28311 -0.88219,-0.73462 -2.00356,-1.63333 -2.49192,-1.99713 -0.48837,-0.3638 -1.74261,-1.37583 -2.78719,-2.24896 -1.04459,-0.87312 -2.89978,-2.38258 -4.12266,-3.35435 -1.22288,-0.97177 -4.06888,-3.2705 -6.32445,-5.10828 -10.98457,-8.94995 -11.617827,-9.43641 -11.999434,-9.21758 -0.20882,0.11974 -1.612727,1.19925 -3.119797,2.3989 -2.893517,2.30328 -6.248469,4.9498 -15.850095,12.50319 -3.237174,2.54661 -7.458384,5.88036 -9.380469,7.40833 -1.922084,1.52797 -3.891221,3.07578 -4.375864,3.43958 -0.48464,0.36381 -2.455537,1.91162 -4.37977,3.43959 -1.924232,1.52797 -5.246328,4.14734 -7.382436,5.82083 -2.136108,1.67349 -4.858335,3.81662 -6.049391,4.7625 -1.191056,0.94589 -3.755043,2.96995 -5.697751,4.49792 -1.942705,1.52797 -5.154649,4.06234 -7.137652,5.63193 -1.983002,1.5696 -3.956616,3.11741 -4.385808,3.43959 -0.429191,0.32217 -2.27466,1.78509 -4.101041,3.25094 -5.111976,4.10283 -6.042614,4.68729 -7.214143,4.53059 -1.709038,-0.2286 -3.090277,-1.66575 -3.108633,-3.23448 -0.01607,-1.37281 1.391033,-2.87526 5.816098,-6.21024 0.482716,-0.3638 2.457425,-1.91161 4.388241,-3.43958 1.930817,-1.52797 5.095814,-4.02208 7.033327,-5.54247 1.937513,-1.52039 4.47525,-3.51678 5.639417,-4.43641 2.933275,-2.31716 8.938218,-7.04844 13.4288,-10.58053 2.073016,-1.63054 5.624558,-4.42851 7.892317,-6.21771 2.26776,-1.7892 6.771601,-5.33668 10.008537,-7.8833 3.236937,-2.54661 7.544155,-5.9399 9.571596,-7.54062 16.60193,-13.10775 16.90654,-13.33912 17.98772,-13.66305 0.887154,-0.2658 1.143971,-0.22732 2.209951,0.33115 0.66337,0.34754 3.09502,2.17971 5.40365,4.07148 2.30864,1.89177 4.59505,3.73724 5.08092,4.10104 0.48587,0.3638 1.24709,0.96969 1.69161,1.34643 0.44452,0.37673 2.77275,2.27621 5.17385,4.22107 2.40109,1.94486 5.25859,4.26399 6.35,5.15363 1.0914,0.88965 5.61578,4.55603 10.05416,8.14752 4.43839,3.59149 9.37948,7.60008 10.98021,8.90796 1.60073,1.30788 3.25614,2.64764 3.67868,2.97724 0.88466,0.69007 4.94414,3.97408 9.40791,7.61073 1.69687,1.38245 3.55422,2.89086 4.12744,3.35203 0.57322,0.46116 2.76863,2.24129 4.87868,3.95584 2.11005,1.71455 5.08662,4.12557 6.61458,5.35782 1.52797,1.23224 3.14183,2.54774 3.58635,2.92332 0.44452,0.37558 1.21482,0.98053 1.71177,1.34433 3.0738,2.25022 3.6767,4.50552 1.7007,6.36187 -0.8652,0.81282 -2.8977,0.98752 -3.87591,0.33316 z"
       style="fill:#ffffff;stroke-width:0.26458335;fill-opacity:1" />
    <path
       id="path4533"
       d="m 88.245107,216.75377 c -0.14624,-0.0599 -0.38555,-0.24177 -0.53179,-0.40426 -0.25632,-0.28479 -0.26723,-0.51018 -0.30306,-6.25851 l -0.0372,-5.96307 -3.84873,-0.039 -3.84873,-0.039 -0.36844,-0.36843 -0.36843,-0.36844 -0.039,-3.84873 -0.039,-3.84873 -5.974,-0.0372 -5.97399,-0.0372 -0.34522,-0.34532 c -0.21529,-0.21536 -0.3729,-0.55171 -0.41877,-0.89369 -0.0665,-0.49574 -0.0285,-0.59337 0.39548,-1.01739 l 0.46903,-0.46903 h 5.92947 5.92947 v -4.2542 -4.25433 h -5.72102 c -6.28544,0 -6.43913,-0.0176 -6.83372,-0.78061 -0.26304,-0.50867 -0.26304,-0.85496 0,-1.36363 0.39459,-0.76306 0.54828,-0.78061 6.83372,-0.78061 h 5.72102 v -4.25433 -4.25433 h -5.92947 -5.92947 l -0.46903,-0.46903 c -0.42402,-0.42402 -0.46197,-0.52166 -0.39548,-1.0174 0.0459,-0.34198 0.20348,-0.67833 0.41877,-0.89368 l 0.34522,-0.34533 5.97399,-0.0372 5.974,-0.0372 0.039,-3.84873 0.039,-3.84873 0.36843,-0.36843 0.36844,-0.36844 3.84873,-0.039 3.84873,-0.039 0.0372,-5.974 0.0372,-5.97399 0.34532,-0.34522 c 0.21535,-0.21529 0.55171,-0.3729 0.89368,-0.41877 0.49574,-0.0665 0.59338,-0.0285 1.0174,0.39548 l 0.46903,0.46903 v 5.92947 5.92947 h 4.25433 4.254332 V 155.852 c 0,-6.28543 0.0176,-6.43912 0.780607,-6.83371 0.508667,-0.26304 0.854954,-0.26304 1.363624,0 0.76305,0.39459 0.78061,0.54828 0.78061,6.83371 v 5.72103 h 4.25433 4.25433 v -5.92947 -5.92947 l 0.46903,-0.46903 c 0.42402,-0.42402 0.52165,-0.46198 1.01739,-0.39548 0.34198,0.0459 0.67833,0.20348 0.89369,0.41877 l 0.34532,0.34522 0.0372,5.97399 0.0372,5.974 3.84873,0.039 3.84873,0.039 0.36844,0.36844 0.36843,0.36843 0.039,3.84873 0.039,3.84873 5.974,0.0372 5.974,0.0372 0.34522,0.34533 c 0.21529,0.21535 0.3729,0.5517 0.41877,0.89368 0.0665,0.49574 0.0285,0.59338 -0.39548,1.0174 l -0.46903,0.46903 h -5.92947 -5.92948 v 4.25433 4.25433 h 5.72103 c 6.28543,0 6.43912,0.0175 6.83371,0.78061 0.26305,0.50867 0.26305,0.85496 0,1.36363 -0.39459,0.76305 -0.54828,0.78061 -6.83371,0.78061 h -5.72103 v 4.25433 4.25433 h 5.92948 5.92947 l 0.46903,0.46903 c 0.42402,0.42402 0.46197,0.52165 0.39548,1.01739 -0.0459,0.34198 -0.20348,0.67833 -0.41877,0.89369 l -0.34522,0.34532 -5.974,0.0372 -5.974,0.0372 -0.039,3.84873 -0.039,3.84873 -0.36843,0.36844 -0.36844,0.36843 -3.84873,0.039 -3.84873,0.039 -0.0372,5.974 -0.0372,5.974 -0.34532,0.34522 c -0.21536,0.21529 -0.55171,0.3729 -0.89369,0.41877 -0.49574,0.0665 -0.59337,0.0285 -1.01739,-0.39548 l -0.46903,-0.46903 v -5.92947 -5.92948 h -4.25433 -4.25433 v 5.72103 c 0,6.28543 -0.0176,6.43912 -0.78061,6.83371 -0.2215,0.11454 -0.52831,0.20825 -0.68182,0.20825 -0.153497,0 -0.460317,-0.0937 -0.681804,-0.20825 -0.763047,-0.39459 -0.780607,-0.54828 -0.780607,-6.83371 v -5.72103 h -4.254332 -4.25433 v 5.92948 5.92947 l -0.45202,0.45202 c -0.46159,0.46159 -0.90546,0.55975 -1.47572,0.32634 z M 118.62368,182.84481 V 164.36506 H 100.14393 81.664197 v 18.47975 18.47975 h 18.479733 18.47975 z m -30.378573,12.63842 c -0.14624,-0.0605 -0.38555,-0.24294 -0.53179,-0.40549 -0.26173,-0.29091 -0.26589,-0.48269 -0.26589,-12.24386 v -11.94833 l 0.36862,-0.36863 0.36863,-0.36863 h 11.959253 11.95926 l 0.36863,0.36863 0.36863,0.36863 v 11.95926 11.95926 l -0.3686,0.36863 -0.36859,0.36863 -11.79613,0.0259 c -6.487863,0.0143 -11.915783,-0.0236 -12.062023,-0.084 z m 21.869913,-12.63842 v -9.97108 h -9.97109 -9.971073 v 9.97108 9.97109 h 9.971073 9.97109 z"
       style="fill:#ffffff;stroke-width:0.13294783;fill-opacity:1" />
  </g>
</svg>
