<?xml version="1.0" encoding="UTF-8" standalone="no"?>
<svg
   xmlns:dc="http://purl.org/dc/elements/1.1/"
   xmlns:cc="http://creativecommons.org/ns#"
   xmlns:rdf="http://www.w3.org/1999/02/22-rdf-syntax-ns#"
   xmlns:svg="http://www.w3.org/2000/svg"
   xmlns="http://www.w3.org/2000/svg"
   viewBox="0 0 104.82314 104.8401"
   version="1.1"
   id="svg8">
  <defs
     id="defs2" />
  <metadata
     id="metadata5">
    <rdf:RDF>
      <cc:Work
         rdf:about="">
        <dc:format>image/svg+xml</dc:format>
        <dc:type
           rdf:resource="http://purl.org/dc/dcmitype/StillImage" />
        <dc:title></dc:title>
      </cc:Work>
    </rdf:RDF>
  </metadata>
  <g
     style="fill:#989898;fill-opacity:1"
     id="layer1"
     transform="translate(-47.508264,-133.11795)">
    <path
       style="fill-opacity:1;stroke-width:0.20479752"
       d="m 81.590287,237.76434 c -0.225273,-0.0922 -0.593915,-0.37243 -0.819188,-0.62274 -0.394845,-0.43869 -0.41165,-0.78589 -0.466845,-9.64082 l -0.05731,-9.18572 -5.928719,-0.0601 -5.928719,-0.0601 -0.567559,-0.56754 -0.567542,-0.56757 -0.06007,-5.92872 -0.06008,-5.92871 -9.202559,-0.0574 -9.202545,-0.0573 -0.531788,-0.53194 c -0.331641,-0.33175 -0.574428,-0.84988 -0.645089,-1.37668 -0.102434,-0.76366 -0.0439,-0.91405 0.609212,-1.56722 l 0.72251,-0.72251 h 9.133965 9.133963 v -6.55332 -6.55352 h -8.81286 c -9.682313,0 -9.919063,-0.0271 -10.526903,-1.20248 -0.405196,-0.78357 -0.405196,-1.31702 0,-2.10058 0.60784,-1.17544 0.84459,-1.20249 10.526903,-1.20249 h 8.81286 v -6.55351 -6.55352 h -9.133963 -9.133965 l -0.72251,-0.72251 c -0.653176,-0.65318 -0.711635,-0.80359 -0.609212,-1.56724 0.07071,-0.5268 0.313448,-1.04492 0.645089,-1.37666 l 0.531788,-0.53195 9.202545,-0.0574 9.202559,-0.0574 0.06008,-5.92872 0.06007,-5.92872 0.567542,-0.56754 0.567559,-0.56756 5.928719,-0.0601 5.928719,-0.0601 0.05731,-9.20257 0.05731,-9.20254 0.531943,-0.53179 c 0.331733,-0.33164 0.849873,-0.57443 1.376652,-0.64509 0.76366,-0.10242 0.91406,-0.0439 1.56724,0.60921 l 0.72251,0.72251 v 9.13396 9.13398 h 6.55352 6.55353 v -8.81289 c 0,-9.68229 0.0271,-9.91905 1.20247,-10.52689 0.78356,-0.40519 1.317001,-0.40519 2.100571,0 1.17542,0.60784 1.20248,0.8446 1.20248,10.52689 v 8.81289 h 6.55352 6.55351 v -9.13398 -9.13396 l 0.72251,-0.72251 c 0.65318,-0.65318 0.80358,-0.71165 1.56723,-0.60921 0.5268,0.0707 1.04492,0.31345 1.37667,0.64509 l 0.53194,0.53179 0.0574,9.20254 0.0574,9.20257 5.92872,0.0601 5.92872,0.0601 0.56755,0.56756 0.56755,0.56754 0.0601,5.92872 0.0601,5.92872 9.20257,0.0574 9.20255,0.0574 0.5318,0.53195 c 0.33163,0.33174 0.57442,0.84986 0.64508,1.37666 0.10242,0.76365 0.0439,0.91406 -0.60921,1.56724 l -0.72251,0.72251 h -9.13396 -9.13399 v 6.55352 6.55351 h 8.81289 c 9.68229,0 9.91903,0.027 10.52689,1.20249 0.4052,0.78356 0.4052,1.31701 0,2.10058 -0.60786,1.17543 -0.8446,1.20248 -10.52689,1.20248 h -8.81289 v 6.55352 6.55352 h 9.13399 9.13396 l 0.72251,0.7225 c 0.65318,0.65318 0.71164,0.80357 0.60921,1.56723 -0.0707,0.5268 -0.31345,1.04492 -0.64508,1.37667 l -0.5318,0.53194 -9.20255,0.0573 -9.20257,0.0574 -0.0601,5.92872 -0.0601,5.92871 -0.56755,0.56757 -0.56755,0.56754 -5.92872,0.06 -5.92872,0.0601 -0.0574,9.20256 -0.0574,9.20256 -0.53194,0.53178 c -0.33175,0.33165 -0.84987,0.57444 -1.37667,0.64509 -0.76365,0.10243 -0.91405,0.0439 -1.56723,-0.6092 l -0.72251,-0.72251 v -9.13397 -9.13398 h -6.55351 -6.55352 v 8.81288 c 0,9.6823 -0.0271,9.91904 -1.20248,10.52688 -0.34121,0.17645 -0.81382,0.3208 -1.050301,0.3208 -0.23645,0 -0.70909,-0.14434 -1.05027,-0.3208 -1.17543,-0.60784 -1.20247,-0.84458 -1.20247,-10.52688 v -8.81288 h -6.55353 -6.55352 v 9.13398 9.13397 l -0.69631,0.6963 c -0.71105,0.71105 -1.3948,0.86226 -2.273246,0.5027 z M 128.38651,185.52979 V 157.06293 H 99.919649 71.452822 v 28.46686 28.46685 h 28.466827 28.466861 z m -46.796223,19.46867 c -0.225273,-0.0932 -0.593915,-0.37424 -0.819188,-0.62464 -0.403179,-0.44812 -0.409587,-0.74355 -0.409587,-18.86087 v -18.40562 l 0.567836,-0.56786 0.56785,-0.56784 h 18.422451 18.422471 l 0.56785,0.56784 0.56784,0.56786 v 18.42246 18.42246 l -0.56779,0.56786 -0.56779,0.56784 -18.17118,0.0399 c -9.994131,0.022 -18.35549,-0.0364 -18.580763,-0.1294 z m 33.689183,-19.46867 v -15.3598 H 99.919649 84.559859 v 15.3598 15.35981 h 15.35979 15.359821 z"
       fill="#ffffff"
       id="path4533" />
  </g>
</svg>
