<?xml version="1.0" encoding="utf-8"?>
<!-- Generator: Adobe Illustrator 16.0.0, SVG Export Plug-In . SVG Version: 6.00 Build 0)  -->
<!DOCTYPE svg PUBLIC "-//W3C//DTD SVG 1.1//EN" "http://www.w3.org/Graphics/SVG/1.1/DTD/svg11.dtd">
<svg version="1.1"
	 id="svg8" sodipodi:docname="coffee.svg" inkscape:version="0.92.1 r15371" xmlns:dc="http://purl.org/dc/elements/1.1/" xmlns:cc="http://creativecommons.org/ns#" xmlns:rdf="http://www.w3.org/1999/02/22-rdf-syntax-ns#" xmlns:svg="http://www.w3.org/2000/svg" xmlns:sodipodi="http://sodipodi.sourceforge.net/DTD/sodipodi-0.dtd" xmlns:inkscape="http://www.inkscape.org/namespaces/inkscape"
	 xmlns="http://www.w3.org/2000/svg" xmlns:xlink="http://www.w3.org/1999/xlink" x="0px" y="0px" width="566.93px"
	 height="566.93px" viewBox="0 0 566.93 566.93" enable-background="new 0 0 566.93 566.93" xml:space="preserve">
<sodipodi:namedview  inkscape:window-maximized="1" inkscape:window-y="-14" inkscape:current-layer="layer1" inkscape:window-x="-14" inkscape:pageshadow="2" inkscape:document-units="mm" inkscape:pageopacity="0.0" inkscape:window-height="1881" inkscape:window-width="3000" showgrid="false" inkscape:cy="403.50969" inkscape:cx="266.51474" inkscape:zoom="0.98994949" borderopacity="1.0" bordercolor="#666666" pagecolor="#ffffff" id="base">
	</sodipodi:namedview>
<g id="layer1" transform="translate(0,-97)" inkscape:groupmode="layer" inkscape:label="Layer 1">
	<path id="path4496" inkscape:connector-curvature="0" fill="#FFFFFF" d="M34.635,663.68c-1.1-0.502-2.898-2.021-3.998-3.376
		c-1.929-2.379-2.008-4.241-2.261-53.64c-0.252-49.167-0.186-51.314,1.696-54.712c1.312-2.368,3.215-3.923,5.76-4.707
		c2.267-0.698,15.625-1.173,33.124-1.177l29.324-0.003l-6.339-7.603c-6.553-7.857-14.175-22.436-17.247-32.988l-1.646-5.657
		l-10.505-0.66c-16.211-1.019-24.768-6.496-31.156-19.946c-2.727-5.737-2.748-5.961-2.748-27.41s0.021-21.672,2.748-27.41
		c6.209-13.071,14.635-18.646,29.989-19.845l9.735-0.759v-6.993c0-8.291,1.177-11.625,4.986-14.122
		c2.57-1.686,10.489-1.846,90.606-1.843c85.286,0.003,87.88,0.066,90.986,2.168c5.335,3.61,5.551,6.171,5.048,59.913
		c-0.422,45.111-0.593,48.839-2.613,57.132c-3.089,12.673-10.027,27.416-17.614,37.429l-6.514,8.595h25.242h25.241L315.366,417.7
		c15.887-70.602,29.087-128.989,29.334-129.752c0.357-1.102-16.788-1.387-83.604-1.387h-84.053v23.289v23.289h-10.493h-10.493
		V309.85v-23.289l-58.213-0.008c-37.776-0.003-59.547-0.417-62.013-1.177c-2.548-0.785-4.442-2.336-5.752-4.707
		c-1.9-3.44-1.946-5.892-1.697-90.29l0.256-86.755l2.771-3.074l2.771-3.074h249.794h249.794l2.771,3.074l2.771,3.075v277.198
		v277.198l-2.771,3.074l-2.771,3.075l-248.567,0.21C148.489,664.498,35.734,664.182,34.635,663.68L34.635,663.68z M518.824,380.823
		V120.209h-234.85H49.126v70.977v70.976l154.151,0.008c102.568,0.003,155.39,0.389,157.853,1.147
		c4.626,1.426,7.791,5.751,7.791,10.647c0,5.152-63.706,287.555-65.594,290.77c-3.49,5.945,1.459,5.729-131.248,5.729H49.126v35.487
		v35.488h234.849h234.85V380.823z M393.827,613.797l-2.921-3.241V582.34c0-26.744,0.106-28.365,2.044-31.099
		c1.125-1.586,3.71-3.397,5.746-4.024c4.983-1.536,85.368-1.536,90.352,0c2.036,0.627,4.622,2.438,5.746,4.024
		c1.938,2.733,2.044,4.354,2.044,31.099v28.216l-2.921,3.241l-2.921,3.242h-47.124h-47.123L393.827,613.797z M475.851,582.105
		v-11.645h-31.979h-31.979v11.645v11.645h31.979h31.979V582.105z M192.235,544.86c2.912-0.661,9.384-3.379,14.382-6.038
		c12.685-6.753,21.775-16.841,27.86-30.918c2.396-5.545,4.846-12.728,5.441-15.959c0.663-3.599,1.084-21.768,1.084-46.855v-40.978
		h-74.452H92.098l0.017,40.2c0.014,30.901,0.354,41.964,1.473,47.821c4.649,24.353,23.261,45.706,45.48,52.182
		C145.823,546.284,184.231,546.677,192.235,544.86L192.235,544.86z M71.112,451.799V428.51h-7.479
		c-6.853,0-7.754,0.271-10.743,3.236l-3.264,3.235v16.817v16.816l3.264,3.236c2.989,2.964,3.891,3.236,10.743,3.236h7.479V451.799z"
		/>
</g>
</svg>
