<?xml version="1.0" encoding="UTF-8" standalone="no"?>
<svg
   xmlns:dc="http://purl.org/dc/elements/1.1/"
   xmlns:cc="http://creativecommons.org/ns#"
   xmlns:rdf="http://www.w3.org/1999/02/22-rdf-syntax-ns#"
   xmlns:svg="http://www.w3.org/2000/svg"
   xmlns="http://www.w3.org/2000/svg"
   id="svg8"
   version="1.1"
   viewBox="0 0 200 200"
   height="200mm"
   width="200mm">
  <defs
     id="defs2" />
  <metadata
     id="metadata5">
    <rdf:RDF>
      <cc:Work
         rdf:about="">
        <dc:format>image/svg+xml</dc:format>
        <dc:type
           rdf:resource="http://purl.org/dc/dcmitype/StillImage" />
        <dc:title></dc:title>
      </cc:Work>
    </rdf:RDF>
  </metadata>
  <g
     transform="translate(0,-97)"
     id="layer1">
    <path
       id="path4496" fill="#ffffff"
       d="m 12.218481,296.91208 c -0.387807,-0.17682 -1.0224,-0.71271 -1.410206,-1.19086 -0.680619,-0.83922 -0.708318,-1.49629 -0.797694,-18.92293 -0.08896,-17.34483 -0.06545,-18.1025 0.598627,-19.30101 0.462928,-0.83547 1.133913,-1.3839 2.031623,-1.66053 0.799869,-0.24649 5.512224,-0.41393 11.685542,-0.41524 l 10.345138,-0.001 -2.236456,-2.68186 c -2.311721,-2.77211 -5.000436,-7.91498 -6.084148,-11.6375 l -0.580991,-1.99568 -3.706049,-0.2329 c -5.718574,-0.35936 -8.737356,-2.29199 -10.991211,-7.03662 -0.961591,-2.02425 -0.969484,-2.10297 -0.969484,-9.66981 0,-7.56683 0.0078,-7.64555 0.969484,-9.6698 2.190459,-4.61116 5.162945,-6.57806 10.579656,-7.0006 l 3.434292,-0.26789 v -2.46682 c 0,-2.92484 0.415329,-4.10113 1.759055,-4.98197 0.907016,-0.59456 3.700374,-0.65137 31.963992,-0.65003 30.087152,0.001 31.002189,0.0232 32.097903,0.76462 1.882178,1.27353 1.958298,2.1769 1.780948,21.136 -0.148857,15.91448 -0.209007,17.22924 -0.922064,20.1549 -1.089624,4.47069 -3.537319,9.67179 -6.213894,13.20394 l -2.297598,3.03202 h 8.904699 8.904695 l 10.18973,-45.28462 c 5.60435,-24.90654 10.26108,-45.50469 10.34829,-45.77366 0.12606,-0.38874 -5.92227,-0.48904 -29.493385,-0.48904 h -29.65193 v 8.21579 8.21578 h -3.701789 -3.701789 v -8.21578 -8.21579 l -20.536114,-0.003 c -13.326682,-0.001 -21.006681,-0.14697 -21.876522,-0.41507 -0.898832,-0.27698 -1.567403,-0.82402 -2.029454,-1.66054 -0.6703427,-1.21361 -0.6865927,-2.07829 -0.598626,-31.85235 l 0.09042,-30.604984 0.977529,-1.084639 0.977528,-1.084653 h 88.121662 88.1218 l 0.97753,1.084757 0.97753,1.084772 v 97.789337 97.78916 l -0.97752,1.08478 -0.97752,1.08477 -87.68914,0.0742 c -48.228873,0.0408 -88.006285,-0.0704 -88.39409,-0.24725 z M 183.02944,197.12639 V 105.18762 H 100.17989 17.330475 v 25.03874 25.03864 l 54.38104,0.003 c 36.183785,0.001 54.817915,0.13693 55.686915,0.4047 1.632,0.50299 2.74832,2.02865 2.74832,3.75612 0,1.81752 -22.47396,101.44287 -23.13982,102.57706 -1.2314,2.09734 0.51481,2.0211 -46.301317,2.0211 H 17.330475 v 12.5193 12.51929 h 82.849415 82.84955 z m -44.09603,82.18794 -1.03054,-1.1436 v -9.95365 c 0,-9.43502 0.0376,-10.00664 0.72113,-10.97099 0.39663,-0.55954 1.30886,-1.19848 2.02718,-1.41988 1.75792,-0.54178 30.11592,-0.54178 31.87383,0 0.71831,0.2214 1.63054,0.86034 2.02716,1.41988 0.68356,0.96435 0.72114,1.53597 0.72114,10.97099 v 9.95365 l -1.03053,1.1436 -1.03053,1.14357 H 156.5881 139.96395 Z m 28.93632,-11.1801 v -4.1079 H 156.5881 145.30645 v 4.1079 4.10789 h 11.28165 11.28163 z M 67.8161,254.99516 c 1.027535,-0.2333 3.310674,-1.19199 5.07363,-2.1304 4.474969,-2.38203 7.681991,-5.94089 9.828519,-10.90681 0.845647,-1.95637 1.709541,-4.48997 1.919781,-5.63024 0.234027,-1.26926 0.382237,-7.6789 0.382237,-16.52936 V 205.34217 H 58.755256 32.490181 l 0.0061,14.182 c 0.0047,10.90134 0.124841,14.80384 0.519331,16.8701 1.6402,8.59102 8.205742,16.12393 16.044459,18.40846 2.382888,0.69446 15.932543,0.83347 18.75601,0.19243 z M 25.086604,222.16497 v -8.21579 h -2.638573 c -2.417181,0 -2.735178,0.0958 -3.789926,1.1416 l -1.151356,1.14158 v 5.93261 5.9326 l 1.151356,1.14158 c 1.054748,1.04581 1.372745,1.1416 3.789926,1.1416 h 2.638573 z"
       style="stroke-width:0.37138644;fill-opacity:1" />
  </g>
</svg>
