<?xml version="1.0" encoding="UTF-8" standalone="no"?>
<svg
   xmlns:dc="http://purl.org/dc/elements/1.1/"
   xmlns:cc="http://creativecommons.org/ns#"
   xmlns:rdf="http://www.w3.org/1999/02/22-rdf-syntax-ns#"
   xmlns:svg="http://www.w3.org/2000/svg"
   xmlns="http://www.w3.org/2000/svg"
   id="svg8"
   version="1.1"
   viewBox="0 0 200 200"
   height="200mm"
   width="200mm">
  <defs
     id="defs2" />
  <metadata
     id="metadata5">
    <rdf:RDF>
      <cc:Work
         rdf:about="">
        <dc:format>image/svg+xml</dc:format>
        <dc:type
           rdf:resource="http://purl.org/dc/dcmitype/StillImage" />
        <dc:title></dc:title>
      </cc:Work>
    </rdf:RDF>
  </metadata>
  <g
     transform="translate(0,-97)"
     id="layer2">
    <path
       id="path4511"
       d="M 93.682356,296.79716 C 77.156291,295.51822 62.15852,290.08843 49.650747,280.85597 31.869938,267.7313 21.575517,248.29026 21.592346,227.86763 c 0.01123,-13.58515 4.692323,-27.08615 13.2483,-38.20991 1.924024,-2.50147 20.704414,-29.28889 56.027642,-79.91509 4.921696,-7.05396 9.005765,-12.82537 9.075705,-12.82537 0.07,0 13.991207,19.88953 30.936167,44.1989 16.94494,24.30937 31.71722,45.34854 32.82729,46.75371 8.00177,10.12888 12.47314,20.42463 14.15793,32.59985 0.45688,3.30167 0.39014,12.35752 -0.11578,15.71363 -1.69884,11.26906 -5.73818,20.89838 -12.57064,29.96703 -4.76999,6.33117 -11.35336,12.4726 -18.30545,17.07661 -11.09898,7.35031 -24.18223,11.90183 -38.47134,13.38377 -2.89992,0.30075 -11.787839,0.41331 -14.719804,0.1864 z m 14.049414,-16.44699 c 12.86471,-1.47755 24.57658,-6.48666 33.90454,-14.50083 9.92189,-8.52445 15.75913,-18.64753 17.79935,-30.86809 0.61622,-3.69097 0.56198,-10.90279 -0.11069,-14.71593 -1.99392,-11.30333 -7.45125,-20.96131 -16.50668,-29.21227 l -2.93274,-2.67222 -15.75885,-21.46071 c -12.50809,-17.03379 -16.61603,-22.79863 -19.91425,-27.94661 -2.28547,-3.56725 -4.20757,-6.4867 -4.271307,-6.48768 -0.0637,-0.001 -0.994227,1.26213 -2.067718,2.80691 -1.073494,1.54478 -10.661317,14.67342 -21.306297,29.17473 -14.831262,20.20415 -19.71158,26.70038 -20.8824,27.79673 -8.027119,7.51657 -13.415713,17.63733 -15.235108,28.61429 -0.534164,3.22278 -0.544762,10.65578 -0.01983,13.90533 1.851004,11.45838 7.355648,21.53838 16.163212,29.59777 10.513066,9.62 23.475527,15.08603 38.596088,16.27527 3.035642,0.23876 9.08047,0.091 12.54266,-0.30669 z m 3.86371,-28.40708 c -2.13506,-0.40904 -4.49285,-1.58516 -5.93925,-2.96264 -1.54115,-1.46773 -2.27645,-2.56667 -3.09107,-4.61982 -0.59408,-1.49725 -0.64035,-1.84666 -0.64675,-4.88285 -0.008,-3.71881 0.2634,-4.94316 1.64817,-7.44007 1.10748,-1.99688 3.54273,-4.1958 5.64691,-5.0989 3.867,-1.65968 9.12767,-1.65848 12.98128,0.003 2.88417,1.24346 5.17538,3.95414 6.19076,7.32414 0.57753,1.91682 0.56685,6.7362 -0.0193,8.68647 -2.03427,6.76903 -8.96725,10.48577 -16.77077,8.99073 z m 7.31518,-4.69906 c 2.79062,-1.34061 4.20448,-4.1584 4.20448,-8.37942 0,-4.22425 -1.38442,-6.90155 -4.26073,-8.23972 -1.04564,-0.48649 -1.43053,-0.54809 -3.38209,-0.54141 -1.91892,0.007 -2.35127,0.0767 -3.36123,0.54441 -3.11822,1.44436 -4.54131,4.11719 -4.54867,8.54331 -0.007,3.75724 1.17292,6.29154 3.59007,7.71587 1.5425,0.90892 2.26262,1.06792 4.55163,1.00499 1.6679,-0.0459 2.16015,-0.14534 3.20654,-0.64803 z m -42.918918,4.33229 c 0.103969,-0.15324 8.530504,-11.79064 18.725548,-25.8609 l 18.53645,-25.58228 h 3.08781 c 2.87081,0 3.07222,0.0251 2.86583,0.35767 -0.12212,0.19672 -8.51219,11.8085 -18.64467,25.80395 l -18.422638,25.44629 -3.168705,0.057 c -2.625334,0.0472 -3.136294,0.009 -2.979625,-0.22167 z m 0.88451,-25.92953 c -4.042792,-0.67483 -7.752188,-3.73506 -9.143228,-7.5431 -0.945495,-2.58833 -1.000897,-7.27311 -0.117935,-9.96917 0.888279,-2.71214 3.08526,-5.44487 5.455653,-6.78603 2.130433,-1.20537 3.948772,-1.66241 7.05079,-1.77223 4.563146,-0.16153 7.42373,0.67154 9.997105,2.91141 1.625984,1.41525 2.672935,3.08252 3.380152,5.38286 0.687324,2.23565 0.682724,6.62591 -0.009,8.87942 -1.407399,4.58301 -5.006032,7.82579 -9.787177,8.81941 -1.643034,0.34145 -5.015251,0.37971 -6.826088,0.0775 z m 6.414264,-4.38844 c 1.430966,-0.39616 3.038631,-1.67298 3.773124,-2.99664 2.242645,-4.04158 1.445971,-10.9081 -1.520971,-13.1093 -1.571283,-1.16575 -2.470316,-1.43148 -4.841572,-1.43104 -1.930641,4e-4 -2.345093,0.0668 -3.361224,0.53889 -2.110896,0.9807 -3.672061,2.85666 -4.312256,5.18183 -0.153343,0.55694 -0.283123,2.07032 -0.288417,3.36308 -0.01359,3.31768 0.729009,5.39429 2.503818,7.002 1.978676,1.79238 4.90742,2.32052 8.047498,1.45118 z"
       style="fill:#ffffff;fill-opacity:1;stroke-width:0.21766672" />
  </g>
</svg>
