<?xml version="1.0" encoding="UTF-8" standalone="no"?>
<svg
   xmlns:dc="http://purl.org/dc/elements/1.1/"
   xmlns:cc="http://creativecommons.org/ns#"
   xmlns:rdf="http://www.w3.org/1999/02/22-rdf-syntax-ns#"
   xmlns:svg="http://www.w3.org/2000/svg"
   xmlns="http://www.w3.org/2000/svg"
   id="svg8"
   version="1.1"
   viewBox="0 0 279.24838 303.98441"
   height="303.98441mm"
   width="279.24838mm">
  <defs
     id="defs2">
    <filter
       id="filter4520"
       style="color-interpolation-filters:sRGB">
      <feColorMatrix
         id="feColorMatrix4518"
         values="11 0 0 3.906 -5 0 11 0 3.906 -5 0 0 11 3.906 -5 0 0 0 1 0" />
    </filter>
  </defs>
  <metadata
     id="metadata5">
    <rdf:RDF>
      <cc:Work
         rdf:about="">
        <dc:format>image/svg+xml</dc:format>
        <dc:type
           rdf:resource="http://purl.org/dc/dcmitype/StillImage" />
        <dc:title></dc:title>
      </cc:Work>
    </rdf:RDF>
  </metadata>
  <g
     transform="translate(36.739272,15.244734)"
     id="layer1">
    <path
       id="path4522" fill="#ffffff"
       d="m 239.08885,288.32515 c 1.13179,-0.58862 1.93247,-1.39441 2.72549,-2.74283 0.55818,-0.94912 0.68945,-1.50768 0.68396,-2.91042 -0.01,-2.53413 -0.9757,-4.15512 -3.40945,-5.72259 -0.77786,-0.50097 -2.16292,-0.51385 -69.18854,-0.6435 L 101.50552,276.17352 86.821148,264.6769 c -27.24763,-21.33257 -51.14439,-40.02406 -60.45729,-47.28827 -5.09323,-3.9728 -9.69798,-7.58091 -10.23279,-8.01801 -0.5348,-0.43711 -7.9166704,-6.21466 -16.40416038,-12.839 -20.13238962,-15.713 -19.26833962,-15.03694 -19.62255962,-15.35311 -0.16894,-0.15079 -0.78341,-0.62704 -1.36549,-1.05833 -0.58208,-0.43129 -1.21301,-0.93034 -1.40208,-1.109 -0.18905,-0.17866 -0.58769,-0.49572 -0.88591,-0.70459 -0.69625,-0.48767 -0.67061,-0.52797 2.55257,-4.01601 5.20481,-5.6325 5.86751,-6.35221 7.29003,-7.91705 0.79267,-0.87198 2.16398,-2.36026 3.04735,-3.30729 0.8833696,-0.94703 2.2525896,-2.43625 3.0427096,-3.30938 0.79012,-0.87312 1.49881,-1.64703 1.57487,-1.71979 0.0761,-0.0728 1.43565,-1.56104 3.02131,-3.30729 1.58566,-1.74625 3.72697002,-4.06797 4.75848,-5.15938 1.0315,-1.0914 2.39946,-2.57969 3.03991,-3.30729 0.64045,-0.7276 1.94995,-2.15635 2.90999,-3.175 0.96004,-1.01865 3.0542604,-3.28083 4.6538104,-5.02708 4.62044,-5.04419 5.13683,-5.6072 8.8577,-9.6573 1.93854,-2.11005 4.13465,-4.4913 4.88025,-5.29166 2.32046,-2.4909 9.99579,-10.86008 11.63176,-12.68329 0.857,-0.95508 2.22621,-2.45228 3.04271,-3.32712 0.8165,-0.87485 2.131,-2.3036 2.92112,-3.175 0.79012,-0.87141 2.15934,-2.35847 3.04271,-3.30458 0.88337,-0.946113 2.85539,-3.089243 4.38227,-4.762503 1.52688,-1.67327 3.33339,-3.63761 4.01448,-4.36522 0.68108,-0.7276 1.45588,-1.57351 1.72177,-1.87979 0.47948,-0.55231 5.28822,-5.76667 6.30427,-6.83603 0.29104,-0.30631 1.65943,-1.80431 3.04086,-3.32889 1.38143,-1.52457 3.2094,-3.50713 4.06217,-4.40568 0.85277,-0.89854 1.72356,-1.88081 1.93509,-2.18281 0.21153,-0.302 0.52762,-0.54909 0.70243,-0.54909 0.17482,0 3.10237,2.78642 6.50568,6.19204 l 6.18784,6.19204 -1.21851,3.79598 c -5.18172,16.142413 -6.31034,32.464283 -3.30867,47.849103 0.29812,1.52797 0.64437,3.31391 0.76945,3.96876 0.12509,0.65484 0.35791,1.66687 0.51739,2.24895 0.15948,0.58209 0.35214,1.35599 0.42814,1.7198 0.38315,1.83418 2.81012,8.94627 3.95009,11.57552 0.20506,0.47294 0.56691,1.30638 0.80411,1.85208 4.10672,9.44771 9.28606,17.41179 16.493522,25.36144 3.60921,3.98086 4.6678,4.66113 7.28457,4.68112 1.01815,0.008 1.91963,-0.15645 2.51354,-0.45791 0.50933,-0.25853 8.22955,-7.75009 17.15606,-16.64792 l 16.23002,-16.17788 0.57102,0.77304 c 3.70245,5.01226 6.59375,8.03083 10.54167,11.00567 2.12419,1.60063 6.41959,4.01252 8.94707,5.02384 2.38991,0.95628 2.46703,0.9838 3.70416,1.32194 0.65485,0.17898 1.48829,0.42035 1.85209,0.53637 4.39893,1.40281 13.74457,2.05957 18.49032,1.29941 10.84795,-1.73762 18.4799,-5.44018 25.3041,-12.27604 4.45454,-4.46215 7.24164,-8.60388 9.44406,-14.03423 1.02529,-2.52797 1.20736,-3.08509 2.032,-6.2177 1.72755,-6.5626 1.84206,-15.26254 0.2873,-21.82813 -1.60302,-6.76942 -4.20155,-12.41567 -7.95489,-17.28487 -1.96427,-2.54825 -6.67769,-7.112863 -8.90758,-8.626363 -1.05503,-0.71608 -1.91823,-1.48968 -1.91823,-1.71912 0,-0.22943 7.0918,-7.50099 15.75956,-16.15902 8.66776,-8.65804 16.07095,-16.26497 16.45154,-16.90429 0.53477,-0.89834 0.69598,-1.52948 0.7096,-2.77813 0.0214,-1.95848 -0.53665,-3.27977 -2.06134,-4.88102 -1.76812,-1.85689 -6.42553,-5.87128 -9.5604,-8.24045 -2.6256,-1.9843 -7.11428,-5.0307 -7.41241,-5.0307 -0.0649,0 -0.75488,-0.40744 -1.53335,-0.90543 -1.14766,-0.73414 -8.76113,-4.53661 -10.89799,-5.44289 -3.65426,-1.54982 -8.90453,-3.26624 -13.36146,-4.36814 -1.52797,-0.37777 -3.19484,-0.79312 -3.70417,-0.92301 -1.75348,-0.44717 -9.39892,-1.55382 -12.7,-1.83826 -4.24661,-0.36593 -10.86749,-0.36419 -15.08125,0.004 -8.38345,0.73245 -18.37004,2.8401 -24.64517,5.20131 -0.9673,0.36398 -1.88722,0.61801 -2.04426,0.56451 -0.15705,-0.0535 -9.01628,-8.8186 -19.68718,-19.478 -10.67089,-10.65940033 -19.52141,-19.3807303 -19.66782,-19.3807303 -0.14641,0 -0.497012,-0.20836 -0.779112,-0.46302 -1.41626,-1.2785 -6.18402,-3.7498397 -9.24416,-4.7916597 -4.97932,-1.69519 -12.57115,-2.34226 -17.62949,-1.5026 -1.50888,0.25047 -3.39827,0.63654 -4.19863,0.85794 -0.80037,0.2214 -1.78409,0.46243 -2.18605,0.53562 -0.40197,0.0732 -0.79595,0.2384 -0.87552,0.36715 -0.0796,0.12874 -0.30992,0.23407 -0.51191,0.23407 -0.56975,0 -4.29267,1.83716 -6.3484,3.1327697 -4.58922,2.89231 -10.4834,8.78829997 -13.39957,13.40369 -5.40745,8.5583103 -6.92684,19.4189603 -4.17333,29.8309603 0.31762,1.20099 0.68075,2.29674 0.80696,2.43498 0.12622,0.13825 0.22959,0.4359 0.22973,0.66146 5.3e-4,0.66341 2.75832,5.92098 4.12953,7.87236 0.69496,0.98899 4.99115,5.55433 9.5471,10.14521 4.55595,4.59087 8.28354,8.45029 8.28354,8.57648 0,0.1262 -0.68461,0.95589 -1.52135,1.84377 -1.79425,1.9039 -5.83184,6.28528 -10.37915,11.26291 -1.7947,1.96453 -3.81037,4.16719 -4.47928,4.89479 -1.54597,1.68163 -6.95016,7.56933 -7.30043,7.95359 -0.14552,0.15965 -1.46453,1.59056 -2.93114,3.1798 -1.4666,1.58924 -4.19338,4.5564 -6.0595,6.5937 -1.86611,2.037293 -4.06289,4.418543 -4.88172,5.291663 -1.87942,2.00404 -9.68839,10.50175 -11.79222,12.83229 -0.87313,0.96721 -3.55203,3.8877 -5.9531304,6.48997 -2.40109,2.60228 -5.02046,5.44868 -5.82083,6.32535 -1.52327,1.6685 -12.6870496,13.79641 -17.3076496,18.80239 -1.4775,1.60073 -3.98935,4.33917 -5.5819,6.08542 -4.45379,4.88366 -5.40631,5.91845 -7.42334,8.06443 -1.02859,1.09435 -2.35003,2.52552 -2.9365,3.18036 -0.5865,0.65484 -2.21546,2.43598 -3.61993,3.95808 l -2.5536,2.76746 v 5.65195 c 0,4.17376 0.0865,5.73603 0.33073,5.97339 0.1819,0.17678 0.80463,0.67429 1.3838,1.10558 1.31667,0.98044 1.85058,1.39897 2.88729,2.26341 0.7157,0.59676 13.02062,10.21664 18.68545,14.6081 6.6368096,5.14497 10.1338196,7.87954 17.8554396,13.96249 3.34698,2.63668 6.5465904,5.13736 7.1102504,5.55706 1.14019,0.84898 4.87803,3.78119 9.92366,7.78476 1.83397,1.45521 5.35957,4.22417 7.83467,6.15325 2.47509,1.92908 5.15502,4.02066 5.95538,4.64796 0.80036,0.6273 6.09067,4.75402 11.75624,9.1705 5.66556,4.41647 10.48759,8.18478 10.71562,8.37403 0.22803,0.18926 4.93897,3.87874 10.46876,8.19886 5.5298,4.32009 10.63293,8.34239 11.34031,8.93839 l 1.28614,1.08368 -45.20697,0.13229 c -42.9494204,0.12568 -45.2494304,0.15613 -46.05719,0.60987 -1.9018,1.06825 -3.51541,3.62429 -3.51541,5.5686 0,2.25116 1.61796,4.91514 3.53876,5.82663 0.8334096,0.39547 10.94065962,0.43019 124.824142,0.42868 111.75858,-10e-4 123.99518,-0.0421 124.71105,-0.41444 z M 108.98704,169.47171 c -1.81536,-2.28407 -5.23256,-7.08981 -5.23256,-7.35875 0,-0.0559 -0.51299,-0.90662 -1.13998,-1.89037 -3.542422,-5.55811 -7.229552,-14.54367 -9.148042,-22.29385 -0.77198,-3.11857 -1.01112,-4.39873 -1.65576,-8.86355 -0.44038,-3.05004 -0.5902,-15.24632 -0.22426,-18.25624 0.47828,-3.93407 1.27919,-8.47466 1.89011,-10.71563 0.29753,-1.091413 0.63794,-2.401093 0.75645,-2.910423 0.92494,-3.97502 3.43374,-10.18183 6.523622,-16.13958 5.89685,-11.36998 16.20614,-22.79154 27.56572,-30.53978 1.65238,-1.12707 3.61691,-2.3973 4.36562,-2.82274 2.39677,-1.36188 8.44454,-4.34887 10.35714,-5.11537 1.01865,-0.40824 2.09021,-0.84196 2.38125,-0.96383 3.2611,-1.36552 11.90292,-3.63475 16.00729,-4.20331 1.23693,-0.17134 2.8939,-0.42255 3.68215,-0.55825 1.95793,-0.33706 15.28916,-0.31271 17.45401,0.0319 0.96267,0.15323 2.58374,0.40875 3.60239,0.56782 1.75841,0.27459 5.53258,1.04393 7.54062,1.53711 2.52304,0.61967 3.25572,0.83344 5.44249,1.58795 1.29949,0.44838 2.60084,0.91726 2.89189,1.04198 0.29104,0.12471 1.3626,0.5618 2.38125,0.97131 2.02881,0.81561 8.14736,3.829 10.44882,5.14604 2.23995,1.28185 7.01277,4.62259 9.72891,6.80977 2.10457,1.69471 2.40348,2.03189 2.11667,2.38763 -1.12108,1.39045 -115.10085,115.136853 -115.36607,115.129873 -0.17944,-0.005 -1.24582,-1.16559 -2.36973,-2.57969 z m 69.9091,-7.11055 c -7.47193,-1.72039 -13.79423,-5.73245 -19.11361,-12.1293 -1.01712,-1.22314 -3.11139,-4.54859 -3.11139,-4.94052 0,-0.49134 42.90387,-43.34594 43.39579,-43.34594 0.22122,0 0.84025,0.29766 1.37563,0.66146 0.53539,0.3638 1.04832,0.66146 1.13985,0.66146 0.39827,0 3.59555,2.66636 5.38613,4.49174 4.87249,4.96718 7.45259,9.54511 9.09964,16.14576 0.81964,3.28471 0.79903,10.03079 -0.0403,13.19264 -1.81627,6.84208 -4.26704,11.09133 -9.2928,16.11222 -5.68027,5.67476 -11.84382,8.75825 -19.18165,9.59615 -2.45885,0.28077 -7.5158,0.0474 -9.6573,-0.44567 z M 73.558348,54.651127 c -9.545,-9.56799 -17.71362,-17.93213 -18.15251,-18.58698 -2.9653,-4.42445 -4.07908,-7.82629 -4.1147,-12.56771 -0.0369,-4.91195 0.86468,-7.91041 3.73913,-12.43541 1.28086,-2.0163703 8.07736,-8.9975703 10.09505,-10.36940033 2.1123,-1.43615 4.73487,-2.70198997 7.09158,-3.42290997 1.95065,-0.5967 2.80484,-0.70593 5.60842,-0.71717 4.88669,-0.0196 7.82314,0.84613 12.00893,3.54046997 2.03522,1.31004003 4.69601,3.85773003 19.775042,18.93447033 13.46667,13.46461 17.34888,17.48906 17.09524,17.72156 -0.1805,0.16545 -1.75693,1.16417 -3.50318,2.21938 -7.08102,4.27885 -13.95345,10.09367 -20.65431,17.4758 -2.847642,3.13715 -7.259842,9.2327 -9.906492,13.68603 -0.62701,1.05502 -1.27223,1.91823 -1.43383,1.91823 -0.1616,0 -8.10337,-7.82836 -17.64837,-17.39636 z"
       style="fill-opacity:1;stroke-width:0.26458335" />
  </g>
</svg>
