<?xml version="1.0" encoding="UTF-8" standalone="no"?>
<svg
   xmlns:dc="http://purl.org/dc/elements/1.1/"
   xmlns:cc="http://creativecommons.org/ns#"
   xmlns:rdf="http://www.w3.org/1999/02/22-rdf-syntax-ns#"
   xmlns:svg="http://www.w3.org/2000/svg"
   xmlns="http://www.w3.org/2000/svg"
   id="svg8"
   version="1.1"
   viewBox="0 0 143.95656 210.2998"
   height="210.2998mm"
   width="143.95656mm">
  <defs
     id="defs2" />
  <metadata
     id="metadata5">
    <rdf:RDF>
      <cc:Work
         rdf:about="">
        <dc:format>image/svg+xml</dc:format>
        <dc:type
           rdf:resource="http://purl.org/dc/dcmitype/StillImage" />
        <dc:title></dc:title>
      </cc:Work>
    </rdf:RDF>
  </metadata>
  <g
     transform="translate(-3.2072344,-14.967094)"
     id="layer2" />
  <g
     transform="translate(-43.858199,-55.126458)"
     id="layer1">
    <path
       id="path4535" fill="#ffffff"
       d="m 98.07584,265.19603 c -3.88783,-0.67725 -7.068649,-3.4023 -7.956765,-6.81662 -0.432194,-1.66156 -0.248494,-2.53532 0.668616,-3.1802 0.706402,-0.49671 1.249317,-0.5077 25.079819,-0.5077 h 24.35778 l 0.78402,0.60285 c 0.6813,0.52385 0.77949,0.78049 0.74946,1.95892 -0.0941,3.69185 -3.93541,7.2949 -8.48269,7.95648 -2.04095,0.29692 -33.487239,0.28466 -35.20024,-0.0136 z m -5.833205,-14.71067 c -3.832892,-1.40924 -6.267298,-4.35794 -6.267298,-7.59136 0,-0.9652 0.148324,-1.33121 0.741161,-1.82907 l 0.741149,-0.62243 h 28.387143 28.38715 l 0.74115,0.62243 c 1.90056,1.59607 0.15202,6.12894 -3.20181,8.30027 -2.77971,1.79965 -1.7686,1.73264 -26.04946,1.72588 l -21.848302,-0.006 -1.630883,-0.59961 z M 89.13461,236.73913 c -3.906533,-1.08068 -6.889498,-4.2595 -7.125291,-7.59313 -0.09911,-1.40165 -0.03973,-1.59826 0.659237,-2.18228 l 0.768211,-0.64185 h 32.408023 32.40803 l 0.7682,0.64185 c 0.69899,0.58402 0.75839,0.78063 0.65925,2.18228 -0.20378,2.88095 -2.45227,5.68412 -5.62598,7.01382 l -1.64292,0.68835 -26.27938,0.0448 c -14.45364,0.0247 -26.602474,-0.0446 -26.99738,-0.15383 z m -8.161991,-14.71565 c -0.0571,-0.1776 -0.244716,-2.69132 -0.416822,-5.58605 -0.689035,-11.58884 -2.973673,-20.73536 -7.727539,-30.93703 -1.519999,-3.26189 -5.454624,-10.24752 -7.664157,-13.60716 -0.835805,-1.27086 -2.811086,-4.2747 -4.389495,-6.67521 -5.305498,-8.06877 -7.202763,-11.20694 -9.585845,-15.85547 -8.749748,-17.06755 -9.701235,-35.87295 -2.668929,-52.749566 4.576452,-10.982922 13.746571,-21.846716 24.244023,-28.721767 3.040822,-1.991516 3.608345,-2.332591 6.031331,-3.624768 12.517476,-6.675571 26.477484,-9.738747 41.214094,-9.043404 11.55411,0.54518 23.87528,3.963904 33.36134,9.256693 8.21352,4.58277 16.06798,11.143725 21.16954,17.683282 6.27937,8.049349 10.47165,17.045392 12.23139,26.24681 2.02415,10.58401 1.07944,22.26738 -2.63169,32.54637 -2.7757,7.68802 -5.03515,11.7093 -16.15658,28.75475 -11.46623,17.57394 -15.81948,29.62084 -16.83859,46.5981 -0.178,2.96533 -0.36928,5.53412 -0.42505,5.7084 -0.15026,0.46955 -69.595951,0.47554 -69.747021,0.006 z m 16.684487,-13.22403 c -0.160643,-6.60834 -0.737024,-15.88509 -1.192393,-19.19123 -0.807506,-5.86279 -1.338611,-9.65462 -1.456377,-10.39792 -0.242871,-1.5329 -2.670871,-13.52708 -3.58606,-17.71498 -3.116123,-14.25929 -4.475369,-22.23354 -4.006356,-23.50391 0.189866,-0.51427 1.59352,-1.94843 3.708852,-3.78946 4.836843,-4.20961 5.824716,-4.34076 9.508068,-1.26236 1.13619,0.94959 2.58751,2.04424 3.22517,2.43255 2.25033,1.3704 4.26467,0.81789 7.67868,-2.10613 2.15,-1.84141 3.08135,-2.32051 4.5132,-2.32165 1.09941,-7.7e-4 1.41524,0.16614 3.44648,1.82262 5.34397,4.35802 6.51219,4.38403 11.46514,0.25524 3.83998,-3.201 4.69462,-3.09608 9.60227,1.17887 2.11048,1.83839 3.52174,3.2807 3.71059,3.79224 0.4659,1.26193 -0.89266,9.22797 -4.00813,23.50199 -1.72674,7.91126 -3.45161,16.91482 -4.15617,21.69443 -1.31041,8.88961 -2.15957,20.18087 -2.16732,28.81893 l -0.004,4.42875 h 5.30031 5.3003 l 0.13554,-0.8344 c 0.0746,-0.45893 0.27594,-2.33632 0.44754,-4.17201 0.41547,-4.44464 1.02968,-8.02636 2.06926,-12.06672 2.8918,-11.23918 6.96634,-19.77004 16.30306,-34.13372 2.48274,-3.81946 5.14198,-7.92653 5.9094,-9.12677 6.76739,-10.58422 10.28576,-19.3475 11.54474,-28.75476 0.55477,-4.14534 0.37764,-13.92951 -0.31374,-17.32986 -2.65854,-13.075423 -8.93659,-23.759677 -19.16443,-32.614869 -7.28064,-6.303531 -14.76279,-10.40442 -24.80348,-13.594525 -2.0836,-0.662001 -7.70116,-1.87412 -10.91383,-2.354914 -4.42498,-0.662224 -14.98531,-0.666838 -19.67363,-0.0086 -14.436187,2.026858 -27.114427,7.87378 -37.20425,17.157778 -9.418482,8.666282 -15.376878,19.159917 -17.837824,31.41513 -0.684128,3.40685 -0.838693,13.47729 -0.267967,17.45824 0.932523,6.50448 2.48462,11.57276 5.455807,17.81565 2.505376,5.26413 3.53769,6.97549 12.948237,21.46539 11.0559,17.02332 16.023752,29.75124 17.386124,44.54419 0.17557,1.90628 0.380198,3.84144 0.45475,4.30037 l 0.135547,0.8344 h 5.34628 5.346291 l -0.185664,-7.63798 z m 29.794714,1.79717 c 0.59517,-19.02549 1.92086,-28.99686 6.92054,-52.0538 1.40593,-6.48366 2.91868,-14.19832 3.34315,-17.04919 l 0.35959,-2.41508 -1.0917,-0.84359 c -2.21475,-1.7114 -3.49722,-1.39509 -6.16162,1.5197 -4.11987,4.50702 -5.54317,4.79362 -9.08926,1.83029 -3.13765,-2.62201 -4.34207,-3.29487 -5.89785,-3.29487 -1.54377,0 -2.16879,0.34769 -5.5789,3.10355 -3.9139,3.16297 -5.20448,2.93766 -9.38797,-1.63897 -2.64736,-2.89614 -3.883348,-3.21306 -6.115795,-1.56809 l -1.091289,0.8041 0.184286,1.60795 c 0.277606,2.42217 1.717668,9.83449 3.610874,18.58605 4.851204,22.42516 6.227274,32.80618 6.780944,51.15521 l 0.18399,6.09755 h 11.42414 11.42415 z"
       style="fill-opacity:1;stroke-width:0.27154556" />
  </g>
</svg>
