<?xml version="1.0" encoding="UTF-8" standalone="no"?>
<svg
   xmlns:dc="http://purl.org/dc/elements/1.1/"
   xmlns:cc="http://creativecommons.org/ns#"
   xmlns:rdf="http://www.w3.org/1999/02/22-rdf-syntax-ns#"
   xmlns:svg="http://www.w3.org/2000/svg"
   xmlns="http://www.w3.org/2000/svg"
   id="svg8"
   version="1.1"
   viewBox="0 0 125 125"
   height="125mm"
   width="125mm">
  <defs
     id="defs2" />
  <metadata
     id="metadata5">
    <rdf:RDF>
      <cc:Work
         rdf:about="">
        <dc:format>image/svg+xml</dc:format>
        <dc:type
           rdf:resource="http://purl.org/dc/dcmitype/StillImage" />
        <dc:title></dc:title>
      </cc:Work>
    </rdf:RDF>
  </metadata>
  <g
     transform="translate(-77.073043,-112.82386)"
     id="layer3">
    <path
       id="path4522"
       d="m 139.15297,113.31065 c -8.98154,0 -11.24746,0.39785 -16.63309,2.9223 -7.95417,3.72843 -15.57248,11.3474 -19.2996,19.30063 -2.48873,5.31067 -2.92169,7.6975 -2.9223,16.10186 -6.5e-4,8.95416 0.33386,10.54804 3.61786,17.22479 2.47513,5.03217 5.49803,9.00477 9.56376,12.57029 l 5.94434,5.21312 0.0134,7.85585 c 0.0126,7.17511 0.26399,8.05254 2.89801,10.12445 2.57456,2.02515 4.37864,2.2686 16.81758,2.2686 12.43895,0 14.24303,-0.24345 16.81758,-2.2686 2.63401,-2.07191 2.8849,-2.94934 2.89749,-10.12445 l 0.014,-7.85585 5.94434,-5.21312 c 4.06075,-3.56117 7.09115,-7.54258 9.56324,-12.56409 3.28475,-6.67227 3.6189,-8.26205 3.6189,-17.22427 0,-8.41344 -0.43196,-10.79576 -2.9223,-16.10858 -3.72822,-7.95367 -11.34644,-15.57241 -19.30012,-19.30063 -5.38562,-2.52445 -7.65154,-2.9223 -16.63309,-2.9223 z m -0.3483,8.62376 c 6.4744,-0.0806 13.17409,1.92846 19.14457,6.4823 10.32793,7.87738 14.01773,23.08838 8.61291,35.50636 -2.50296,5.75074 -8.77251,12.45319 -13.78624,14.7376 -2.52881,1.1522 -2.67787,1.72696 -2.67787,10.34769 v 9.12812 H 139.15297 128.2079 v -9.12812 c 0,-8.62073 -0.14906,-9.19549 -2.67787,-10.34769 -9.34068,-4.25588 -16.31339,-15.86531 -16.24138,-27.04176 0.11319,-17.58185 14.18191,-29.49365 29.51602,-29.6845 z m 0.3483,87.14714 c -6.70103,0 -13.13654,0.51009 -14.30094,1.13326 -2.55897,1.36951 -2.74487,4.64952 -0.39687,6.99751 1.3702,1.3702 4.35905,1.71979 14.69781,1.71979 13.74726,0 16.4176,-0.89618 16.4176,-5.51181 0,-3.39464 -3.57132,-4.33875 -16.4176,-4.33875 z m 0,11.98841 c -7.09728,0 -14.19461,0.45488 -15.1045,1.36478 -1.98611,1.9861 -1.57726,5.07048 0.8754,6.60218 1.20397,0.7519 2.18953,1.98739 2.18953,2.74557 0,0.75817 0.98504,2.36376 2.18901,3.56774 1.77209,1.77209 3.64824,2.18901 9.85056,2.18901 6.20231,0 8.07848,-0.41692 9.85056,-2.18901 1.20398,-1.20398 2.18902,-2.80957 2.18902,-3.56774 0,-0.75818 0.98503,-1.99367 2.18901,-2.74557 2.45265,-1.5317 2.86201,-4.61608 0.87591,-6.60218 -0.90989,-0.9099 -8.00722,-1.36478 -15.1045,-1.36478 z"
       style="fill:#ffffff;fill-opacity:1;stroke-width:1.09452558" />
  </g>
</svg>
