<?xml version="1.0" encoding="UTF-8" standalone="no"?>
<!-- Created with Inkscape (http://www.inkscape.org/) -->

<svg
   xmlns:dc="http://purl.org/dc/elements/1.1/"
   xmlns:cc="http://creativecommons.org/ns#"
   xmlns:rdf="http://www.w3.org/1999/02/22-rdf-syntax-ns#"
   xmlns:svg="http://www.w3.org/2000/svg"
   xmlns="http://www.w3.org/2000/svg"
   xmlns:sodipodi="http://sodipodi.sourceforge.net/DTD/sodipodi-0.dtd"
   xmlns:inkscape="http://www.inkscape.org/namespaces/inkscape"
   width="162.99046mm"
   height="218.91611mm"
   viewBox="0 0 162.99046 218.91611"
   version="1.1"
   id="svg5714"
   inkscape:version="0.92.1 r15371"
   sodipodi:docname="lightbulbOn.svg">
  <defs
     id="defs5708" />
  <sodipodi:namedview
     id="base"
     pagecolor="#ffffff"
     bordercolor="#666666"
     borderopacity="1.0"
     inkscape:pageopacity="0.0"
     inkscape:pageshadow="2"
     inkscape:zoom="0.35"
     inkscape:cx="98.013466"
     inkscape:cy="-757.72883"
     inkscape:document-units="mm"
     inkscape:current-layer="layer1"
     showgrid="false"
     fit-margin-top="0"
     fit-margin-left="0"
     fit-margin-right="0"
     fit-margin-bottom="0"
     inkscape:window-width="3000"
     inkscape:window-height="1881"
     inkscape:window-x="-14"
     inkscape:window-y="-14"
     inkscape:window-maximized="1" />
  <metadata
     id="metadata5711">
    <rdf:RDF>
      <cc:Work
         rdf:about="">
        <dc:format>image/svg+xml</dc:format>
        <dc:type
           rdf:resource="http://purl.org/dc/dcmitype/StillImage" />
        <dc:title></dc:title>
      </cc:Work>
    </rdf:RDF>
  </metadata>
  <g
     inkscape:label="Layer 1"
     inkscape:groupmode="layer"
     id="layer1"
     transform="translate(132.89999,270.5652)">
    <path
       style="fill:#ffffff;fill-opacity:1;stroke-width:0.27154556"
       d="m -68.963407,-51.879309 c -3.88783,-0.67726 -7.068648,-3.40231 -7.956764,-6.81662 -0.432194,-1.66157 -0.248494,-2.53533 0.668615,-3.18021 0.706403,-0.49671 1.249318,-0.50769 25.07982,-0.50769 h 24.357783 l 0.78402,0.60284 c 0.6813,0.52385 0.77949,0.7805 0.74946,1.95893 -0.0941,3.69185 -3.93541,7.29489 -8.482693,7.95647 -2.040951,0.29693 -33.487238,0.28466 -35.200241,-0.0136 z m -5.833205,-14.71067 c -3.832892,-1.40925 -6.267296,-4.35795 -6.267296,-7.59137 0,-0.9652 0.148322,-1.3312 0.741161,-1.82907 l 0.741148,-0.62243 h 28.387143 28.387153 l 0.74115,0.62243 c 1.90056,1.59607 0.15202,6.12895 -3.20181,8.30027 -2.77971,1.79966 -1.7686,1.73264 -26.049463,1.72588 l -21.848302,-0.006 -1.630884,-0.59961 z m -3.108023,-13.74624 c -3.906534,-1.08068 -6.889499,-4.2595 -7.125293,-7.59312 -0.09911,-1.40166 -0.03973,-1.59826 0.659238,-2.18228 l 0.76821,-0.64186 h 32.408024 32.408033 l 0.7682,0.64186 c 0.69899,0.58402 0.75839,0.78062 0.65925,2.18228 -0.20378,2.88095 -2.45227,5.68411 -5.62598,7.01381 l -1.64292,0.68835 -26.279383,0.0448 c -14.45364,0.0247 -26.602475,-0.0446 -26.997379,-0.15382 z m -8.161991,-14.71565 c -0.0571,-0.1776 -0.244716,-2.69131 -0.416822,-5.586051 -0.689036,-11.58884 -2.973674,-20.73536 -7.72754,-30.93702 -1.52,-3.2619 -5.454624,-10.24753 -7.664152,-13.60717 -0.83581,-1.27086 -2.81109,-4.2747 -4.3895,-6.67521 -5.3055,-8.06877 -7.20276,-11.20694 -9.58585,-15.85547 -8.74974,-17.06754 -9.70123,-35.87294 -2.66892,-52.74956 4.57645,-10.98292 13.74657,-21.84672 24.24402,-28.72177 3.040821,-1.99151 3.608345,-2.33259 6.03133,-3.62477 12.517475,-6.67557 26.477484,-9.73874 41.214093,-9.0434 11.554111,0.54518 23.875284,3.9639 33.361344,9.25669 8.2135201,4.58277 16.0679801,11.14373 21.1695401,17.68328 6.2793699,8.04935 10.4716499,17.0454 12.2313899,26.24682 2.02415,10.584 1.07944,22.26737 -2.63169,32.54637 -2.7757,7.68801 -5.03515,11.70929 -16.15657986,28.75474 -11.46623014,17.57394 -15.81948014,29.62084 -16.83859014,46.59811 -0.178,2.965321 -0.36928,5.534121 -0.42505,5.708391 -0.15026,0.46955 -69.595954,0.47554 -69.747023,0.006 z m 16.684487,-13.224031 c -0.160644,-6.60834 -0.737026,-15.88509 -1.192395,-19.19123 -0.807506,-5.86279 -1.338609,-9.65462 -1.456375,-10.39792 -0.242872,-1.5329 -2.670871,-13.52708 -3.586062,-17.71498 -3.116122,-14.25929 -4.475369,-22.23353 -4.006355,-23.5039 0.189865,-0.51427 1.593519,-1.94844 3.708852,-3.78946 4.836843,-4.20962 5.824715,-4.34076 9.508067,-1.26237 1.136192,0.9496 2.587511,2.04425 3.22517,2.43255 2.250332,1.37041 4.264671,0.81789 7.678682,-2.10612 2.149999,-1.84141 3.081348,-2.32051 4.513199,-2.32165 1.09941,-8e-4 1.41524,0.16614 3.446481,1.82262 5.34397,4.35802 6.51219,4.38402 11.465139,0.25524 3.839983,-3.201 4.694623,-3.09608 9.602273,1.17887 2.11048,1.83838 3.52174,3.28069 3.71059,3.79223 0.4659,1.26193 -0.89266,9.22797 -4.00813,23.50199 -1.72674,7.91126 -3.45161,16.91482 -4.15617,21.69443 -1.31041,8.88962 -2.159573,20.18088 -2.167322,28.81893 l -0.004,4.42875 h 5.300312 5.3003 l 0.13554,-0.83439 c 0.0746,-0.45894 0.27594,-2.33633 0.44754,-4.17202 0.41547,-4.44464 1.02968,-8.02636 2.06926,-12.06672 2.8918,-11.23918 6.96634,-19.77004 16.3030601,-34.13372 2.48274,-3.81946 5.14198,-7.92653 5.9094,-9.12677 6.76739,-10.58422 10.2857599,-19.3475 11.5447399,-28.75476 0.55477,-4.14533 0.37764,-13.9295 -0.31374,-17.32986 -2.65854,-13.07542 -8.9365899,-23.75967 -19.1644299,-32.61487 -7.2806401,-6.30353 -14.7627901,-10.40441 -24.8034801,-13.59452 -2.0836,-0.662 -7.701163,-1.87412 -10.913831,-2.35491 -4.424979,-0.66223 -14.98531,-0.66684 -19.673631,-0.009 -14.436188,2.02685 -27.114426,7.87378 -37.204251,17.15777 -9.418484,8.66629 -15.376874,19.15992 -17.837824,31.41513 -0.68413,3.40685 -0.83869,13.47729 -0.26797,17.45824 0.93253,6.50448 2.48462,11.57277 5.45581,17.81565 2.50538,5.26413 3.53769,6.97549 12.948238,21.46539 11.055901,17.02332 16.023752,29.75125 17.386123,44.54419 0.17557,1.90629 0.380198,3.84144 0.45475,4.30038 l 0.135549,0.83439 h 5.346279 5.34629 l -0.185663,-7.63798 z m 29.794713,1.79717 c 0.59517,-19.02549 1.920859,-28.99686 6.920543,-52.0538 1.40593,-6.48366 2.91868,-14.19831 3.34315,-17.04919 l 0.35959,-2.41508 -1.0917,-0.84359 c -2.21475,-1.71139 -3.497223,-1.39508 -6.161622,1.51971 -4.119872,4.50702 -5.543171,4.79362 -9.08926,1.83028 -3.137652,-2.62201 -4.342072,-3.29486 -5.897851,-3.29486 -1.54377,0 -2.16879,0.34768 -5.578901,3.10354 -3.913899,3.16297 -5.204479,2.93767 -9.38797,-1.63896 -2.64736,-2.89614 -3.883347,-3.21306 -6.115793,-1.56809 l -1.09129,0.8041 0.184285,1.60795 c 0.277606,2.42217 1.71767,9.83448 3.610875,18.58604 4.851204,22.42516 6.227273,32.80618 6.780945,51.15522 l 0.183989,6.09754 h 11.424139 11.42415 z"
       id="path4535"
       inkscape:connector-curvature="0" />
    <path
       style="fill:#f8f520;fill-opacity:1;stroke-width:0.30287954"
       d="m -107.71829,-136.5702 c -0.44522,-0.70799 -2.94492,-4.55834 -5.55486,-8.55635 -9.79792,-15.00882 -12.82011,-20.59096 -15.72869,-29.05173 -7.10821,-20.67715 -4.40673,-42.80319 7.38056,-60.44918 12.30244,-18.41717 31.856739,-30.74161 54.992684,-34.66009 23.076349,-3.90839 47.220373,1.26379 65.1545931,13.95752 8.32271,5.89077 14.8945499,12.48625 19.8738899,19.94537 8.62571,12.92147 12.46871,26.91677 11.56037,42.10027 -0.58586,9.79256 -2.87296,18.51519 -7.22697,27.56203 -2.3823,4.95006 -4.72201,8.88146 -12.58671,21.14937 l -5.7547099,8.97662 c -2.70124,3.74912 -8.41336,0.85213 -7.58208,-0.87714 0.59995,-1.16014 3.13753004,-5.18934 8.78697,-13.95195 8.7662899,-13.59707 11.4138899,-18.6204 14.1231799,-26.79614 2.13644,-6.44712 2.72319,-9.99468 2.90864,-17.58616 0.19396,-7.93953 -0.16474,-12.22261 -1.4431,-17.23046 -4.51617,-17.6919 -16.3116399,-32.55639 -33.52665,-42.24977 -8.52378,-4.79957 -20.33906,-8.45605 -30.516164,-9.44389 -5.52241,-0.53604 -17.186508,-0.19734 -21.958779,0.63763 -16.339156,2.85872 -30.00461,9.64575 -41.149924,20.43736 -9.05934,8.77183 -15.10261,19.06809 -18.07559,30.79643 -1.12531,4.43934 -1.36399,6.93108 -1.38787,14.48916 -0.0179,5.65971 0.0895,7.47309 0.63361,10.69481 1.2129,7.18227 3.14347,12.85618 6.97523,20.50004 2.10166,4.19256 3.60382,6.67265 11.19126,18.47691 5.6016,8.71474 7.221723,11.184 7.221723,11.49817 0.208727,2.64852 -6.784853,2.82154 -7.501093,0.91985 z"
       id="path5633"
       inkscape:connector-curvature="0"
       sodipodi:nodetypes="cscsssscccccsccccsssscccsccc" />
  </g>
</svg>
