<?xml version="1.0" encoding="UTF-8" standalone="no"?>
<svg
   xmlns:dc="http://purl.org/dc/elements/1.1/"
   xmlns:cc="http://creativecommons.org/ns#"
   xmlns:rdf="http://www.w3.org/1999/02/22-rdf-syntax-ns#"
   xmlns:svg="http://www.w3.org/2000/svg"
   xmlns="http://www.w3.org/2000/svg"
   id="svg8"
   version="1.1"
   viewBox="0 0 200 200"
   height="200mm"
   width="200mm">
  <defs
     id="defs2" />
  <metadata
     id="metadata5">
    <rdf:RDF>
      <cc:Work
         rdf:about="">
        <dc:format>image/svg+xml</dc:format>
        <dc:type
           rdf:resource="http://purl.org/dc/dcmitype/StillImage" />
        <dc:title></dc:title>
      </cc:Work>
    </rdf:RDF>
  </metadata>
  <g
     transform="translate(0,-97)"
     id="layer1">
    <path
       id="path4509" fill="#ffffff"
       d="M 86.222674,287.09074 C 85.207033,285.96845 85.02262,283.9071 85.02262,273.67614 V 261.5876 H 51.667424 c -32.671023,0 -33.385722,-0.0305 -34.843253,-1.48806 -1.471824,-1.47182 -1.485505,-1.94423 -1.254722,-43.3255 l 0.233326,-41.83744 1.928648,-5.31865 c 2.731901,-7.53376 6.021143,-12.74935 11.488407,-18.21661 5.455847,-5.45584 10.661105,-8.74264 18.216619,-11.50262 l 5.318649,-1.94288 h 54.383512 54.38347 l 5.8009,1.97551 c 15.19827,5.17579 26.81252,16.52896 31.73046,31.01714 1.5644,4.60866 1.60492,5.63346 1.8267,46.19282 0.22405,40.97371 0.20872,41.4977 -1.25653,42.96295 -1.45138,1.45138 -2.20197,1.48334 -34.83853,1.48334 h -33.35519 v 12.21453 c 0,10.91235 -0.14137,12.34247 -1.32604,13.41459 -1.76222,1.59479 -3.43552,1.51428 -5.19998,-0.25017 -1.33303,-1.33304 -1.45023,-2.41705 -1.45023,-13.41459 V 261.5876 H 108.22627 92.998863 v 11.96436 c 0,10.99754 -0.117188,12.08155 -1.450226,13.41459 -1.806365,1.80636 -3.762336,1.85197 -5.325963,0.12419 z m 14.027316,-71.47143 c 0,-35.70989 -0.0856,-38.26887 -1.423883,-42.60038 -2.825198,-9.14358 -8.820613,-17.02573 -16.482251,-21.66917 -6.791763,-4.11624 -12.605076,-5.74279 -20.52485,-5.74279 -17.403872,0 -31.84168,10.69439 -37.007093,27.41196 -1.338365,4.33151 -1.423894,6.89049 -1.423894,42.60038 v 37.99204 h 38.430987 38.430984 z m -64.390028,29.14567 c -1.121691,-1.12169 -1.121691,-4.38917 0,-5.51086 1.246879,-1.24688 50.671218,-1.24688 51.918087,0 1.121691,1.12169 1.121691,4.38917 0,5.51086 -1.246869,1.24687 -50.671208,1.24687 -51.918087,0 z M 193.06449,216.22657 c 0,-25.38478 -0.26394,-38.47702 -0.82229,-40.78759 -2.36428,-9.78385 -10.5681,-20.06024 -19.9336,-24.96951 -9.27177,-4.86013 -9.67079,-4.89994 -49.11897,-4.89994 H 87.792844 l 3.723957,2.94361 c 3.764657,2.9758 9.250959,9.79618 11.634809,14.464 0.71422,1.39854 2.05522,4.66155 2.97996,7.25113 1.66677,4.66744 1.68352,5.05004 1.92805,44.04571 l 0.24668,39.33737 h 42.3791 42.37909 z m -28.82325,-2.1363 c -1.59835,-1.14377 -1.6315,-1.46121 -1.6315,-15.62862 v -14.46114 h -20.19077 c -19.13151,0 -20.25825,-0.0745 -21.47678,-1.42101 -1.57048,-1.73535 -1.02666,-4.71271 1.06528,-5.83228 2.24902,-1.20364 61.26605,-0.65384 62.50131,0.58226 1.36164,1.36254 1.36296,35.18118 0.002,36.54568 -0.64192,0.64334 -3.75019,1.01249 -9.78902,1.16262 -7.22508,0.1796 -9.14775,0.006 -10.47993,-0.94751 z m 13.59587,-18.48795 v -11.60181 h -3.98811 -3.98813 v 11.60181 11.6018 h 3.98813 3.98811 z"
       style="stroke-width:0.72511297;fill-opacity:1" />
  </g>
</svg>
