<?xml version="1.0" encoding="UTF-8" standalone="no"?>
<svg
   xmlns:dc="http://purl.org/dc/elements/1.1/"
   xmlns:cc="http://creativecommons.org/ns#"
   xmlns:rdf="http://www.w3.org/1999/02/22-rdf-syntax-ns#"
   xmlns:svg="http://www.w3.org/2000/svg"
   xmlns="http://www.w3.org/2000/svg"
   id="svg8"
   version="1.1"
   viewBox="0 0 200 200">
  <defs
     id="defs2" />
  <metadata
     id="metadata5">
    <rdf:RDF>
      <cc:Work
         rdf:about="">
        <dc:format>image/svg+xml</dc:format>
        <dc:type
           rdf:resource="http://purl.org/dc/dcmitype/StillImage" />
        <dc:title></dc:title>
      </cc:Work>
    </rdf:RDF>
  </metadata>
  <g
     transform="translate(0,-97)"
     id="layer1">
    <path
       id="path4496" fill="#ffffff"
       d="m 86.401823,286.96639 c -1.4281,-1.42809 -1.5625,-2.60417 -1.5625,-13.67188 v -12.10937 h -33.4375 c -24.96528,0 -33.67504,-0.23754 -34.375,-0.9375 -0.67551,-0.67551 -0.9375,-6.02343 -0.9375,-19.13667 V 222.9118 L 8.2768235,202.08465 c -4.29688,-11.45493 -7.81250994,-21.27534 -7.81250994,-21.82314 0,-2.55826 2.38460994,-3.45129 9.23549974,-3.45868 l 6.7801297,-0.007 1.72313,-5.67727 c 3.46671,-11.42196 12.3308,-21.77412 23.27687,-27.18451 10.12106,-5.00261 13.29884,-5.37587 45.89844,-5.39128 l 28.710927,-0.0136 v -14.40883 c 0,-14.00403 0.0487,-14.44299 1.73634,-15.625 1.43293,-1.00366 4.50449,-1.21617 17.57812,-1.21617 19.9765,0 18.96679,-0.63821 18.96679,11.98829 0,12.0653 0.91768,11.44921 -17.0537,11.44921 h -14.1963 v 3.83728 3.83729 l 19.72657,0.32167 c 21.32872,0.34781 22.49954,0.54864 32.37616,5.5535 9.85662,4.99472 18.65963,15.19004 22.71846,26.31164 l 2.13194,5.84174 0.23427,40.91106 c 0.21562,37.65242 0.12819,41.02829 -1.09765,42.38281 -1.26506,1.39788 -3.01204,1.47176 -34.80458,1.47176 h -33.47267 v 12.48199 c 0,12.25322 -0.0338,12.50412 -1.84304,13.68959 -2.25354,1.47658 -4.28607,0.81059 -5.24805,-1.71961 -0.39677,-1.0436 -0.72141,-6.97221 -0.72141,-13.17471 V 261.18514 H 107.88619 92.651823 v 12.4557 c 0,11.98573 -0.0656,12.50159 -1.73634,13.67188 -2.23449,1.5651 -2.6328,1.53454 -4.51366,-0.34633 z m 14.062487,-37.5 v -3.90625 H 63.010423 c -24.12653,0 -37.6257,-0.27799 -37.93673,-0.78125 -1.19311,-1.93049 -1.95312,-0.41045 -1.95312,3.90625 v 4.6875 h 38.67187 38.671867 z m 92.1875,-32.64836 c 0,-39.77519 -0.15981,-41.54057 -4.50044,-49.71503 -2.95735,-5.56939 -11.32577,-13.64092 -16.99337,-16.39049 -8.10997,-3.93446 -11.00565,-4.3518 -30.264,-4.36185 l -17.77344,-0.009 v 20.28501 c 0,19.25562 -0.0767,20.32605 -1.51114,21.09375 -2.05303,1.09875 -2.85279,1.02069 -4.29243,-0.41894 -1.0517,-1.0517 -1.22768,-4.07535 -1.22768,-21.09375 v -19.86607 l -14.25781,0.0248 c -12.777067,0.0223 -14.095537,0.14499 -12.695307,1.18163 5.25995,3.89414 10.893827,10.60732 13.739547,16.37165 5.15668,10.44548 5.37221,12.57869 5.38751,53.32031 l 0.0136,36.13282 h 42.1875 42.1875 z m -140.634897,20.7343 c -0.005,-0.53711 -4.36609,-12.57813 -9.69031,-26.75782 l -9.68041,-25.78125 -11.39146,-0.21613 -11.3914597,-0.21612 2.2480597,6.0755 c 1.23644,3.34153 5.63377,15.04035 9.77184,25.99738 4.13808,10.95703 7.68034,20.36133 7.87169,20.89844 0.25591,0.71832 3.24671,0.97656 11.30994,0.97656 8.25406,0 10.95957,-0.24124 10.95211,-0.97656 z m 31.06249,0 c -0.20052,-0.53711 -4.72056,-12.66075 -10.04452,-26.94141 l -9.67994,-25.96484 -11.22393,-0.0117 c -10.33382,-0.0108 -11.19541,0.0974 -10.86423,1.36377 0.19783,0.75652 4.6782,12.88543 9.95637,26.95313 l 9.59667,25.57763 h 11.31208 c 8.72328,0 11.22865,-0.22349 10.9475,-0.97656 z M 100.46431,211.57576 V 184.62264 H 86.011193 c -7.94922,0 -14.45312,0.12581 -14.45312,0.27958 0,0.50157 19.44802,52.07871 19.93309,52.86358 0.25939,0.4197 2.38447,0.76309 4.72239,0.76309 h 4.250757 z m -0.781237,-35.12694 c 0,-1.23356 -3.68915,-9.91323 -5.30887,-12.49048 -4.68903,-7.46107 -13.94184,-13.99905 -23.23922,-16.42071 -12.64883,-3.2946 -26.33345,0.58502 -35.98661,10.20228 -4.5862,4.56914 -8.93484,11.83335 -10.13005,16.92179 l -0.50464,2.14844 h 37.58469 c 20.67159,0 37.5847,-0.16259 37.5847,-0.36132 z m 46.874987,-57.47207 v -3.92713 l -11.52343,0.2162 -11.52344,0.21619 -0.23812,3.71094 -0.23812,3.71094 h 11.76156 11.76155 z"
       style="stroke-width:0.78125;fill-opacity:1" />
  </g>
</svg>
