<?xml version="1.0" encoding="UTF-8" standalone="no"?>
<!-- Created with Inkscape (http://www.inkscape.org/) -->

<svg
   xmlns:dc="http://purl.org/dc/elements/1.1/"
   xmlns:cc="http://creativecommons.org/ns#"
   xmlns:rdf="http://www.w3.org/1999/02/22-rdf-syntax-ns#"
   xmlns:svg="http://www.w3.org/2000/svg"
   xmlns="http://www.w3.org/2000/svg"
   xmlns:sodipodi="http://sodipodi.sourceforge.net/DTD/sodipodi-0.dtd"
   xmlns:inkscape="http://www.inkscape.org/namespaces/inkscape"
   width="200mm"
   height="200mm"
   viewBox="0 0 200 200"
   version="1.1"
   id="svg8"
   inkscape:version="0.92.1 r15371"
   sodipodi:docname="news.svg">
  <defs
     id="defs2" />
  <sodipodi:namedview
     id="base"
     pagecolor="#ffffff"
     bordercolor="#666666"
     borderopacity="1.0"
     inkscape:pageopacity="0.0"
     inkscape:pageshadow="2"
     inkscape:zoom="1.979899"
     inkscape:cx="364.61384"
     inkscape:cy="350.1939"
     inkscape:document-units="mm"
     inkscape:current-layer="layer1"
     showgrid="false"
     inkscape:window-width="3000"
     inkscape:window-height="1881"
     inkscape:window-x="-14"
     inkscape:window-y="-14"
     inkscape:window-maximized="1" />
  <metadata
     id="metadata5">
    <rdf:RDF>
      <cc:Work
         rdf:about="">
        <dc:format>image/svg+xml</dc:format>
        <dc:type
           rdf:resource="http://purl.org/dc/dcmitype/StillImage" />
        <dc:title></dc:title>
      </cc:Work>
    </rdf:RDF>
  </metadata>
  <g
     inkscape:label="Layer 1"
     inkscape:groupmode="layer"
     id="layer1"
     transform="translate(0,-97)">
    <path
       style="fill:#ffffff;stroke-width:0.11147314;fill-opacity:1"
       d="m 31.552264,297.00697 c -5.569873,-0.3135 -10.6571,-2.85737 -14.612198,-7.30687 -3.470741,-3.90458 -5.482662,-8.40608 -6.327129,-14.15636 -0.166607,-1.1345 -0.18122,-5.58287 -0.212633,-64.71051 -0.02228,-41.99684 0.002,-64.01847 0.07241,-65.04653 0.177007,-2.59184 0.658275,-4.67027 1.585701,-6.84802 2.226913,-5.22915 6.456023,-8.95399 11.628276,-10.24173 0.924995,-0.2303 1.450365,-0.26458 4.975376,-0.32467 l 3.941174,-0.0671 0.06187,-7.56706 0.06188,-7.56705 0.270255,-1.30059 c 1.357543,-6.53307 5.315496,-11.56962 10.80477,-13.749225 1.235545,-0.490589 2.715896,-0.834687 4.176946,-0.970895 1.685855,-0.157166 123.117521,-0.156214 124.803901,9.81e-4 3.06528,0.285725 5.47981,1.232747 8.06074,3.161559 1.64281,1.22775 3.34926,3.1475 4.44059,4.99568 1.76218,2.98426 2.57107,5.65075 2.81554,9.28131 0.0775,1.15046 0.10097,25.76123 0.077,80.6955 -0.0324,74.31004 -0.0454,79.11447 -0.21662,80.28156 -0.83762,5.71033 -2.86538,10.24167 -6.32453,14.13323 -3.47066,3.90449 -7.46907,6.16635 -12.58343,7.1183 -1.01206,0.18838 -5.52399,0.2023 -68.97613,0.21282 -37.341285,0.006 -68.177003,-0.005 -68.523827,-0.0242 z M 168.67409,284.1767 c 2.0525,-0.63787 3.75166,-1.76179 5.19728,-3.43778 1.42291,-1.64965 2.30693,-3.39026 2.85458,-5.62057 l 0.28179,-1.14756 v -79.63137 -79.63137 l -0.24295,-0.79104 c -0.64654,-2.10508 -2.16852,-3.67812 -4.03869,-4.17417 -0.57618,-0.15283 -8.32561,-0.17452 -62.35042,-0.17452 -54.024802,0 -61.774234,0.0217 -62.350401,0.17452 -2.087232,0.55362 -3.727547,2.45777 -4.175417,4.84697 -0.135852,0.72474 -0.155366,10.22938 -0.156966,76.44374 -0.002,66.58215 -0.02056,75.69684 -0.158323,76.29203 -0.640877,2.76805 -2.840771,4.69432 -5.361138,4.69432 -2.520378,0 -4.720272,-1.92627 -5.361139,-4.69432 -0.137654,-0.59453 -0.1565,-8.25513 -0.1565,-63.61131 V 140.7789 l -2.969017,0.002 c -3.319284,0.002 -3.97523,0.0953 -5.123522,0.72677 -0.884965,0.48664 -1.960172,1.68134 -2.404628,2.67185 -0.701335,1.56299 -0.647288,-4.21409 -0.617606,66.02502 l 0.02694,63.76618 0.28178,1.14756 c 0.547659,2.23031 1.431682,3.97091 2.854583,5.62057 1.290109,1.49568 2.725528,2.52341 4.416173,3.1619 1.796157,0.67832 -3.411955,0.63308 70.482638,0.61216 l 68.050893,-0.0192 z M 56.46046,271.74172 c -0.931294,-0.48893 -1.629013,-1.68645 -1.629013,-2.79593 0,-1.08425 0.717466,-2.319 1.62317,-2.79346 l 0.531335,-0.27835 h 22.858787 22.858801 l 0.52627,0.27571 c 1.25042,0.65508 1.85979,2.18721 1.47196,3.701 -0.13988,0.54597 -0.29119,0.81606 -0.71983,1.28494 -0.33124,0.36232 -0.71127,0.65027 -0.97529,0.73896 -0.3364,0.113 -5.501311,0.14505 -23.226652,0.14416 l -22.794046,-0.001 -0.525492,-0.27587 z m 61.03244,-0.0266 c -1.03924,-0.58259 -1.5487,-1.59936 -1.47156,-2.93688 0.0265,-0.4606 0.12769,-1.00952 0.22472,-1.21984 0.22222,-0.48164 0.80857,-1.1462 1.25167,-1.41862 0.32208,-0.19802 1.54977,-0.20898 23.4089,-0.20898 22.08053,0 23.08542,0.009 23.45256,0.21475 0.49548,0.27742 1.07715,0.93512 1.31065,1.48197 0.2346,0.54943 0.30603,1.59133 0.15294,2.23093 -0.17311,0.72322 -0.71395,1.45048 -1.36188,1.83126 l -0.56184,0.3302 h -22.93125 -22.93125 z m -60.468821,-18.4591 c -0.152439,-0.0267 -0.530484,-0.21892 -0.840112,-0.42708 -0.970212,-0.65224 -1.507765,-2.02877 -1.265652,-3.24102 0.22758,-1.13948 1.024633,-2.08979 2.011463,-2.3982 0.522302,-0.16323 45.322182,-0.15869 45.844952,0.005 0.6658,0.20803 1.35449,0.8265 1.70371,1.52996 0.27465,0.55323 0.32077,0.7675 0.31811,1.47794 -0.005,1.24134 -0.46938,2.13117 -1.4235,2.72569 l -0.56441,0.35172 -22.753698,0.0125 c -12.514535,0.007 -22.878423,-0.009 -23.030863,-0.0361 z m 60.862891,-0.0988 c -0.26189,-0.0908 -0.68215,-0.36349 -0.9339,-0.60592 -1.48616,-1.4311 -1.19276,-4.09253 0.56928,-5.16416 l 0.42038,-0.25566 22.74902,-0.0309 c 25.23579,-0.0342 23.38951,-0.0919 24.27314,0.75892 1.62755,1.56727 1.06458,4.62239 -0.97749,5.30462 -0.76448,0.25541 -45.36331,0.24872 -46.10043,-0.007 z M 56.71113,234.37625 c -1.067207,-0.42905 -1.879683,-1.68616 -1.879683,-2.90832 0,-1.08163 0.722074,-2.34639 1.618218,-2.83444 0.444437,-0.24205 0.474118,-0.24235 23.395074,-0.24235 22.920971,0 22.950651,0 23.395101,0.24235 0.24476,0.13329 0.63566,0.47504 0.86868,0.75945 1.31353,1.60314 0.72256,4.2397 -1.11575,4.97772 -0.57369,0.23033 -45.709099,0.23577 -46.28164,0.005 z m 61.12159,0.007 c -0.62289,-0.27079 -1.08457,-0.68507 -1.42119,-1.2752 -0.45106,-0.79079 -0.55214,-2.02462 -0.23222,-2.83467 0.29778,-0.75398 0.69419,-1.22996 1.31359,-1.57719 l 0.54366,-0.30479 h 22.93125 22.93125 l 0.56184,0.3302 c 1.97598,1.1613 1.9319,4.40967 -0.075,5.52992 -0.40164,0.22419 -0.89072,0.22943 -23.32158,0.24996 -17.36298,0.0159 -22.98888,-0.0128 -23.23155,-0.11823 z M 57.024079,215.7751 c -0.152439,-0.0265 -0.530484,-0.21855 -0.840112,-0.4267 -0.970212,-0.65225 -1.507765,-2.02878 -1.265652,-3.24104 0.228998,-1.1466 1.033747,-2.10009 2.026218,-2.40074 0.247662,-0.075 19.154035,-0.10522 53.706657,-0.0858 l 53.32442,0.03 0.42039,0.25567 c 2.09019,1.27118 2.00261,4.59903 -0.15001,5.70044 -0.34491,0.17648 -4.71396,0.19311 -53.6601,0.20424 -29.306563,0.007 -53.409371,-0.009 -53.561811,-0.0361 z m -0.32736,-18.88496 c -1.54416,-0.61994 -2.289273,-2.69398 -1.551948,-4.31991 0.239054,-0.52714 0.938444,-1.25754 1.45867,-1.52332 0.354125,-0.18092 4.341275,-0.19543 53.719699,-0.19543 43.52759,0 53.40814,0.0283 53.72299,0.15389 1.89061,0.75406 2.48614,3.35791 1.14952,5.02605 -0.20859,0.26034 -0.61573,0.59749 -0.90475,0.74922 l -0.52549,0.27588 -53.33717,-0.004 c -44.286633,-0.003 -53.4041,-0.0309 -53.731521,-0.16235 z m 61.508761,-18.62722 c -1.34208,-0.32531 -2.20644,-1.50924 -2.20372,-3.01847 0.002,-1.18798 0.56985,-2.24024 1.52059,-2.81845 l 0.42038,-0.25567 h 23.01644 23.01644 l 0.42039,0.25567 c 2.029,1.23397 2.03608,4.37233 0.0126,5.57323 l -0.53807,0.31933 -22.6486,0.0167 c -12.45672,0.009 -22.81411,-0.0234 -23.01643,-0.0724 z m -59.263408,-0.19035 c -1.964009,-0.59421 -3.527178,-2.46925 -3.955837,-4.74508 -0.223428,-1.18621 -0.226861,-45.09343 -0.004,-46.27828 0.438259,-2.32606 2.182536,-4.28836 4.250123,-4.7814 1.038618,-0.24767 40.185403,-0.24767 41.224012,0 1.85288,0.44184 3.33229,1.91755 4.0755,4.06527 l 0.27325,0.78967 0.0294,22.52379 c 0.0196,15.11584 -0.006,22.796 -0.0797,23.35144 -0.23888,1.81329 -1.39616,3.67687 -2.80967,4.52444 -1.31482,0.78838 0.22088,0.73782 -22.14907,0.72924 -17.36997,-0.007 -20.369529,-0.0324 -20.854311,-0.17909 z M 93.717658,150.17859 V 134.51245 H 79.844739 65.97182 v 15.66614 15.66616 h 13.872919 13.872919 z m 24.142852,9.23033 c -0.611,-0.24608 -1.06466,-0.64502 -1.44325,-1.26918 -0.29264,-0.48243 -0.3527,-0.70115 -0.39469,-1.43722 -0.0395,-0.69256 -0.008,-0.97386 0.15674,-1.39048 0.29455,-0.74585 0.71206,-1.25475 1.33046,-1.62176 l 0.53807,-0.31933 h 22.91133 22.91134 l 0.57804,0.36679 c 1.98824,1.26166 1.95932,4.30222 -0.0526,5.52576 l -0.42039,0.25568 -22.85879,0.0249 c -19.00047,0.0208 -22.92588,-0.002 -23.25631,-0.13518 z m -0.36761,-18.93479 c -1.03924,-0.58261 -1.5487,-1.59938 -1.47156,-2.93691 0.0265,-0.46058 0.12769,-1.0095 0.22472,-1.21982 0.24143,-0.52325 0.79349,-1.12346 1.28643,-1.39861 0.40202,-0.2244 0.87214,-0.22899 23.42668,-0.22899 22.02976,0 23.03289,0.009 23.40002,0.21475 0.49548,0.27741 1.07715,0.93511 1.31065,1.48196 0.2346,0.54944 0.30603,1.59133 0.15294,2.23093 -0.17311,0.72322 -0.71395,1.45048 -1.36188,1.83127 l -0.56184,0.33019 h -22.93125 -22.93125 z"
       id="path4496"
       inkscape:connector-curvature="0" />
  </g>
</svg>
