<?xml version="1.0" encoding="UTF-8" standalone="no"?>
<svg
   xmlns:dc="http://purl.org/dc/elements/1.1/"
   xmlns:cc="http://creativecommons.org/ns#"
   xmlns:rdf="http://www.w3.org/1999/02/22-rdf-syntax-ns#"
   xmlns:svg="http://www.w3.org/2000/svg"
   xmlns="http://www.w3.org/2000/svg"
   id="svg8"
   version="1.1"
   viewBox="0 0 256.29904 255.94502"
   height="255.94502mm"
   width="256.29904mm">
  <defs
     id="defs2" />
  <metadata
     id="metadata5">
    <rdf:RDF>
      <cc:Work
         rdf:about="">
        <dc:format>image/svg+xml</dc:format>
        <dc:type
           rdf:resource="http://purl.org/dc/dcmitype/StillImage" />
        <dc:title></dc:title>
      </cc:Work>
    </rdf:RDF>
  </metadata>
  <g
     transform="translate(288.9372,-41.470339)"
     id="layer1">
    <path
       id="path4518" fill="#ffffff"
       d="m -171.10982,297.26108 c -6.17297,-0.55532 -11.74759,-1.35448 -15.74271,-2.25682 -1.09141,-0.24651 -2.46063,-0.54664 -3.04271,-0.66697 -3.02379,-0.62506 -9.74762,-2.49686 -11.37708,-3.16719 -0.29104,-0.11973 -1.25244,-0.45694 -2.13643,-0.74935 -1.82372,-0.60326 -3.57866,-1.25505 -4.74274,-1.76146 -0.43656,-0.18992 -1.86531,-0.78576 -3.175,-1.3241 -3.964,-1.62938 -12.55061,-6.00589 -14.86434,-7.57621 -0.6083,-0.41285 -1.17263,-0.75064 -1.25406,-0.75064 -0.66348,0 -13.87607,-9.34207 -14.97014,-10.58477 -0.0728,-0.0826 -1.32292,-1.17272 -2.77812,-2.4224 -7.09787,-6.09539 -15.00656,-14.81863 -20.1111,-22.18242 -0.85743,-1.23692 -1.62821,-2.30849 -1.71285,-2.38125 -0.19723,-0.16953 -3.21506,-4.86696 -3.90955,-6.08541 -0.2903,-0.50933 -0.97738,-1.69995 -1.52684,-2.64584 -0.99456,-1.71213 -5.68029,-10.97435 -5.68029,-11.22816 0,-0.0733 -0.29765,-0.78398 -0.66146,-1.57933 -0.3638,-0.79535 -0.66145,-1.51456 -0.66145,-1.59823 0,-0.0837 -0.22937,-0.65684 -0.5097,-1.27372 -0.51706,-1.13781 -2.0965,-5.38256 -2.63244,-7.07472 -0.16132,-0.50933 -0.48437,-1.52136 -0.7179,-2.24896 -0.23353,-0.72761 -0.60444,-1.97776 -0.82426,-2.77813 -0.21982,-0.80036 -0.51385,-1.87192 -0.6534,-2.38125 -0.25081,-0.91534 -0.56412,-2.16874 -0.99208,-3.96875 -0.79396,-3.33937 -1.73433,-8.45401 -2.1161,-11.50937 -0.14547,-1.16417 -0.39745,-3.06917 -0.55997,-4.23334 -0.74389,-5.32867 -0.58576,-21.4862 0.28096,-28.70729 0.39029,-3.25166 0.75817,-5.90206 0.93648,-6.74687 0.0921,-0.43656 0.40885,-1.98438 0.70379,-3.43959 0.29494,-1.4552 0.63498,-3.06255 0.75563,-3.57187 0.12066,-0.50932 0.33238,-1.40229 0.4705,-1.98438 0.13812,-0.58208 0.45402,-1.7727 0.702,-2.64583 0.82566,-2.90715 0.96571,-3.43441 1.10773,-4.17043 0.0776,-0.40196 0.24635,-0.79594 0.37509,-0.87551 0.12875,-0.0796 0.23408,-0.34347 0.23408,-0.58646 0,-0.24298 0.30777,-1.27775 0.68393,-2.29949 0.37617,-1.02173 0.92564,-2.51254 1.22105,-3.3129 0.29541,-0.80037 0.76155,-1.95993 1.03586,-2.57681 0.27431,-0.61687 0.49875,-1.18895 0.49875,-1.27128 0,-0.14686 0.26722,-0.7663 1.93539,-4.48629 1.53521,-3.42349 4.78017,-9.5559 7.00021,-13.22916 2.45134,-4.055993 7.57378,-11.197711 10.91201,-15.213547 5.46401,-6.57312 14.53959,-15.349217 20.31383,-19.643484 0.83074,-0.617816 1.56996,-1.19248 1.64272,-1.277033 0.0728,-0.08456 2.03729,-1.467779 4.36563,-3.073831 7.93147,-5.471025 15.68549,-9.621973 24.60624,-13.172422 1.74625,-0.695005 3.53219,-1.413367 3.96875,-1.596361 0.43657,-0.182993 1.27,-0.474132 1.85209,-0.646976 0.58208,-0.172844 1.29646,-0.415091 1.5875,-0.538327 0.29104,-0.123235 0.76729,-0.28188 1.05833,-0.352542 0.29104,-0.07066 1.77932,-0.497774 3.30729,-0.949136 4.19241,-1.238439 5.6594,-1.615539 8.86354,-2.278438 1.16417,-0.240852 2.29526,-0.499536 2.51355,-0.574853 0.21828,-0.07532 1.11125,-0.243017 1.98437,-0.372665 0.87313,-0.129649 2.42094,-0.361892 3.43958,-0.516095 2.66352,-0.403206 5.5129,-0.698709 10.18646,-1.056416 4.76398,-0.364627 19.26313,-0.189248 22.75417,0.275231 6.70259,0.891773 9.27935,1.289499 11.37708,1.756073 0.94589,0.210382 2.31511,0.507584 3.04271,0.660448 2.60716,0.547747 4.19999,0.963573 8.06979,2.106715 1.52797,0.451362 3.01625,0.878474 3.30729,0.949136 0.29104,0.07066 0.76729,0.223511 1.05834,0.339663 0.58945,0.235245 4.06019,1.491177 5.29166,1.914855 0.43656,0.150196 1.15094,0.426374 1.5875,0.61373 0.43656,0.187355 1.56766,0.661979 2.51354,1.054719 7.78829,3.233766 15.91357,7.695561 23.01875,12.640168 2.11006,1.468417 3.89599,2.737624 3.96875,2.820454 0.0728,0.08283 0.78714,0.637363 1.5875,1.232289 4.91764,3.65538 13.68679,11.919972 18.2199,17.171557 1.25612,1.455208 2.34743,2.705364 2.42514,2.778125 1.3291,1.244433 8.37585,11.199251 10.76927,15.213543 2.46877,4.14068 6.19126,11.25024 7.55004,14.41979 0.21835,0.50932 0.64897,1.49029 0.95695,2.17993 0.30797,0.68964 0.55995,1.32649 0.55995,1.41522 0,0.0887 0.16504,0.53652 0.36676,0.99507 0.20171,0.45856 0.60832,1.48858 0.90356,2.28895 0.29525,0.80036 0.84459,2.29117 1.22075,3.3129 0.37616,1.02174 0.68393,2.05651 0.68393,2.29949 0,0.24299 0.10534,0.5069 0.23408,0.58646 0.12874,0.0796 0.29325,0.47355 0.36558,0.87551 0.0723,0.40197 0.48853,1.981 0.92489,3.50897 0.43636,1.52797 0.87248,3.13532 0.96917,3.57188 0.0967,0.43656 0.27463,1.21047 0.39543,1.71979 0.12079,0.50932 0.46094,2.11667 0.75588,3.57187 0.29495,1.45521 0.61165,3.00303 0.7038,3.43959 0.0921,0.43656 0.28695,1.68672 0.43291,2.77812 1.12769,8.43222 1.38242,13.09028 1.22263,22.35729 -0.0778,4.51115 -0.27567,9.15459 -0.43975,10.31875 -0.16408,1.16417 -0.41794,3.1287 -0.56413,4.36563 -0.28277,2.39262 -0.43701,3.28455 -1.32681,7.67292 -0.59615,2.94007 -0.90085,4.3124 -1.29243,5.82083 -0.13221,0.50932 -0.35174,1.40229 -0.48783,1.98438 -0.13609,0.58208 -0.3652,1.41552 -0.50913,1.85208 -0.14393,0.43656 -0.53294,1.68672 -0.86446,2.77812 -1.04464,3.43908 -2.48848,7.53276 -3.32691,9.4327 -0.20235,0.45855 -0.36792,0.90206 -0.36792,0.98556 0,0.0835 -0.35719,0.93169 -0.79375,1.88487 -0.43656,0.95317 -0.79375,1.78792 -0.79375,1.85499 0,0.48607 -4.66096,9.48238 -7.11634,13.73555 -1.64998,2.85807 -6.25603,9.56799 -8.73161,12.71988 -6.88112,8.76101 -16.12718,17.85215 -24.673,24.25959 -2.43438,1.82524 -10.6456,7.35811 -10.92001,7.35811 -0.0898,0 -0.66695,0.31834 -1.28252,0.70741 -3.55791,2.24878 -11.00751,5.87567 -16.72964,8.14493 -1.74625,0.69252 -3.41313,1.36259 -3.70417,1.48904 -0.29104,0.12645 -1.12448,0.41721 -1.85208,0.64614 -0.72761,0.22892 -1.56104,0.51669 -1.85208,0.6395 -1.03119,0.43509 -6.68076,2.08261 -9.26042,2.70051 -2.54178,0.60881 -7.93408,1.71849 -9.92188,2.0418 -1.6455,0.26764 -2.62008,0.40791 -7.67291,1.10437 -2.68868,0.37059 -20.53297,0.55681 -23.94479,0.24988 z m 15.21354,-9.89775 c 7.93857,-1.94975 15.45377,-6.7881 22.225,-14.30865 3.62935,-4.03098 7.8629,-10.01908 10.47473,-14.81587 0.15855,-0.29119 0.76825,-1.4224 1.35489,-2.51381 1.15688,-2.15232 1.81171,-3.33794 3.03734,-5.4994 0.43611,-0.7691 0.73209,-1.5569 0.65773,-1.75068 -0.0894,-0.2329 -0.8376,-0.40217 -2.20755,-0.49939 -1.13979,-0.0809 -4.15594,-0.34248 -6.70256,-0.58129 -2.54661,-0.23882 -6.41614,-0.54387 -8.59896,-0.6779 -5.34551,-0.32824 -21.61294,-0.81409 -22.02656,-0.65786 -0.26064,0.0984 -0.33073,4.43984 -0.33073,20.4845 0,11.19777 0.0723,20.54791 0.1606,20.77809 0.19018,0.49561 0.11668,0.49402 1.95607,0.0423 z m -11.7062,-20.59197 -0.0678,-20.70365 -6.61458,0.073 c -7.38646,0.0815 -16.19061,0.59139 -24.34167,1.40985 -1.30969,0.13151 -3.43335,0.31526 -4.71924,0.40834 -1.45909,0.10563 -2.38462,0.29076 -2.46204,0.4925 -0.11224,0.2925 0.47084,1.5168 1.76297,3.70178 0.25817,0.43656 0.87009,1.56766 1.35981,2.51354 2.9394,5.67737 7.86355,13.34559 11.05912,17.22198 3.1558,3.82815 7.29846,7.70763 11.12272,10.4161 3.57933,2.53501 9.66564,5.09815 12.23921,5.15433 l 0.72922,0.0159 -0.0678,-20.70364 z m -25.25086,16.82668 c 0.095,-0.095 -0.68928,-1.0773 -1.74291,-2.18281 -1.63707,-1.71766 -4.01529,-4.43267 -5.49469,-6.2728 -0.72899,-0.90675 -4.12748,-5.75615 -5.07845,-7.24659 -3.02013,-4.7334 -9.19981,-16.62645 -9.19981,-17.7054 0,-0.41799 -0.66072,-0.4931 -2.12521,-0.24159 -0.79566,0.13665 -2.16104,0.36223 -3.03416,0.50129 -3.35091,0.53369 -6.19244,1.07877 -8.86354,1.70026 -0.94589,0.22008 -2.31511,0.53109 -3.04271,0.69114 -2.57251,0.56587 -3.19679,0.7203 -5.29167,1.30902 -1.16416,0.32717 -2.59291,0.72811 -3.175,0.89098 -0.58208,0.16288 -1.29646,0.43854 -1.5875,0.6126 -0.51369,0.30721 -0.50594,0.33803 0.26459,1.05367 8.62247,8.00822 20.97419,16.24826 30.82395,20.56318 3.05354,1.33767 4.09042,1.78585 4.63021,2.00132 0.29104,0.11618 0.94589,0.38827 1.45521,0.60464 0.50932,0.21637 1.40229,0.551 1.98437,0.74362 0.58209,0.19262 1.1774,0.42483 1.32292,0.51601 0.14552,0.0912 1.69333,0.6119 3.43958,1.15713 1.74625,0.54524 3.41313,1.09259 3.70417,1.21633 0.67699,0.28783 0.80009,0.29855 1.01065,0.088 z m 67.11956,-0.75176 c 4.51258,-1.38425 8.55133,-2.87098 11.64166,-4.28551 0.80037,-0.36635 1.93146,-0.85698 2.51355,-1.0903 0.58208,-0.23332 2.53417,-1.17975 4.33798,-2.10319 9.62465,-4.9272 18.60467,-11.13131 26.48597,-18.29859 1.13449,-1.03171 1.16568,-1.09804 0.66146,-1.40689 -0.29104,-0.17827 -1.00542,-0.45738 -1.5875,-0.62026 -0.58208,-0.16287 -2.01083,-0.56487 -3.175,-0.89332 -1.16417,-0.32845 -2.59292,-0.69684 -3.175,-0.81865 -0.58208,-0.1218 -1.53458,-0.33481 -2.11667,-0.47334 -2.17279,-0.5171 -7.71457,-1.70993 -8.86354,-1.9078 -0.65484,-0.11279 -1.96453,-0.33071 -2.91041,-0.48428 -0.94589,-0.15357 -2.34373,-0.39862 -3.10632,-0.54456 -1.38213,-0.2645 -2.18535,-0.16495 -2.18535,0.27085 0,0.49841 -3.01842,6.82091 -4.85262,10.16449 -0.55889,1.0188 -1.44074,2.62627 -1.95968,3.57216 -1.46014,2.66147 -5.51592,8.74925 -7.47365,11.21805 -1.3088,1.65047 -3.83033,4.53186 -5.48699,6.27009 -1.76743,1.85444 -2.16345,2.61876 -1.14296,2.20591 0.22588,-0.0914 1.30366,-0.44007 2.39507,-0.77486 z m -118.06864,-34.70086 c 2.41788,-0.9673 4.82051,-1.86699 5.33917,-1.99929 0.51866,-0.1323 1.35973,-0.36081 1.86905,-0.5078 0.95525,-0.27569 1.39255,-0.38243 4.7625,-1.16248 1.92483,-0.44554 2.72489,-0.59734 6.35,-1.20482 3.06305,-0.51328 4.33935,-0.71656 5.76242,-0.9178 0.76823,-0.10863 1.46771,-0.31227 1.55439,-0.45253 0.16951,-0.27426 -0.38778,-2.28442 -0.74823,-2.69893 -0.12022,-0.13824 -0.21858,-0.46728 -0.21858,-0.73119 0,-0.26391 -0.1123,-0.68658 -0.24957,-0.93927 -0.13727,-0.25269 -0.56507,-1.53099 -0.95066,-2.84068 -0.3856,-1.30969 -0.79526,-2.67891 -0.91037,-3.04271 -0.1151,-0.3638 -0.35596,-1.19724 -0.53523,-1.85208 -0.17927,-0.65485 -0.42564,-1.48828 -0.54748,-1.85209 -0.4029,-1.20304 -0.94403,-3.35677 -1.56223,-6.2177 -0.12577,-0.58209 -0.55024,-2.48709 -0.94325,-4.23334 -0.39301,-1.74625 -0.81887,-3.77031 -0.94636,-4.49791 -0.62536,-3.56902 -0.91506,-5.38459 -1.68873,-10.58334 -0.88578,-5.95201 -1.29775,-10.62314 -1.71514,-19.44687 -0.16176,-3.41974 -0.34442,-6.36654 -0.40591,-6.54844 -0.0884,-0.26143 -5.29361,-0.33073 -24.84081,-0.33073 h -24.72901 l -0.17819,0.56141 c -0.30927,0.97444 0.54275,9.48518 1.46685,14.65213 0.78786,4.40525 1.35347,6.88937 2.77116,12.17084 0.85969,3.20271 3.30511,10.10449 4.52604,12.77398 0.35139,0.7683 0.63889,1.4663 0.63889,1.5511 0,0.33311 3.86301,8.00777 5.34172,10.61241 2.51157,4.42398 8.65672,13.56841 10.00105,14.8823 0.0745,0.0728 0.60443,0.7276 1.17773,1.45521 2.0656,2.62152 4.43695,5.15937 4.82089,5.15937 0.21546,0 2.37001,-0.79143 4.78789,-1.75875 z m 171.44832,1.27567 c 6.54577,-6.82928 13.6743,-17.30953 18.74784,-27.56275 2.64917,-5.35377 6.14113,-14.60012 7.51915,-19.9099 0.14162,-0.5457 0.37549,-1.43867 0.51971,-1.98437 0.76049,-2.87753 1.94242,-8.69872 2.24285,-11.04636 0.90114,-7.04168 1.28724,-11.38674 1.08385,-12.19711 l -0.16466,-0.6561 -24.7479,0.0332 c -18.56453,0.0249 -24.77364,0.11012 -24.85097,0.34118 -0.0567,0.16942 -0.23679,3.106 -0.40021,6.52574 -0.50734,10.6165 -0.9625,15.18506 -2.39877,24.07708 -0.12928,0.80036 -0.35035,2.16958 -0.49127,3.04271 -0.46274,2.86714 -1.13187,6.33609 -1.59485,8.26823 -0.1482,0.61846 -0.38374,1.63049 -0.52343,2.24896 -0.72865,3.22614 -1.6825,6.991 -2.14399,8.4624 -0.286,0.91185 -0.65652,2.13416 -0.82339,2.71624 -0.16687,0.58209 -0.93907,2.98618 -1.71602,5.34245 -0.77694,2.35626 -1.41262,4.38894 -1.41262,4.51707 0,0.12812 0.8632,0.38157 1.91823,0.56321 1.05502,0.18164 2.39447,0.43052 2.97656,0.55307 0.58208,0.12255 1.53458,0.2989 2.11666,0.39189 0.58209,0.093 1.47506,0.27646 1.98438,0.40771 0.50932,0.13125 2.1762,0.53355 3.70417,0.89399 3.9688,0.93624 5.69917,1.37626 7.8052,1.9848 2.41472,0.69774 8.3771,2.78717 9.02203,3.16163 0.7177,0.41673 1.09971,0.37567 1.62745,-0.17494 z m -130.9026,-9.01562 c 7.29138,-0.93254 8.87939,-1.12548 11.24479,-1.3662 6.77587,-0.68954 13.17981,-1.15789 20.0524,-1.46651 2.29757,-0.10317 4.22853,-0.2703 4.29101,-0.3714 0.0813,-0.13151 0.21501,-58.31008 0.13964,-60.74855 -0.007,-0.21369 -7.16829,-0.29272 -26.20284,-0.28914 l -26.19375,0.005 0.007,2.14123 c 0.007,2.4262 0.38132,9.39452 0.78921,14.70893 0.56985,7.42451 1.17636,12.31896 2.40983,19.44688 0.12591,0.7276 0.34667,2.03729 0.49058,2.91041 0.1439,0.87313 0.36896,2.06375 0.50011,2.64584 0.13116,0.58208 0.49899,2.24895 0.81741,3.70416 0.31841,1.45521 0.68174,3.00302 0.8074,3.43959 0.12566,0.43656 0.35091,1.27 0.50055,1.85208 0.87611,3.40771 3.98831,13.09259 4.36741,13.59096 0.29048,0.38186 1.80853,0.33027 5.97969,-0.2032 z m 89.50524,-0.95234 c 0.27276,-0.72761 0.8007,-2.21589 1.1732,-3.30729 0.37249,-1.09141 0.76975,-2.2225 0.8828,-2.51354 0.33312,-0.85765 1.47395,-4.4003 1.83185,-5.68855 0.18193,-0.65484 0.42651,-1.48828 0.54351,-1.85208 0.117,-0.3638 0.41307,-1.37583 0.65792,-2.24896 0.24486,-0.87312 0.5393,-1.88515 0.65431,-2.24896 0.11501,-0.3638 0.35366,-1.37583 0.53034,-2.24895 0.17667,-0.87313 0.41995,-1.88516 0.54062,-2.24896 0.12067,-0.36381 0.35938,-1.31631 0.53047,-2.11667 0.17108,-0.80036 0.41876,-1.93146 0.55041,-2.51354 0.52717,-2.33099 2.00508,-10.55895 2.37623,-13.22917 1.10023,-7.91566 1.91403,-18.76123 1.60811,-21.43125 l -0.18188,-1.5875 h -27.91355 -27.91354 v 30.55938 30.55937 l 3.70417,0.1768 c 11.34078,0.54127 20.1033,1.22535 28.31042,2.21015 1.89177,0.227 4.49304,0.51876 5.78061,0.64836 1.28756,0.1296 2.41377,0.30838 2.50268,0.39729 0.0889,0.0889 0.87574,0.12686 1.74852,0.0843 l 1.58686,-0.0773 z m -115.9236,-73.11838 c 0.0947,-0.0942 0.31339,-3.14777 0.48587,-6.78579 0.55702,-11.74882 0.9632,-15.74188 2.90003,-28.50885 0.13798,-0.90951 0.31009,-1.89177 0.38248,-2.18282 0.0724,-0.29104 0.32487,-1.60073 0.56109,-2.91041 0.23621,-1.30969 0.52667,-2.73844 0.64546,-3.175 0.11879,-0.43657 0.3576,-1.50813 0.53069,-2.38125 0.1731,-0.87313 0.42253,-2.00422 0.5543,-2.51355 0.13177,-0.50932 0.59567,-2.35479 1.03089,-4.10104 1.01158,-4.05886 2.04007,-7.87497 2.53144,-9.39271 0.21201,-0.65484 0.74411,-2.27631 1.18246,-3.60327 0.43834,-1.326964 0.79699,-2.5914 0.79699,-2.809864 0,-0.267764 -0.36646,-0.445312 -1.12448,-0.544814 -0.61847,-0.08118 -2.19604,-0.339339 -3.50573,-0.573678 -1.30969,-0.234341 -3.09563,-0.55078 -3.96875,-0.703201 -3.91283,-0.683051 -6.38907,-1.197523 -8.20208,-1.704092 -0.87313,-0.243956 -1.88516,-0.494403 -2.24896,-0.556548 -0.3638,-0.06215 -1.07818,-0.218882 -1.5875,-0.348306 -0.50933,-0.129421 -1.52136,-0.370474 -2.24896,-0.53567 -1.57965,-0.358645 -3.58693,-0.907547 -6.02219,-1.646798 l -1.78885,-0.543026 -0.67939,0.765363 c -4.95744,5.584749 -10.32585,13.026654 -13.72171,19.021614 -0.32973,0.58209 -0.87077,1.53459 -1.20232,2.11667 -1.6688,2.92979 -4.78483,9.5028 -6.20877,13.09687 -0.54771,1.38245 -1.28006,3.206 -1.62745,4.05234 -0.34739,0.84634 -0.63161,1.71116 -0.63161,1.92182 0,0.21066 -0.10473,0.58977 -0.23273,0.84246 -0.47585,0.93936 -1.99308,5.91213 -2.70324,8.85995 -1.858,7.71234 -2.15562,9.42212 -3.13717,18.02253 -0.31334,2.74549 -0.53358,5.42439 -0.48943,5.95312 l 0.0803,0.96133 23.6802,0.13948 c 23.19209,0.1366 25.6193,0.11484 25.96914,-0.23286 z m 61.91157,0.0279 c 0.36414,-0.36414 0.29832,-64.41663 -0.0664,-64.64205 -0.15524,-0.0959 -4.94532,-0.25124 -10.64462,-0.34511 -12.39767,-0.20418 -19.15892,-0.53102 -28.51501,-1.378436 -1.5482,-0.140224 -2.06348,-0.100748 -2.2314,0.170956 -0.2336,0.37797 -1.93198,5.41655 -2.4911,7.39034 -0.1855,0.65485 -0.43861,1.48829 -0.56245,1.85209 -0.12385,0.3638 -0.47789,1.61396 -0.78675,2.77812 -0.30887,1.16417 -0.67312,2.53339 -0.80945,3.04271 -0.13633,0.50932 -0.35454,1.46182 -0.48492,2.11667 -0.13038,0.65484 -0.43049,2.02406 -0.66692,3.04271 -0.60373,2.60117 -1.21268,5.81728 -1.70332,8.99583 -0.13478,0.87313 -0.44108,2.83766 -0.68067,4.36563 -0.95287,6.0767 -1.46477,11.36101 -2.24266,23.15104 -0.26911,4.07872 -0.36182,9.48354 -0.16603,9.67934 0.23578,0.23579 51.81393,0.018 52.05172,-0.21984 z m 65.91184,-0.0306 c 0.16391,-0.1639 0.14119,-2.27497 -0.0635,-5.90039 -0.5282,-9.35569 -0.86182,-12.73077 -2.00954,-20.32955 -0.54707,-3.62198 -0.77403,-4.90578 -1.84768,-10.45105 -0.40958,-2.11549 -1.24004,-5.79369 -1.7025,-7.54062 -0.13483,-0.50933 -0.38554,-1.58089 -0.55712,-2.38125 -0.17158,-0.80037 -0.45915,-1.93146 -0.63903,-2.51354 -0.17989,-0.58209 -0.4451,-1.47506 -0.58937,-1.98438 -0.14426,-0.50932 -0.41393,-1.46182 -0.59926,-2.11667 -0.67157,-2.37297 -2.16714,-7.02224 -2.40323,-7.47088 -0.13296,-0.25269 -0.24176,-0.64126 -0.24176,-0.86349 0,-0.22223 -0.11166,-0.6108 -0.24814,-0.86349 -0.13648,-0.25268 -0.5298,-1.23333 -0.87404,-2.17922 l -0.6259,-1.71979 -1.83794,0.0278 c -1.01086,0.0153 -3.50481,0.16363 -5.5421,0.32967 -5.59866,0.45631 -15.28693,0.84126 -26.32604,1.04601 l -9.92188,0.18404 -0.0672,32.25078 c -0.0403,19.32003 0.0303,32.36825 0.1759,32.54375 0.31694,0.38196 55.53751,0.3151 55.92031,-0.0677 z m 59.56659,-0.0353 c 0.32488,-0.32488 -0.30685,-7.63598 -1.15459,-13.36232 -0.67647,-4.56947 -1.22913,-7.23801 -2.64389,-12.76615 -0.47665,-1.86249 -2.17235,-7.3411 -2.41471,-7.80162 -0.13298,-0.25268 -0.24178,-0.63179 -0.24178,-0.84245 0,-0.21067 -0.31045,-1.13502 -0.68989,-2.05411 -0.89461,-2.167 -1.03531,-2.5207 -1.5068,-3.78776 -0.86095,-2.31363 -4.19544,-9.25228 -6.23038,-12.96458 -2.87622,-5.24706 -7.00651,-11.3439 -11.2922,-16.668752 -3.33853,-4.148031 -4.44788,-5.298463 -4.86231,-5.042334 -0.61565,0.380495 -5.32862,1.520029 -9.28509,2.245014 -0.65484,0.119994 -2.67891,0.59337 -4.49792,1.051946 -3.67687,0.926949 -4.80779,1.194689 -6.74687,1.597295 -0.72761,0.151069 -2.09682,0.445955 -3.04271,0.655299 -1.99265,0.441015 -4.20583,0.868011 -5.6224,1.084747 -0.80827,0.123663 -0.99218,0.262382 -0.99218,0.748355 0,0.328105 0.0984,0.709663 0.21857,0.847908 0.12022,0.138244 0.37633,0.787132 0.56913,1.441982 0.1928,0.65484 0.63944,2.08359 0.99251,3.175 0.35309,1.0914 0.82167,2.63922 1.0413,3.43958 0.21964,0.80037 0.49985,1.8124 0.62271,2.24896 0.43029,1.52905 1.60615,6.09659 1.87313,7.27604 0.45607,2.01485 0.75794,3.39078 1.0013,4.56406 0.12828,0.61847 0.43547,2.01745 0.68263,3.10886 0.42729,1.88677 0.59903,2.82079 1.19192,6.48229 1.79244,11.06951 2.36462,16.67137 2.93223,28.70729 0.17501,3.71078 0.41082,6.80641 0.52403,6.87917 0.38525,0.24759 49.32328,-0.0128 49.57426,-0.26372 z m -125.31741,-94.160688 0.0678,-20.737949 -1.39068,0.178958 c -1.8931,0.243612 -4.08626,1.006304 -7.07922,2.461869 -2.11796,1.030022 -5.07367,2.75856 -5.55625,3.249364 -0.0728,0.074 -0.84667,0.659187 -1.7198,1.300415 -1.94779,1.430472 -7.80652,7.281602 -9.40807,9.395877 -1.74364,2.30184 -3.35396,4.547042 -4.79739,6.688801 -4.19068,6.2181 -8.5544,15.015494 -7.86191,15.849884 0.13642,0.16438 1.16879,0.366284 2.29417,0.44868 1.12536,0.08239 3.89159,0.338325 6.14716,0.568738 7.63209,0.779634 20.24481,1.416132 26.85521,1.355243 l 2.38125,-0.02193 z m 25.7291,20.449048 c 0.80037,-0.07769 3.41974,-0.248531 5.82084,-0.379646 2.40109,-0.131116 6.33015,-0.427614 8.73125,-0.658886 2.40109,-0.231272 5.28638,-0.488879 6.41175,-0.572461 2.49469,-0.185279 2.75356,-0.421134 2.16734,-1.974633 -1.52158,-4.032263 -3.6739,-8.095721 -6.91694,-13.058809 -3.825,-5.853729 -8.60563,-11.470291 -12.64236,-14.852989 -4.32954,-3.628065 -6.01142,-4.775316 -9.65729,-6.587478 -3.18159,-1.581392 -9.21423,-3.52137 -9.80837,-3.154176 -0.28515,0.176233 -0.34722,41.206066 -0.0628,41.490519 0.19536,0.195355 13.51609,-0.01455 15.95655,-0.251441 z m 36.80712,-3.555648 c 0.78385,-0.149969 2.19908,-0.39832 3.14497,-0.551892 3.2671,-0.530437 4.11399,-0.692169 7.40833,-1.414767 1.81901,-0.398994 3.72401,-0.820571 4.23333,-0.936837 0.50933,-0.116268 1.46183,-0.330925 2.11667,-0.477014 2.79376,-0.623261 7.62053,-2.061136 8.20208,-2.443366 0.32698,-0.214908 0.18718,-0.450578 -0.79375,-1.33808 -2.55648,-2.313004 -5.97459,-5.128811 -8.67954,-7.150116 -1.55641,-1.163048 -3.03955,-2.286334 -3.29588,-2.496193 -0.25632,-0.20986 -0.5168,-0.381564 -0.57884,-0.381564 -0.062,0 -1.28106,-0.777211 -2.70895,-1.727136 -3.07896,-2.048323 -3.57397,-2.357131 -6.16736,-3.84737 -1.98238,-1.139135 -9.62947,-5.008827 -9.89819,-5.008827 -0.0782,0 -0.83005,-0.311958 -1.67077,-0.693238 -3.23941,-1.469119 -4.37017,-1.899065 -9.73067,-3.699861 -1.89178,-0.635517 -3.79181,-1.27529 -4.22229,-1.421717 -0.43049,-0.146428 -0.86788,-0.177918 -0.97199,-0.06998 -0.1041,0.107939 0.80211,1.2301 2.0138,2.49369 1.21169,1.26359 2.89876,3.16859 3.74903,4.233333 0.85027,1.064743 1.61369,1.995428 1.69649,2.068188 0.52157,0.458343 5.12602,7.262495 6.28008,9.280293 0.28506,0.498393 0.96293,1.680072 1.50639,2.625957 0.54346,0.945886 1.93481,3.624792 3.09189,5.953126 1.15707,2.328333 2.33433,4.69107 2.61612,5.250524 0.28179,0.559456 0.51235,1.174612 0.51235,1.367014 0,0.192403 0.14883,0.409877 0.33073,0.483275 0.1819,0.0734 0.34424,0.142851 0.36076,0.154339 0.0165,0.01148 0.67136,-0.101814 1.45521,-0.251781 z m -109.30295,-0.24992 c 0,-0.86332 3.51729,-7.852244 7.79295,-15.484751 0.71943,-1.284266 5.44098,-8.213733 6.41035,-9.408004 2.22631,-2.742823 3.89608,-4.650057 5.57535,-6.368232 1.88111,-1.924691 2.16403,-2.656597 0.81253,-2.102031 -0.33832,0.138828 -2.11707,0.725413 -3.95277,1.303521 -1.8357,0.578109 -3.97882,1.31176 -4.7625,1.630337 -0.78367,0.318577 -1.66299,0.670075 -1.95403,0.781107 -0.82187,0.313544 -1.73958,0.699228 -3.12011,1.311287 -0.69741,0.309199 -1.76897,0.762533 -2.38125,1.00741 -2.49475,0.997765 -10.93303,5.515362 -12.75489,6.828582 -0.43656,0.314679 -0.97235,0.635529 -1.19063,0.712996 -0.8754,0.310682 -8.96193,6.170994 -12.11684,8.781077 -5.34643,4.423148 -6.07465,5.128384 -5.61024,5.433123 0.54603,0.358294 5.31322,1.792933 7.9375,2.388711 0.50932,0.115629 2.35479,0.536078 4.10104,0.934326 4.25214,0.969746 7.03389,1.506165 10.14137,1.955618 0.92109,0.133223 1.74461,0.312121 1.83004,0.397552 0.26477,0.264777 3.24213,0.170529 3.24213,-0.102629 z"
       style="fill-opacity:1;stroke-width:0.26458332" />
  </g>
</svg>
