<?xml version="1.0" encoding="UTF-8" standalone="no"?>
<svg
   xmlns:dc="http://purl.org/dc/elements/1.1/"
   xmlns:cc="http://creativecommons.org/ns#"
   xmlns:rdf="http://www.w3.org/1999/02/22-rdf-syntax-ns#"
   xmlns:svg="http://www.w3.org/2000/svg"
   xmlns="http://www.w3.org/2000/svg"
   viewBox="0 0 277.48273 264.39218"
   height="264.39218"
   width="277.48273"
   id="svg4485"
   version="1.1">
  <metadata
     id="metadata4491">
    <rdf:RDF>
      <cc:Work
         rdf:about="">
        <dc:format>image/svg+xml</dc:format>
        <dc:type
           rdf:resource="http://purl.org/dc/dcmitype/StillImage" />
        <dc:title></dc:title>
      </cc:Work>
    </rdf:RDF>
  </metadata>
  <defs
     id="defs4489" />
  <path
     id="path4495" fill="#ffffff"
     d="m 80.617175,262.64219 c -0.284681,-0.9625 -4.166427,-20.425 -8.626104,-43.25 -4.459677,-22.825 -8.355865,-42.5125 -8.658195,-43.75 -0.476832,-1.95177 -1.19806,-2.25 -5.441284,-2.25 H 53 v -17 -17 l 17.75,-0.002 c 9.7625,-10e-4 28.268424,-0.29971 41.12428,-0.66322 l 23.37427,-0.66091 -0.69472,-8.58679 C 132.8209,108.05991 126.1207,87.206973 117.66065,76.902573 l -2.45452,-2.98962 -1.20442,4.47287 C 109.65695,94.521033 99.834007,102.33877 82.831166,103.19336 53.105654,104.68741 27.289939,85.878453 8.987865,49.392192 5.429413,42.29821 0,29.354809 0,27.965654 0,26.944672 17.436349,16.585279 25.43812,12.852199 45.087958,3.6849256 61.817106,-0.01811043 83.5,6.6566488e-5 100.57108,0.01437657 107.75963,1.3724576 119.51625,6.8043496 c 14.36107,6.6352224 22.72151,17.4712394 22.83494,29.5964964 0.10607,11.338418 -6.79451,21.000103 -19.05928,26.685395 l -5.20809,2.414192 4.56597,6.19588 c 8.31616,11.28478 13.93005,24.61561 16.85137,40.015597 0.83884,4.42196 1.6642,8.17897 1.83414,8.34892 0.16995,0.16994 1.3657,-1.59848 2.65723,-3.92983 6.58495,-11.88651 16.51754,-23.252357 28.25067,-32.327197 l 4.74319,-3.66856 -4.25693,-2.69967 c -5.97053,-3.78639 -12.52472,-11.57066 -13.83637,-16.433134 -0.60981,-2.260636 -0.85647,-6.247302 -0.54815,-8.859257 1.72578,-14.619789 12.14862,-23.931354 32.42136,-28.964618 7.24789,-1.799488 11.62581,-2.166947 25.7337,-2.159948 15.2611,0.0076 18.02288,0.282294 27,2.685779 9.87469,2.643795 31.0905,12.284531 33.54667,15.244035 2.61674,3.152976 -7.0476,32.179533 -15.53728,46.665793 -5.39178,9.20018 -15.04585,19.840437 -22.12282,24.382707 -8.81666,5.65887 -16.43545,7.65912 -27.38657,7.19013 -17.81629,-0.763 -27.31924,-7.93931 -30.37942,-22.941527 -0.69975,-3.43048 -1.68815,-6.37421 -2.19643,-6.54161 -1.35503,-0.44628 -13.35996,10.24819 -19.29445,17.188267 -7.46685,8.73209 -16.1297,26.55303 -16.1297,33.1815 0,1.07158 8.33367,1.3185 44.5,1.3185 H 233 v 17 17 h -4.93261 c -3.8314,0 -5.04963,0.39069 -5.45674,1.75 -0.28827,0.9625 -3.919,19.075 -8.06831,40.25 -4.1493,21.175 -8.02567,40.8625 -8.61416,43.75 l -1.06998,5.25 h -61.86171 c -58.052071,0 -61.89359,-0.10777 -62.379315,-1.75 z m 126.270925,-46.5 c 4.46456,-22.6875 8.11615,-41.5875 8.11464,-42 -0.002,-0.4125 -32.40274,-0.75 -72.00274,-0.75 -62.917475,0 -72,0.18679 -72,1.48076 0,1.23634 13.93155,73.26177 15.526112,80.26924 l 0.511992,2.25 h 55.866306 55.86631 z M 226,155.89219 v -10.5 H 143 60 v 10.5 10.5 h 83 83 z m -1,-46.7264 c 14.27117,-4.25792 27.78759,-18.975227 36.58559,-39.836067 4.04713,-9.596123 8.79161,-25.518189 7.9903,-26.814744 -1.0842,-1.754259 -17.24908,-9.038804 -26.10784,-11.765239 -8.34718,-2.568984 -10.21422,-2.763001 -26.96805,-2.802433 -15.88523,-0.03739 -18.9399,0.228198 -26,2.260545 -14.07338,4.051216 -21.75602,10.186764 -24.10779,19.253101 -2.5982,10.016319 1.65363,17.88035 12.69146,23.47364 l 5.01683,2.54222 7.19975,-3.93364 c 9.46471,-5.17112 19.7115,-9.581421 33.19975,-14.289445 10.12776,-3.535057 11.09912,-3.706286 12.25,-2.159394 2.32844,3.129636 1.46693,4.917717 -3,6.226616 -8.15483,2.389523 -29.31071,11.123513 -37.25,15.378283 -7.73585,4.14574 -8.01119,4.41782 -8.33891,8.24013 -0.81512,9.50706 3.94929,19.390067 11.14024,23.108657 5.98281,3.09383 17.40972,3.59085 25.69867,1.11777 z M 93,94.720753 c 7.908,-3.23081 13.47716,-12.03291 14.63753,-23.13473 l 0.61487,-5.88272 -5.8762,-4.508219 C 94.21605,54.934623 82.063514,48.180153 72,44.311767 67.325,42.51471 63.326929,40.912076 63.115398,40.750356 62.903867,40.588637 63.285378,39.117442 63.9632,37.481034 l 1.232405,-2.975288 7.152197,2.546269 c 10.01223,3.564474 25.112141,11.581641 32.722038,17.373482 3.53659,2.691673 7.26481,4.910319 8.28493,4.930323 2.80726,0.05505 11.73417,-4.706843 15.35662,-8.191698 C 133.11878,46.924131 135,42.522808 135,36.451225 135,24.099373 124.26554,14.076106 105.5,8.9056886 96.567815,6.4446296 77.545147,5.8945786 65.426613,7.7469456 54.733905,9.3813696 39.170579,13.964933 30.027937,18.172228 20.800544,22.418523 9,29.690447 9,31.130406 c 0,2.37034 9.563831,21.737264 14.514051,29.391206 9.638772,14.903301 24.634404,27.864371 37.936553,32.789431 11.072961,4.09972 23.595514,4.65926 31.549396,1.40971 z"
     style="fill-opacity:1" />
</svg>
