<?xml version="1.0" encoding="UTF-8" standalone="no"?>
<svg
   xmlns:dc="http://purl.org/dc/elements/1.1/"
   xmlns:cc="http://creativecommons.org/ns#"
   xmlns:rdf="http://www.w3.org/1999/02/22-rdf-syntax-ns#"
   xmlns:svg="http://www.w3.org/2000/svg"
   xmlns="http://www.w3.org/2000/svg"
   version="1.1"
   id="svg4485"
   viewBox="0 0 277.48273 264.39218">
  <metadata
     id="metadata4491">
    <rdf:RDF>
      <cc:Work
         rdf:about="">
        <dc:format>image/svg+xml</dc:format>
        <dc:type
           rdf:resource="http://purl.org/dc/dcmitype/StillImage" />
        <dc:title></dc:title>
      </cc:Work>
    </rdf:RDF>
  </metadata>
  <defs
     id="defs4489" />
  <path
     id="path4496" fill="#ffffff"
     d="m 95.634266,264.13857 c -11.729262,-0.20735 -14.372855,-0.40612 -15.093951,-1.13478 -0.524705,-0.53024 -0.728354,-1.51726 -9.273129,-44.94522 -8.268002,-42.0213 -8.498872,-43.15711 -8.953268,-44.04707 -0.492741,-0.96511 -1.698074,-1.21195 -5.918021,-1.21195 H 52.490154 V 155.7393 138.67905 l 16.002796,-0.006 c 16.003338,-0.006 30.283587,-0.2454 51.59077,-0.86414 24.41095,0.69031 50.19316,0.67555 70.65088,0.75271 l 42.50963,0.16202 v 17.03806 17.03806 h -3.95687 c -4.20243,0 -5.60363,0.30556 -6.15889,1.34308 -0.3392,0.63379 -2.76685,12.67351 -11.15787,55.33644 -3.34018,16.98271 -6.27343,31.79764 -6.51833,32.92206 l -0.44526,2.04441 -48.83513,-0.0501 c -26.85933,-0.0275 -54.10125,-0.14313 -60.537614,-0.25691 z m 103.621464,-7.37719 c 0.42672,-1.89674 13.70852,-69.80205 15.23068,-77.86925 0.55292,-2.93035 0.95032,-5.38289 0.88314,-5.45008 -0.34883,-0.34883 -34.17934,-0.62164 -77.29614,-0.62331 -52.99706,-0.002 -66.761088,0.23981 -67.711156,1.18988 -0.08398,0.084 0.247388,2.35251 0.736443,5.0411 2.193791,12.06044 12.752858,66.46066 14.401545,74.19665 0.455632,2.13798 0.828431,3.94622 0.828431,4.01832 0,0.0722 25.376467,0.13116 56.392147,0.13116 h 56.39217 z m 27.2208,-101.44506 V 144.60079 H 142.86719 59.257858 v 10.71553 10.71553 h 83.609332 83.60934 z"
     style="stroke:#ffffff;stroke-width:0.28198764;stroke-opacity:1;fill-opacity:1" />
  <path
     id="path4508"
     d="M 253.53408,51.291924 C 232.18891,54.92739 212.12732,62.659998 191.50288,74.54882 166.97419,89.3713 143.52028,112.98727 139.82912,138.57537 139.32226,117.81953 131.82426,85.683871 117.08829,69.232598 94.878361,44.247953 59.219811,35.561558 37.819643,33.145156"
     style="fill:none;stroke:#ffffff;stroke-width:6.3946805;stroke-linecap:round;stroke-linejoin:miter;stroke-miterlimit:4;stroke-dasharray:none;stroke-opacity:1" />
</svg>
