<?xml version="1.0" encoding="UTF-8" standalone="no"?>
<svg
   xmlns:dc="http://purl.org/dc/elements/1.1/"
   xmlns:cc="http://creativecommons.org/ns#"
   xmlns:rdf="http://www.w3.org/1999/02/22-rdf-syntax-ns#"
   xmlns:svg="http://www.w3.org/2000/svg"
   xmlns="http://www.w3.org/2000/svg"
   id="svg8"
   version="1.1"
   viewBox="0 0 200 200">
  <defs
     id="defs2">
    <filter
       id="filter4510"
       style="color-interpolation-filters:sRGB">
      <feColorMatrix
         result="fbSourceGraphic"
         id="feColorMatrix4508"
         values="5.538 0 0 -1.16376 -2.269 0 5.538 0 -1.16376 -2.269 0 0 5.538 -1.16376 -2.269 0 0 0 1 0" />
      <feColorMatrix
         id="feColorMatrix4552"
         values="0 0 0 -1 0 0 0 0 -1 0 0 0 0 -1 0 0 0 0 1 0"
         in="fbSourceGraphic"
         result="fbSourceGraphicAlpha" />
      <feColorMatrix
         in="fbSourceGraphic"
         values="11 0 0 0.8748 -5 0 11 0 0.8748 -5 0 0 11 0.8748 -5 0 0 0 1 0"
         id="feColorMatrix4554" />
    </filter>
  </defs>
  <metadata
     id="metadata5">
    <rdf:RDF>
      <cc:Work
         rdf:about="">
        <dc:format>image/svg+xml</dc:format>
        <dc:type
           rdf:resource="http://purl.org/dc/dcmitype/StillImage" />
        <dc:title></dc:title>
      </cc:Work>
    </rdf:RDF>
  </metadata>
  <g
     transform="translate(0,-97)"
     id="layer1">
    <path
       id="path4556" fill="#ffffff"
       d="m 75.082511,296.47343 c -18.549981,-3.77615 -31.910695,-20.11329 -30.864559,-37.7404 0.530589,-8.94027 4.523532,-17.47462 11.241844,-24.0279 l 2.591676,-2.52801 0.0066,-56.95404 c 0.0066,-63.23282 -0.157548,-59.58561 2.946655,-65.2474 4.084996,-7.4507 13.114815,-12.772592 21.63238,-12.749488 8.352203,0.02266 17.329706,5.378428 21.371043,12.749488 3.1042,5.66179 2.93949,2.01458 2.94666,65.2474 l 0.006,56.95404 2.59167,2.52801 c 15.11979,14.74834 15.04582,37.03108 -0.17111,51.55508 -9.35459,8.92858 -22.045714,12.70761 -34.299165,10.21322 z m 13.608255,-6.44312 c 4.491301,-0.82479 7.678386,-2.05353 11.373764,-4.38503 13.16507,-8.30611 17.60294,-24.46799 10.53718,-38.37444 -1.74587,-3.43613 -2.56702,-4.48319 -6.2106,-7.91934 l -4.19874,-3.95966 -0.218347,-59.62527 -0.21835,-59.62539 -1.635323,-3.15798 c -1.93537,-3.73742 -4.097855,-5.75143 -8.136392,-7.57779 -2.670824,-1.20785 -3.243603,-1.30804 -7.477659,-1.30804 -4.234065,0 -4.806835,0.10019 -7.477668,1.30804 -4.038533,1.82636 -6.201018,3.84037 -8.136398,7.57779 l -1.635324,3.15798 -0.218351,59.6642 -0.218341,59.66405 -3.576866,3.21154 c -7.311556,6.5648 -10.626655,14.34613 -10.045558,23.57942 0.317765,5.04919 1.157629,8.10319 3.412501,12.40884 4.081341,7.79329 12.090187,13.54313 21.345601,15.32481 3.822974,0.73593 8.847077,0.75024 12.734871,0.0363 z M 78.578404,273.27679 c -8.131582,-2.82116 -12.145473,-11.1499 -8.675266,-18.00096 1.274277,-2.51573 4.388707,-5.4841 7.035317,-6.70537 l 2.074296,-0.95717 v -64.17007 -64.17019 l 1.071879,-1.02308 c 1.418095,-1.35353 3.425234,-1.35353 4.843329,0 l 1.071889,1.02308 v 64.20523 64.20512 l 2.074286,0.92664 c 2.664187,1.19015 5.742464,4.13563 7.094648,6.78856 1.50021,2.94335 1.50021,7.47682 0,10.42018 -1.369867,2.68762 -4.437935,5.60092 -7.203815,6.84041 -2.82972,1.26812 -6.765222,1.52706 -9.386563,0.61762 z m 8.191521,-7.09786 c 1.946128,-1.36182 2.794909,-3.34458 2.609965,-6.09688 -0.28169,-4.19199 -2.890059,-6.3116 -7.425327,-6.03396 -4.392002,0.26887 -6.612745,2.75846 -6.321864,7.08719 0.185752,2.76425 1.149054,4.29932 3.411085,5.43576 1.982621,0.99607 6.036366,0.79034 7.726141,-0.39211 z m 35.237265,-63.2791 c -0.67567,-0.6449 -1.07189,-1.4993 -1.07189,-2.31139 0,-0.81209 0.39622,-1.66648 1.07189,-2.31138 1.06318,-1.01478 1.13951,-1.02307 9.40875,-1.02307 8.26924,0 8.34557,0.008 9.40875,1.02307 0.67567,0.6449 1.07189,1.49929 1.07189,2.31138 0,0.81209 -0.39622,1.66649 -1.07189,2.31139 -1.06318,1.01477 -1.13951,1.02307 -9.40875,1.02307 -8.26924,0 -8.34557,-0.008 -9.40875,-1.02307 z m 0,-40.01349 c -0.67567,-0.6449 -1.07189,-1.49929 -1.07189,-2.31139 0,-0.81209 0.39622,-1.66648 1.07189,-2.31138 1.06318,-1.01478 1.13951,-1.02307 9.40875,-1.02307 8.26924,0 8.34557,0.008 9.40875,1.02307 0.67567,0.6449 1.07189,1.49929 1.07189,2.31138 0,0.8121 -0.39622,1.66649 -1.07189,2.31139 -1.06318,1.01478 -1.13951,1.02307 -9.40875,1.02307 -8.26924,0 -8.34557,-0.008 -9.40875,-1.02307 z m 0,-40.01359 c -0.67567,-0.64491 -1.07189,-1.4993 -1.07189,-2.3114 0,-0.8121 0.39622,-1.6665 1.07189,-2.3114 l 1.07188,-1.02308 h 15.32396 15.32396 l 1.0719,1.02308 c 0.67566,0.6449 1.07187,1.4993 1.07187,2.3114 0,0.8121 -0.39621,1.66649 -1.07187,2.3114 l -1.0719,1.02307 h -15.32396 -15.32396 z"
       style="stroke-width:0.42663437;fill-opacity:1" />
  </g>
</svg>
