<?xml version="1.0" encoding="UTF-8" standalone="no"?>
<!-- Created with Inkscape (http://www.inkscape.org/) -->

<svg
   xmlns:dc="http://purl.org/dc/elements/1.1/"
   xmlns:cc="http://creativecommons.org/ns#"
   xmlns:rdf="http://www.w3.org/1999/02/22-rdf-syntax-ns#"
   xmlns:svg="http://www.w3.org/2000/svg"
   xmlns="http://www.w3.org/2000/svg"
   xmlns:sodipodi="http://sodipodi.sourceforge.net/DTD/sodipodi-0.dtd"
   xmlns:inkscape="http://www.inkscape.org/namespaces/inkscape"
   width="200mm"
   height="200mm"
   viewBox="0 0 200 200"
   version="1.1"
   id="svg8"
   inkscape:version="0.92.1 r15371"
   sodipodi:docname="temperature.svg">
  <defs
     id="defs2" />
  <sodipodi:namedview
     id="base"
     pagecolor="#ffffff"
     bordercolor="#666666"
     borderopacity="1.0"
     inkscape:pageopacity="0.0"
     inkscape:pageshadow="2"
     inkscape:zoom="4.0000001"
     inkscape:cx="361.31422"
     inkscape:cy="625.60614"
     inkscape:document-units="mm"
     inkscape:current-layer="layer2"
     showgrid="false"
     inkscape:window-width="3000"
     inkscape:window-height="1881"
     inkscape:window-x="-14"
     inkscape:window-y="-14"
     inkscape:window-maximized="1"
     inkscape:snap-others="false" />
  <metadata
     id="metadata5">
    <rdf:RDF>
      <cc:Work
         rdf:about="">
        <dc:format>image/svg+xml</dc:format>
        <dc:type
           rdf:resource="http://purl.org/dc/dcmitype/StillImage" />
        <dc:title></dc:title>
      </cc:Work>
    </rdf:RDF>
  </metadata>
  <g
     inkscape:groupmode="layer"
     id="layer2"
     inkscape:label="grafik"
     transform="translate(0,-97)">
    <path
       style="fill:#ffffff;fill-opacity:1;stroke-width:0.77134055"
       d="m 89.533752,296.04763 c -11.458129,-2.73957 -21.269039,-8.81911 -27.927279,-17.30577 -4.267907,-5.43992 -9.074206,-15.33458 -10.467376,-21.54908 -1.326739,-5.91816 -1.160687,-17.39129 0.338687,-23.40101 2.122407,-8.50693 6.946975,-16.97629 13.556054,-23.79718 l 5.897799,-6.08682 0.01526,-37.80885 c 0.0083,-20.79485 0.320995,-39.98992 0.694662,-42.65569 1.55825,-11.11664 8.69174,-20.83773 18.055748,-24.605284 5.562144,-2.237887 14.758953,-2.457476 20.336783,-0.485551 7.68118,2.715515 14.81612,10.014425 17.77918,18.187715 1.52936,4.21854 1.58271,5.74631 1.59546,45.6702 l 0.0137,41.30566 5.11189,5.2264 c 8.55238,8.74397 13.09292,18.2798 14.57837,30.61681 1.33508,11.08832 -0.97453,22.74534 -6.42421,32.42395 -3.14546,5.58636 -12.85576,15.24805 -18.60731,18.51419 -10.31383,5.8569 -24.337947,8.1912 -34.546917,5.75031 z m 21.578578,-15.46724 c 11.13531,-3.93431 19.14492,-12.32346 22.90777,-23.99316 2.15229,-6.67496 1.77728,-18.57959 -0.79809,-25.33415 -2.28961,-6.00512 -7.42699,-12.51268 -12.91394,-16.3582 l -4.57942,-3.20947 v -44.26955 c 0,-48.03628 0.0751,-47.12398 -4.24374,-51.54028 -3.35039,-3.42596 -6.33265,-4.68566 -11.10362,-4.69011 -5.682457,-0.005 -10.703838,3.03283 -13.256217,8.02054 -1.50387,2.93877 -1.767306,4.60321 -1.767306,11.16633 v 7.71278 h 5.905215 c 6.291489,0 9.280188,1.22564 9.280188,3.80573 0,2.62059 -1.639928,3.2467 -8.503827,3.2467 h -6.681576 v 3.91802 3.91801 l 5.504707,0.0113 c 5.911686,0.0127 9.131659,1.1511 9.546856,3.3761 0.53864,2.88659 -1.226187,3.66479 -8.311099,3.66479 h -6.740464 v 3.49681 3.49681 l 6.942832,0.22529 c 5.63279,0.18281 7.100537,0.48407 7.778641,1.59663 0.60821,0.99791 0.60821,1.7447 0,2.7426 -0.678104,1.11256 -2.145851,1.41382 -7.778641,1.59662 l -6.942832,0.2253 v 4.25101 4.25101 l 6.942832,0.22529 c 5.63279,0.18281 7.100537,0.48407 7.778641,1.59663 0.60821,0.99791 0.60821,1.74469 0,2.7426 -0.678104,1.11256 -2.145851,1.41382 -7.778641,1.59662 l -6.942832,0.2253 v 3.4968 3.49681 h 6.39956 c 6.510336,0 8.785843,0.91328 8.785843,3.52622 0,2.61293 -2.275507,3.52621 -8.785843,3.52621 h -6.39956 v 4.66398 4.66396 l -3.606533,2.58436 -3.606533,2.58436 10.466082,0.21819 c 10.147468,0.21155 10.490768,0.27413 11.27734,2.05578 0.584617,1.3242 0.569857,2.30315 -0.0528,3.50394 -0.833146,1.60666 -1.364196,1.66631 -14.832164,1.66631 H 71.03504 l -1.66445,2.41243 c -0.915447,1.32682 -2.469028,4.76488 -3.452401,7.64013 -5.196723,15.19445 0.641704,33.0465 13.742851,42.02122 9.521306,6.52243 20.69921,8.02407 31.45129,4.22516 z M 90.835505,271.19166 C 85.40538,269.03819 79.891,263.26887 77.830617,257.58552 76.280074,253.3085 75.760276,246.21576 76.725083,242.50022 l 0.457823,-1.7631 h 22.600987 22.601117 l 0.45782,1.7631 c 0.2518,0.96971 0.46249,3.77746 0.4682,6.23944 0.0395,17.0567 -16.77228,28.67954 -32.475525,22.452 z"
       id="path4524"
       inkscape:connector-curvature="0" />
  </g>
</svg>
