<?xml version="1.0" encoding="UTF-8" standalone="no"?>
<!-- Created with Inkscape (http://www.inkscape.org/) -->

<svg
   xmlns:dc="http://purl.org/dc/elements/1.1/"
   xmlns:cc="http://creativecommons.org/ns#"
   xmlns:rdf="http://www.w3.org/1999/02/22-rdf-syntax-ns#"
   xmlns:svg="http://www.w3.org/2000/svg"
   xmlns="http://www.w3.org/2000/svg"
   xmlns:sodipodi="http://sodipodi.sourceforge.net/DTD/sodipodi-0.dtd"
   xmlns:inkscape="http://www.inkscape.org/namespaces/inkscape"
   width="200mm"
   height="200mm"
   viewBox="0 0 200 200"
   version="1.1"
   id="svg4504"
   inkscape:version="0.92.1 r15371"
   sodipodi:docname="temperature02.svg">
  <defs
     id="defs4498">
    <filter
       style="color-interpolation-filters:sRGB"
       inkscape:label="Lightness-Contrast"
       id="filter5064">
      <feColorMatrix
         values="5.538 0 0 -1.69334 -2.269 0 5.538 0 -1.69334 -2.269 0 0 5.538 -1.69334 -2.269 0 0 0 1 0"
         id="feColorMatrix5062" />
    </filter>
  </defs>
  <sodipodi:namedview
     id="base"
     pagecolor="#ffffff"
     bordercolor="#666666"
     borderopacity="1.0"
     inkscape:pageopacity="0.0"
     inkscape:pageshadow="2"
     inkscape:zoom="0.7"
     inkscape:cx="-85.061118"
     inkscape:cy="135.59968"
     inkscape:document-units="mm"
     inkscape:current-layer="layer1"
     showgrid="false"
     inkscape:window-width="3000"
     inkscape:window-height="1881"
     inkscape:window-x="-14"
     inkscape:window-y="-14"
     inkscape:window-maximized="1" />
  <metadata
     id="metadata4501">
    <rdf:RDF>
      <cc:Work
         rdf:about="">
        <dc:format>image/svg+xml</dc:format>
        <dc:type
           rdf:resource="http://purl.org/dc/dcmitype/StillImage" />
        <dc:title></dc:title>
      </cc:Work>
    </rdf:RDF>
  </metadata>
  <g
     inkscape:label="Layer 1"
     inkscape:groupmode="layer"
     id="layer1"
     transform="translate(0,-97)">
    <path
       style="fill:#ffffff;stroke-width:0.95391673;fill-opacity:1"
       d="m 51.757219,295.96568 c -4.881054,-2.27893 -7.910747,-6.4765 -8.665301,-12.00561 -0.347872,-2.54908 -0.492878,-43.34229 -0.322234,-90.65159 0.345002,-95.648496 -0.151039,-89.17698 7.185634,-93.746148 l 3.333185,-2.075857 h 46.959257 46.95937 l 3.33319,2.075857 c 7.37007,4.589978 6.87537,-2.443896 6.87537,97.757308 0,100.20112 0.4947,93.16727 -6.87537,97.75723 l -3.33319,2.07585 -45.93851,0.24058 c -43.234022,0.22642 -46.148746,0.14237 -49.511401,-1.42762 z m 93.362471,-6.05191 c 4.71043,-1.57828 4.63959,-0.16454 4.63959,-92.59413 0,-92.42964 0.0709,-91.0159 -4.63959,-92.59418 -2.1581,-0.72311 -87.585629,-0.72311 -89.74374,0 -4.710424,1.57828 -4.639586,0.16454 -4.639586,92.59418 0,75.03704 0.207558,87.34725 1.509805,89.54609 0.830393,1.40212 2.0937,2.75444 2.807353,3.00516 1.879776,0.66039 88.100688,0.70144 90.066168,0.0429 z M 90.016617,270.97231 c -4.759613,-1.8879 -10.047932,-6.23962 -12.391717,-10.1971 -0.899699,-1.51914 -1.863591,-5.23976 -2.141985,-8.26803 -0.421664,-4.58672 -0.07846,-6.3217 2.055674,-10.39198 1.448947,-2.76347 4.166279,-6.00381 6.255186,-7.45914 l 3.693327,-2.57312 3e-5,-51.14838 c 3e-5,-49.38064 0.0698,-51.24685 2.016648,-53.99749 4.759273,-6.72392 16.72875,-6.72392 21.48806,0 1.94693,2.75064 2.01662,4.61685 2.01665,53.99749 l 4e-5,51.14838 3.69334,2.57312 c 2.0889,1.45533 4.80623,4.69567 6.25519,7.45914 2.13411,4.07028 2.47733,5.80526 2.05566,10.39198 -0.27839,3.02827 -1.24229,6.74889 -2.14197,8.26803 -2.34379,3.95748 -7.63212,8.3092 -12.39178,10.1971 -5.4133,2.14718 -15.049073,2.14718 -20.462353,0 z m 18.988383,-7.4899 c 10.84607,-6.38205 10.88129,-18.58988 0.072,-24.99598 l -4.23547,-2.51017 v -27.12778 -27.12777 h -4.59383 -4.593843 v 27.12777 27.12778 l -4.235446,2.51017 c -10.809132,6.4061 -10.773918,18.61393 0.072,24.99598 4.751113,2.79566 12.763279,2.79566 17.514399,0 z m -4.16338,-110.55284 c 0,-22.7446 -0.20362,-23.7995 -4.59386,-23.7995 -4.390196,0 -4.593813,1.0549 -4.593813,23.7995 v 21.66021 h 4.593813 4.59386 z m -38.183825,71.30397 c -1.120807,-0.71561 -1.68766,-2.00353 -1.471186,-3.34263 0.335214,-2.07363 0.696084,-2.17847 7.498156,-2.17847 6.802071,0 7.16294,0.10488 7.498156,2.17847 0.467142,2.88973 -2.223225,4.50677 -7.498156,4.50677 -2.311992,0 -5.024126,-0.52385 -6.02697,-1.16414 z m -1.219377,-20.58127 c -0.32051,-0.72929 -0.422756,-2.05137 -0.227215,-2.93795 0.302517,-1.37158 1.419028,-1.61195 7.487542,-1.61195 h 7.13201 v 2.6741 2.6741 l -6.904795,0.26384 c -5.37011,0.20521 -7.034318,-0.0308 -7.487542,-1.06214 z m 0.31231,-18.92383 c -1.445893,-1.26249 -0.672816,-4.7509 1.252218,-5.65046 2.947138,-1.3772 10.837814,-1.14232 12.270749,0.36526 0.673318,0.70839 1.074108,2.21256 0.89064,3.34262 -0.304308,1.87435 -0.919646,2.0774 -7.012401,2.31398 -3.673354,0.14264 -7.003896,-0.0245 -7.401206,-0.3714 z m 0.502646,-20.12197 c -0.673765,-0.5883 -1.225029,-1.71142 -1.225029,-2.49582 0,-0.7844 0.551264,-1.90753 1.225029,-2.49584 1.589497,-1.38787 11.273284,-1.38787 12.862782,0 1.750192,1.5282 1.513361,4.8826 -0.38975,5.52025 -2.80786,0.9408 -11.197361,0.58527 -12.473032,-0.52859 z m 0,-19.61007 c -0.673765,-0.58831 -1.225029,-1.71143 -1.225029,-2.49583 0,-2.45034 2.272706,-3.56547 7.266671,-3.56547 6.297109,0 8.046168,0.66015 8.046168,3.03688 0,3.02763 -1.994366,4.09407 -7.656419,4.09407 -2.863501,0 -5.757629,-0.48135 -6.431391,-1.06965 z"
       id="path5066"
       inkscape:connector-curvature="0" />
  </g>
</svg>
