<?xml version="1.0" encoding="UTF-8" standalone="no"?>
<svg
   xmlns:dc="http://purl.org/dc/elements/1.1/"
   xmlns:cc="http://creativecommons.org/ns#"
   xmlns:rdf="http://www.w3.org/1999/02/22-rdf-syntax-ns#"
   xmlns:svg="http://www.w3.org/2000/svg"
   xmlns="http://www.w3.org/2000/svg"
   viewBox="0 0 84.215027 80.752251"
   version="1.1"
   id="svg8">
  <defs
     id="defs2" />
  <metadata
     id="metadata5">
    <rdf:RDF>
      <cc:Work
         rdf:about="">
        <dc:format>image/svg+xml</dc:format>
        <dc:type
           rdf:resource="http://purl.org/dc/dcmitype/StillImage" />
        <dc:title></dc:title>
      </cc:Work>
    </rdf:RDF>
  </metadata>
  <g
     id="layer1"
     transform="translate(-64.706748,-97.55257)" />
  <g
     style="fill-opacity:1"
     id="layer2"
     transform="translate(-64.706748,-97.55257)">
    <path fill="#fffffff"
       style="fill-opacity:1;stroke-width:0.16444014;fill:#ffffff"
       d="m 72.642859,178.0414 c -3.638166,-0.78991 -6.904486,-4.08554 -7.680856,-7.74981 -0.346692,-1.6363 -0.337213,-41.3483 0.01009,-42.97536 0.584074,-2.73494 2.629273,-5.4102 5.128269,-6.7081 2.386597,-1.23951 1.559371,-1.18502 17.988255,-1.18502 H 102.779 l -5.453603,-5.46763 c -3.58083,-3.59005 -5.49165,-5.62292 -5.564398,-5.91985 -0.309125,-1.26172 0.759298,-2.33027 2.021468,-2.02171 0.29923,0.0732 2.5801,2.2339 6.742013,6.38696 l 6.2898,6.27643 10.57079,-10.56237 10.57081,-10.56237 h 0.70604 c 1.27039,0 2.05077,1.236421 1.48582,2.354088 -0.0998,0.197542 -4.484,4.669562 -9.74255,9.937812 l -9.56098,9.57864 h 14.69312 c 16.43198,0 15.60439,-0.0545 17.99103,1.18502 2.5338,1.31598 4.5538,3.98588 5.13742,6.79033 0.34509,1.65824 0.33951,41.37766 -0.006,42.96922 -0.7899,3.63817 -4.08552,6.90449 -7.74979,7.68086 -1.63416,0.34624 -66.670982,0.33943 -68.267286,-0.007 z m 68.498811,-3.55294 c 1.91425,-0.80667 3.15867,-2.05109 3.96533,-3.96533 l 0.43319,-1.028 0.0489,-19.73282 c 0.0318,-12.80625 -0.0104,-20.17906 -0.11937,-21.00411 -0.38015,-2.87107 -2.29675,-5.08178 -5.02063,-5.79108 -0.86984,-0.2265 -4.6527,-0.25521 -33.63457,-0.25521 -35.71533,0 -33.650184,-0.0546 -35.340722,0.93585 -1.73888,1.01884 -3.007219,2.91714 -3.299472,4.93821 -0.209454,1.44853 -0.21722,39.04072 -0.0086,40.48569 0.414907,2.8705 2.83854,5.35468 5.624755,5.76529 0.481672,0.0711 15.601369,0.11909 33.599349,0.10691 l 32.72359,-0.0222 1.028,-0.4332 z m -54.059955,-1.46821 c -8.43955,-0.51968 -12.551291,-2.33218 -14.744326,-6.49948 -1.794454,-3.40986 -2.329182,-6.78905 -2.470534,-15.61208 -0.143106,-8.9298 0.277453,-13.89618 1.480769,-17.48863 0.708369,-2.11483 1.403017,-3.26939 2.84402,-4.72699 1.976277,-1.99906 4.807367,-3.13378 9.354611,-3.74942 4.855232,-0.65736 26.664815,-0.66695 31.572505,-0.0144 11.26762,1.49934 13.86623,6.51366 13.50838,26.06587 -0.17943,9.80406 -0.96453,13.67512 -3.46038,17.06195 -2.25131,3.05494 -6.22856,4.49133 -13.74789,4.96501 -3.0646,0.19306 -21.192238,0.19132 -24.337155,-0.002 z m 22.857185,-3.28724 c 10.65621,-0.51938 13.2865,-2.15386 14.62827,-9.09015 0.17788,-0.91955 0.41144,-2.55987 0.51903,-3.64517 0.25856,-2.60818 0.25694,-13.8598 -0.002,-16.44402 -0.91427,-9.11082 -2.83628,-11.32355 -10.72762,-12.35024 -2.70916,-0.35247 -21.794623,-0.52295 -26.605947,-0.23764 -11.693876,0.69343 -13.794892,2.89887 -14.498875,15.21958 -0.326585,5.71547 -0.0072,14.20029 0.666588,17.67666 0.520447,2.68758 1.638014,5.01253 2.915688,6.06569 2.032183,1.67509 5.443435,2.50926 11.424087,2.79357 4.242706,0.20168 17.635029,0.20893 21.681159,0.0116 z m 25.6486,-10.39205 c -2.40073,-1.21426 -2.37662,-4.6642 0.0413,-5.8977 2.19501,-1.1198 4.83159,0.51687 4.79672,2.97761 -0.0358,2.53031 -2.57659,4.06384 -4.83794,2.92009 z m -0.0116,-15.14112 c -2.59619,-1.37063 -2.24395,-5.28012 0.55051,-6.11001 3.36619,-0.99964 5.83217,3.13565 3.30265,5.53837 -1.05124,0.99855 -2.60725,1.22939 -3.85316,0.57164 z"
       fill="#ffffff"
       id="path49" />
  </g>
  <path fill="#fffffff"
     style="fill-opacity:1;stroke-width:0.02412714"
     d="m 31.198416,70.544845 c -0.305571,-0.108668 -0.50412,-0.44745 -0.501685,-0.856018 7.08e-4,-0.147978 0.245462,-1.228776 1.697695,-7.501895 l 1.696666,-7.329009 -3.614708,-0.01383 -3.614707,-0.01387 -0.105046,-0.06862 c -0.39583,-0.258546 -0.507254,-0.892931 -0.238588,-1.358393 0.08537,-0.147883 0.777325,-1.286294 6.543342,-10.764915 1.501857,-2.468864 3.250196,-5.342941 3.885202,-6.386839 0.635007,-1.043899 1.442897,-2.371547 1.795316,-2.95033 0.391842,-0.643531 0.673401,-1.081437 0.724789,-1.127261 0.333617,-0.297464 0.792276,-0.136288 0.980386,0.344518 0.03271,0.08365 0.04788,0.180154 0.0533,0.338662 l 0.0074,0.221672 -1.581741,7.329011 -1.581741,7.329006 3.477085,0.01387 3.477085,0.01383 0.10953,0.06533 c 0.131015,0.07814 0.285887,0.28731 0.347245,0.468981 0.06047,0.179165 0.05982,0.494539 -0.0018,0.677605 -0.05017,0.149769 -12.778577,21.152306 -12.946994,21.363153 -0.07839,0.09818 -0.138946,0.144871 -0.242448,0.187034 -0.156121,0.0636 -0.228544,0.06723 -0.366093,0.0183 z m 8.313865,-21.020888 -3.217857,-0.01383 -0.11736,-0.07259 c -0.149257,-0.09232 -0.261911,-0.240969 -0.33166,-0.437625 -0.116101,-0.327342 -0.194708,0.08999 1.190202,-6.318981 0.683216,-3.161705 1.239238,-5.752465 1.235608,-5.757249 -0.0055,-0.0075 -1.976698,3.228215 -8.358783,13.722511 l -1.466054,2.410677 3.356803,0.01383 3.356794,0.01387 0.117369,0.0726 c 0.149257,0.09232 0.261911,0.240968 0.33166,0.437624 0.04457,0.125773 0.05459,0.193759 0.05339,0.362613 -0.0018,0.19332 -0.09262,0.600741 -1.307626,5.840788 -0.718365,3.098139 -1.30611,5.646044 -1.30611,5.662007 0,0.01596 2.178336,-3.560033 4.840749,-7.94667 l 4.84074,-7.9757 z"
     id="path4502" />
</svg>
