<?xml version="1.0" encoding="UTF-8" standalone="no"?>
<svg
   xmlns:dc="http://purl.org/dc/elements/1.1/"
   xmlns:cc="http://creativecommons.org/ns#"
   xmlns:rdf="http://www.w3.org/1999/02/22-rdf-syntax-ns#"
   xmlns:svg="http://www.w3.org/2000/svg"
   xmlns="http://www.w3.org/2000/svg"
   id="svg8"
   version="1.1"
   viewBox="0 0 260.10468 249.33154"
   height="249.33154mm"
   width="260.10468mm">
  <defs
     id="defs2" />
  <metadata
     id="metadata5">
    <rdf:RDF>
      <cc:Work
         rdf:about="">
        <dc:format>image/svg+xml</dc:format>
        <dc:type
           rdf:resource="http://purl.org/dc/dcmitype/StillImage" />
        <dc:title></dc:title>
      </cc:Work>
    </rdf:RDF>
  </metadata>
  <g
     transform="translate(20.437776,1.781058)"
     id="layer1">
    <path
       id="path4496" fill="#ffffff"
       d="m 26.46751,247.42768 c -10.60542,-0.113 -20.1165103,-0.28765 -21.1357603,-0.38809 -8.6854,-0.85582 -18.7226097,-8.77837 -23.0858697,-18.22209 -1.73892,-3.76366 -1.98604,-5.16487 -2.24782,-12.74548 -0.70807,-20.50376 -0.50506,-117.48095 0.26087,-124.61875 0.60755,-5.66186 3.78835,-11.66008 8.84288,-16.67554 2.8793397,-2.85709 4.4380197,-3.99068 8.2371497,-5.99073 2.94986003,-1.55295 5.54024,-2.24896 9.76576,-2.62395 C 9.1251797,65.98374 26.2523,65.82807 53.78952,65.73874 L 97.283109,65.59764 84.198579,52.464 C 70.48873,38.70269 65.80463,33.86584 64.10281,31.71287 63.25192,30.63641 63.0803,30.21527 63.0803,29.20368 c 0,-1.65405 0.87819,-3.37264 2.15523,-4.21774 1.29447,-0.85664 3.26133,-1.09177 4.36377,-0.52167 1.43734,0.74327 7.74517,6.77086 23.984735,22.91914 L 109.66797,63.37694 133.8007,39.31487 c 13.273,-13.23413 27.97393,-27.871958 32.66874,-32.5284968 l 8.53601,-8.466431 1.51816,-0.08462 c 2.71215,-0.151173 4.48902,0.743413 5.38204,2.70965602 0.64002,1.40917598 0.62791,2.63579198 -0.0396,4.01471798 -0.37713,0.779058 -9.47869,10.1346438 -30.00392,30.8413438 l -29.46257,29.72306 43.03465,0.16541 c 43.37605,0.16671 48.18461,0.27501 51.7659,1.16594 2.1118,0.52535 6.58107,2.70545 9.07114,4.42488 5.42602,3.74673 9.82818,9.65704 11.98274,16.08791 0.73988,2.20841 0.86558,3.03706 1.12072,7.38727 0.38711,6.60078 0.39074,116.36049 0.004,123.56547 -0.25204,4.69639 -0.35277,5.38493 -1.12255,7.67291 -1.5771,4.68765 -3.98925,8.48395 -7.81918,12.30596 -2.70668,2.70108 -5.3463,4.60198 -8.76892,6.31484 -4.15782,2.08081 -5.27492,2.32066 -12.00865,2.57839 -7.91831,0.30311 -158.65227,0.49615 -183.19195,0.2346 z m 188.24881,-10.86262 c 7.16428,-2.954 10.76632,-6.52365 13.87081,-13.74617 l 0.9667,-2.24895 0.0408,-62.04479 c 0.0438,-66.50009 0.0904,-64.0492 -1.29686,-68.2161 -1.53151,-4.6003 -5.05981,-9.06604 -8.99051,-11.37927 -3.19998,-1.88318 -5.1934,-2.41644 -10.30928,-2.75783 -3.21103,-0.21427 -31.14394,-0.30418 -97.63125,-0.31423 C 2.0392697,75.84122 5.2415297,75.77152 1.0892897,78.25735 c -5.4923,3.28812 -8.95553,7.80455 -10.5245,13.72509 -0.54891,2.07134 -0.5666597,2.79943 -0.8286097,33.99898 -0.1798,21.4142 -0.1805,41.9595 -0.002,62.57396 0.25921,29.96159 0.2788297,30.74162 0.8247197,32.79296 1.80222,6.77235 7.1208,12.61335 13.5632,14.89543 1.36616,0.48393 2.76299,0.74002 4.71874,0.86509 1.5279703,0.0977 48.0352603,0.19666 103.3495503,0.21989 l 100.57142,0.0422 1.95463,-0.80592 z M 53.68759,231.53453 c -22.53277,-0.62719 -36.84267,-4.57678 -44.6884303,-12.33422 -5.41217,-5.35123 -9.21556997,-13.24586 -11.11949,-23.08048 -1.38113,-7.1342 -1.89545,-13.9506 -2.3132,-30.65735 -0.6823,-27.2869 0.68187,-44.7293 4.37637003,-55.95652 C 2.1932797,102.6671 4.4083697,98.90336 8.6988797,94.62827 11.627,91.71067 13.85209,90.11543 17.58437,88.25795 c 5.99799,-2.98509 15.57574,-5.21865 25.3876,-5.92046 20.75326,-1.48443 75.71941,-1.31704 90.88438,0.27677 8.28551,0.87079 16.59364,3.03997 21.96041,5.73367 6.04514,3.03418 10.92595,7.93556 14.01936,14.07842 4.05866,8.05966 6.17559,18.88847 7.0358,35.99046 0.36153,7.18776 0.18386,33.01325 -0.27487,39.95209 -1.23648,18.70331 -3.42756,27.48602 -8.95219,35.88386 -3.05139,4.63833 -6.51214,7.73624 -11.51862,10.31095 -8.35767,4.29814 -20.12714,6.45417 -38.1449,6.98765 -9.43558,0.27938 -54.07191,0.26771 -64.29375,-0.0169 z m 60.72188,-10.03906 c 36.67391,-1.17758 45.68744,-6.06924 49.97486,-27.12143 2.13535,-10.48508 2.51625,-17.43372 2.33493,-42.59577 -0.11843,-16.43505 -0.18775,-18.73134 -0.6949,-23.01875 -2.91719,-24.6618 -8.43804,-31.6449 -27.80239,-35.16616 C 130.9521,92.27139 122.17699,91.9283 89.406344,91.68473 49.01931,91.38456 34.68409,92.41225 24.5276,96.33592 c -5.07498,1.96057 -9.82135,5.88645 -12.17588,10.07106 -3.9495703,7.01944 -5.8253503,17.36844 -6.7130403,37.03692 -0.62828,13.9209 0.22456,36.68302 1.77795,47.45324 1.15908,8.0363 3.9957203,15.41638 7.6304603,19.8521 2.65423,3.23914 8.10367,6.09346 14.94973,7.83042 6.42839,1.63099 18.05383,2.77713 30.43765,3.00083 10.48028,0.18931 47.23438,0.13141 53.975,-0.085 z m -30.509875,-9.20824 c -0.813986,-0.84962 -0.874409,-1.52197 -0.331941,-3.69368 0.531646,-2.12841 0.928327,-3.88433 1.329023,-5.88299 0.189632,-0.94588 0.527034,-2.43416 0.749779,-3.30729 0.222745,-0.87312 0.651436,-2.71859 0.952648,-4.10104 0.301215,-1.38245 0.680556,-3.04932 0.842984,-3.70417 0.162427,-0.65484 0.448111,-1.96453 0.634849,-2.91041 0.18674,-0.94589 0.521721,-2.43417 0.744402,-3.3073 0.949156,-3.72162 1.874666,-7.75882 2.442094,-10.65275 0.207219,-1.05683 0.486254,-2.1284 0.62008,-2.38125 0.133824,-0.25286 0.370602,-1.23365 0.526172,-2.17954 0.155567,-0.94588 0.356375,-1.96993 0.446235,-2.27566 0.101669,-0.34589 -0.0013,-0.72069 -0.272931,-0.99219 -0.389797,-0.3898 -1.490326,-0.43631 -10.32207,-0.43631 -5.654329,0 -10.170829,-0.10839 -10.551759,-0.25322 -0.84423,-0.32098 -1.58098,-1.71482 -1.39581,-2.64069 0.13101,-0.65506 2.18565,-4.48385 2.56455,-4.77901 0.0934,-0.0728 0.63583,-0.94743 1.20539,-1.94372 0.56955,-0.99628 1.24056,-2.12738 1.49112,-2.51354 0.25056,-0.38616 0.7004,-1.11883 0.99964,-1.62816 0.29925,-0.50932 0.77591,-1.28323 1.05926,-1.71979 0.28335,-0.43656 0.72648,-1.16516 0.98473,-1.61911 0.86501,-1.52049 1.67083,-2.87222 2.18934,-3.67256 0.28284,-0.43656 0.759095,-1.21046 1.058339,-1.71979 0.299244,-0.50932 0.749085,-1.24199 0.999646,-1.62816 0.250558,-0.38616 0.921562,-1.51725 1.49112,-2.51354 0.569558,-0.99628 1.115587,-1.87095 1.2134,-1.94371 0.09781,-0.0728 0.643843,-0.94744 1.213401,-1.94372 0.569558,-0.99629 1.214151,-2.08615 1.432433,-2.42191 0.218281,-0.33576 0.845563,-1.36609 1.393962,-2.28962 1.294686,-2.1803 3.816763,-6.32992 4.156337,-6.8385 0.145746,-0.21829 0.50772,-0.8136 0.804386,-1.32292 0.296667,-0.50932 0.7444,-1.24199 0.994961,-1.62816 0.250558,-0.38616 0.90669,-1.45772 1.458066,-2.38125 0.551378,-0.92352 1.527966,-2.51257 2.170194,-3.53122 0.642228,-1.01864 1.353545,-2.20927 1.580695,-2.64583 0.22715,-0.43656 0.94033,-1.62719 1.58483,-2.64583 1.28124,-2.02502 2.95804,-4.78536 3.5862,-5.90356 0.21968,-0.39107 1.09386,-1.75282 1.94262,-3.02613 1.30961,-1.96466 1.65214,-2.3151 2.2628,-2.3151 1.53582,0 2.36851,2.33566 1.63157,4.5765 -0.15328,0.4661 -0.46359,1.79995 -0.68958,2.96412 -0.94582,4.87232 -1.31624,6.60204 -2.26644,10.58333 -0.13892,0.58209 -0.42943,2.01084 -0.64556,3.175 -0.21615,1.16417 -0.52144,2.50896 -0.67844,2.98842 -0.157,0.47946 -0.38002,1.49149 -0.49558,2.24896 -0.11557,0.75746 -0.39238,2.15111 -0.61514,3.097 -0.22276,0.94588 -0.64386,2.85088 -0.93578,4.23333 -0.29192,1.38245 -0.66786,3.10886 -0.83542,3.83646 -0.16756,0.7276 -0.46735,2.15635 -0.66621,3.175 -0.19885,1.01865 -0.53297,2.50693 -0.74248,3.30729 -0.66612,2.54469 -1.35715,2.38125 10.06811,2.38125 h 9.96423 l 0.74209,0.71096 c 1.37653,1.31881 1.01733,2.56458 -2.2212,7.70353 -0.24735,0.3925 -0.93794,1.54707 -1.53464,2.56572 -0.5967,1.01865 -1.3137,2.20927 -1.59333,2.64583 -0.27963,0.43657 -0.75273,1.21047 -1.05134,1.7198 -0.29861,0.50932 -0.83718,1.40229 -1.19684,1.98437 -0.35965,0.58208 -1.10096,1.81394 -1.64735,2.73747 -0.54639,0.92352 -1.19843,1.99508 -1.44899,2.38125 -0.25056,0.38616 -0.70149,1.11883 -1.00207,1.62816 -0.30058,0.50932 -0.80995,1.36296 -1.13194,1.89699 -0.32198,0.53402 -1.06168,1.76588 -1.64376,2.73747 -0.58209,0.97158 -1.23693,2.04123 -1.45521,2.37699 -0.21828,0.33577 -0.848,1.36609 -1.39938,2.28962 -0.55138,0.92352 -1.53207,2.51257 -2.1793,3.53122 -0.64724,1.01864 -1.36074,2.20927 -1.58555,2.64583 -0.22481,0.43656 -0.93903,1.62719 -1.58716,2.64583 -0.64812,1.01865 -1.329235,2.14974 -1.513584,2.51355 -0.290173,0.57265 -1.426313,2.42951 -2.518719,4.1165 -0.182957,0.28253 -0.477885,0.81136 -0.655394,1.17516 -0.177509,0.3638 -0.717836,1.23348 -1.200722,1.93261 -0.482888,0.69914 -0.993341,1.53258 -1.134342,1.85209 -0.141002,0.31951 -0.781527,1.41436 -1.42339,2.43301 -0.641863,1.01865 -1.595205,2.56646 -2.118537,3.43958 -1.143678,1.90811 -1.32669,2.20314 -2.571046,4.14477 -0.533178,0.83194 -1.046234,1.75466 -1.140127,2.05049 -0.190759,0.60103 -1.474817,1.60995 -2.048989,1.60995 -0.204973,0 -0.692608,-0.33393 -1.083635,-0.74208 z m 7.22654,-16.34746 c 0,-0.21426 0.174617,-0.45657 0.388038,-0.53847 0.213421,-0.0819 0.813374,-0.88183 1.333233,-1.77763 0.519859,-0.89581 1.467424,-2.46217 2.105702,-3.48082 0.638279,-1.01864 1.615901,-2.61209 2.172497,-3.54099 1.29754,-2.16547 1.829702,-3.04908 3.128655,-5.19489 0.58208,-0.96158 1.23865,-2.06828 1.45903,-2.45934 0.22039,-0.39107 0.84547,-1.37819 1.38907,-2.19362 0.5436,-0.81543 0.98836,-1.5536 0.98836,-1.64038 0,-0.0868 0.38635,-0.72931 0.85854,-1.42783 0.47221,-0.69851 1.03775,-1.58999 1.25678,-1.98106 0.54343,-0.97029 2.18079,-3.66685 3.58466,-5.90355 0.63935,-1.01865 1.3464,-2.20927 1.57121,-2.64584 0.22481,-0.43656 0.93607,-1.62718 1.58057,-2.64583 0.6445,-1.01865 1.62519,-2.61209 2.1793,-3.54099 0.55411,-0.92891 1.27166,-2.11953 1.59455,-2.64584 0.98703,-1.60887 1.7156,-3.24033 1.53011,-3.4263 -0.0968,-0.097 -4.40274,-0.23598 -9.56875,-0.30874 -8.90993,-0.1255 -9.412053,-0.1587 -9.767992,-0.64589 -0.495022,-0.67755 -0.476221,-3.24296 0.03986,-5.43953 0.222237,-0.94589 0.567002,-2.61276 0.766144,-3.70417 0.199143,-1.0914 0.476288,-2.28203 0.615878,-2.64583 0.13959,-0.3638 0.33764,-1.3163 0.4401,-2.11667 0.10247,-0.80036 0.35254,-2.05052 0.55572,-2.77812 0.35882,-1.28499 0.85211,-3.60698 1.57384,-7.40834 0.1934,-1.01864 0.46468,-2.14974 0.60283,-2.51354 0.13816,-0.3638 0.33704,-1.36048 0.44196,-2.21485 0.10492,-0.85437 0.359,-2.0302 0.5646,-2.61295 0.4143,-1.17424 0.4985,-3.00142 0.14829,-3.21786 -0.19879,-0.12286 -1.89112,2.1897 -1.89112,2.58421 0,0.0842 -0.44979,0.84152 -0.99953,1.68283 -1.07496,1.64511 -1.3463,2.08246 -2.180156,3.51404 -0.296667,0.50932 -0.7444,1.24199 -0.99496,1.62816 -0.250558,0.38616 -0.90669,1.45772 -1.458066,2.38125 -0.551378,0.92352 -1.524733,2.51257 -2.163011,3.53121 -0.638278,1.01865 -1.6159,2.60578 -2.172496,3.52697 -0.556594,0.92118 -1.250114,2.06617 -1.541156,2.54442 -0.291042,0.47825 -0.982533,1.62955 -1.536644,2.55845 -0.554115,0.9289 -1.533237,2.52235 -2.175831,3.541 -0.642593,1.01864 -1.317593,2.14974 -1.499999,2.51354 -0.182407,0.3638 -0.721331,1.22578 -1.197608,1.91551 -0.476279,0.68974 -0.86596,1.3125 -0.86596,1.38393 0,0.0714 -0.44314,0.81679 -0.984755,1.65636 -0.541613,0.83957 -1.166691,1.84645 -1.389062,2.23752 -0.423816,0.74532 -2.181226,3.68395 -2.730146,4.56518 -1.74,2.79333 -2.06364,3.40811 -1.95002,3.7042 0.10263,0.26746 2.16926,0.36866 9.479591,0.46422 10.322957,0.13495 10.85741,0.21764 11.132507,1.72252 0.213921,1.17022 -0.230814,3.81826 -1.412787,8.41202 -0.14977,0.58208 -0.430498,1.83224 -0.623843,2.77812 -0.437562,2.14065 -1.116409,5.00912 -1.596705,6.74688 -0.201099,0.7276 -0.449079,1.91823 -0.551063,2.64583 -0.101984,0.7276 -0.304289,1.62057 -0.449572,1.98438 -0.14528,0.3638 -0.412512,1.43536 -0.59385,2.38125 -0.181337,0.94588 -0.521424,2.49369 -0.75575,3.43958 -0.826265,3.33533 -0.959961,3.98289 -0.959961,4.64962 0,0.38148 0.11467,0.60241 0.264583,0.50975 0.145521,-0.0899 0.264583,-0.33882 0.264583,-0.55308 z m 109.965515,-5.94341 c -2.9337,-0.73302 -5.72476,-3.0313 -6.99537,-5.76029 -0.96084,-2.06366 -1.0004,-5.75399 -0.0863,-8.0491 1.37308,-3.44746 4.8889,-5.98638 8.62148,-6.22592 7.97055,-0.51152 13.28674,7.38435 9.88796,14.68607 -0.88855,1.90893 -3.20709,4.09753 -5.11088,4.82448 -1.77966,0.67956 -4.71982,0.9238 -6.3169,0.52476 z m -0.16343,-46.89916 c -2.01496,-0.58316 -3.25146,-1.29859 -4.64331,-2.6866 -3.12441,-3.11581 -3.84457,-7.62616 -1.89394,-11.8618 0.84985,-1.84539 2.59525,-3.53179 4.68517,-4.52676 1.56707,-0.74606 1.95474,-0.81877 4.36562,-0.81877 2.3169,0 2.83393,0.0882 4.15875,0.7091 3.50689,1.64368 5.75522,4.91852 5.97424,8.70188 0.14883,2.57115 -0.21775,3.99851 -1.56044,6.07591 -1.74236,2.69578 -4.78641,4.42394 -8.17536,4.6413 -0.97565,0.0626 -2.23541,-0.0388 -2.91073,-0.23426 z"
       style="fill-opacity:1;stroke-width:0.26458332" />
  </g>
</svg>
