<?xml version="1.0" encoding="UTF-8" standalone="no"?>
<!-- Created with Inkscape (http://www.inkscape.org/) -->

<svg
   xmlns:dc="http://purl.org/dc/elements/1.1/"
   xmlns:cc="http://creativecommons.org/ns#"
   xmlns:rdf="http://www.w3.org/1999/02/22-rdf-syntax-ns#"
   xmlns:svg="http://www.w3.org/2000/svg"
   xmlns="http://www.w3.org/2000/svg"
   xmlns:sodipodi="http://sodipodi.sourceforge.net/DTD/sodipodi-0.dtd"
   xmlns:inkscape="http://www.inkscape.org/namespaces/inkscape"
   width="126.11644mm"
   height="74.160538mm"
   viewBox="0 0 126.11644 74.160538"
   version="1.1"
   id="svg8"
   inkscape:version="0.92.1 r15371"
   sodipodi:docname="weather.svg">
  <defs
     id="defs2" />
  <sodipodi:namedview
     id="base"
     pagecolor="#ffffff"
     bordercolor="#666666"
     borderopacity="1.0"
     inkscape:pageopacity="0.0"
     inkscape:pageshadow="2"
     inkscape:zoom="1.4"
     inkscape:cx="-116.24824"
     inkscape:cy="77.72928"
     inkscape:document-units="mm"
     inkscape:current-layer="layer1"
     showgrid="false"
     inkscape:window-width="3000"
     inkscape:window-height="1859"
     inkscape:window-x="-14"
     inkscape:window-y="-14"
     inkscape:window-maximized="1"
     fit-margin-top="0"
     fit-margin-left="0"
     fit-margin-right="0"
     fit-margin-bottom="0" />
  <metadata
     id="metadata5">
    <rdf:RDF>
      <cc:Work
         rdf:about="">
        <dc:format>image/svg+xml</dc:format>
        <dc:type
           rdf:resource="http://purl.org/dc/dcmitype/StillImage" />
        <dc:title></dc:title>
      </cc:Work>
    </rdf:RDF>
  </metadata>
  <g
     inkscape:label="Layer 1"
     inkscape:groupmode="layer"
     id="layer1"
     transform="translate(-45.167145,-107.74571)">
    <path
       style="fill:#ffffff;fill-opacity:1;stroke-width:0.55697429"
       d="m 133.14106,181.13031 c -0.4257,-0.51293 -0.5904,-2.89986 -0.48592,-7.04202 0.13241,-5.2532 0.31559,-6.36526 1.13273,-6.8796 0.70971,-0.44672 1.23972,-0.44672 1.94941,0 0.81716,0.51434 1.00026,1.6264 1.13275,6.8796 0.16378,6.49191 -0.19367,7.81796 -2.10746,7.81796 -0.53764,0 -1.26733,-0.34918 -1.62151,-0.77594 z m -16.61938,-4.03843 c -1.32965,-0.55618 -0.68029,-2.8928 2.20553,-7.93645 2.9211,-5.10531 4.26813,-6.28672 5.75808,-5.05018 1.36598,1.13366 0.90774,2.84041 -2.16229,8.05394 -2.86483,4.86506 -3.88644,5.73371 -5.80132,4.93269 z m 34.07861,-0.0676 c -1.08953,-0.75184 -6.45388,-10.69767 -6.27101,-11.62691 0.2378,-1.2082 1.76029,-2.13215 2.83427,-1.72003 0.94793,0.36376 7.09313,10.48407 7.09313,11.68143 0,1.64507 -2.22031,2.65644 -3.65639,1.66551 z M 56.966736,164.95234 c -7.769658,-2.42943 -12.322737,-8.99924 -11.751495,-16.95668 0.421345,-5.86936 3.659378,-10.81668 8.794004,-13.43616 2.695155,-1.37497 7.820968,-1.9525 10.934061,-1.23192 l 2.308899,0.5344 0.637146,-3.23855 c 1.998834,-10.15989 10.317528,-18.92815 20.839244,-21.96548 4.06675,-1.17397 11.435695,-1.2227 15.214115,-0.10062 2.45891,0.73022 6.10044,2.3138 6.83192,2.97097 0.1322,0.11873 -0.58189,1.0644 -1.58691,2.10133 l -1.82733,1.88531 -2.43652,-1.07779 c -5.230055,-2.31351 -13.681325,-1.87308 -19.369669,1.00943 -1.505982,0.76315 -3.97916,2.54835 -5.495954,3.96713 -4.730808,4.42511 -6.752017,8.86424 -7.611273,16.71645 -0.278658,2.54645 -0.640483,4.76378 -0.804055,4.92734 -0.163566,0.16357 -1.935608,-0.35797 -3.937857,-1.159 -2.002249,-0.80104 -4.354687,-1.59927 -5.227644,-1.77384 -2.375738,-0.47517 -6.007995,0.71781 -8.292372,2.72353 -6.167068,5.41476 -5.085626,14.56005 2.161212,18.27646 1.90767,0.9783 3.474162,1.05973 20.385552,1.05973 h 18.319085 l 1.73117,2.78487 1.73117,2.78488 -19.610334,-0.0373 c -14.485729,-0.0275 -20.218128,-0.22727 -21.936165,-0.76447 z m 46.923554,-0.63045 c -0.94927,-0.94928 -1.09071,-1.83458 -0.44898,-2.81029 0.72876,-1.10806 10.62622,-6.43855 11.59945,-6.24716 1.39661,0.2747 2.29041,1.94644 1.614,3.01878 -0.52507,0.8324 -10.63197,6.9139 -11.49028,6.9139 -0.21942,0 -0.7928,-0.39386 -1.27419,-0.87523 z m 54.70519,-2.29479 c -2.97452,-1.7332 -5.54266,-3.50159 -5.70699,-3.92978 -0.46066,-1.20048 0.71868,-2.92573 1.99997,-2.92573 0.63225,0 3.50577,1.38671 6.38561,3.08159 4.33013,2.54841 5.23604,3.31593 5.23604,4.43618 0,1.08741 -1.36429,2.54997 -2.33051,2.49837 -0.0966,-0.004 -2.60957,-1.42744 -5.58412,-3.16063 z m -28.27037,1.75207 c -8.46262,-2.35948 -13.94268,-9.46415 -13.94268,-18.07613 0,-8.83873 5.58748,-15.8669 14.41157,-18.12752 14.5295,-3.7223 27.42732,11.98182 21.06363,25.64666 -3.92191,8.42154 -13.08267,12.91289 -21.53252,10.55699 z M 99.227615,147.26256 c -0.3676,-0.36762 -0.66836,-1.08882 -0.66836,-1.60272 0,-1.88343 1.35299,-2.22581 8.155125,-2.06367 l 6.60468,0.15746 0.18378,1.61051 c 0.10441,0.91473 -0.1362,1.81337 -0.55697,2.08011 -1.18509,0.75129 -12.94107,0.59559 -13.718335,-0.18167 z m 57.368355,0 c -0.36761,-0.36762 -0.66836,-1.06939 -0.66836,-1.55952 0,-1.88403 1.21773,-2.22791 7.88943,-2.22791 5.98267,0 6.60458,0.0968 7.14887,1.11395 0.42357,0.79146 0.42357,1.43644 0,2.22789 -0.54429,1.01706 -1.1662,1.11396 -7.14887,1.11396 -4.3539,0 -6.77697,-0.22428 -7.22107,-0.66837 z m -47.87559,-13.96008 c -5.08913,-2.87862 -6.05117,-3.8733 -5.39641,-5.57958 0.62819,-1.63706 2.0641,-1.53643 5.56927,0.39026 7.96361,4.37734 9.20219,5.62853 7.37781,7.45294 -1.10295,1.10294 -2.15822,0.78659 -7.55067,-2.26362 z m 44.44395,1.85839 c -0.95465,-1.78376 -0.16231,-2.62694 5.51548,-5.86993 5.52875,-3.15782 6.7743,-3.38426 7.8242,-1.4225 0.82869,1.54843 -0.13915,2.39853 -7.4273,6.52322 -3.72986,2.11091 -5.099,2.28905 -5.91238,0.76921 z m -31.01837,-7.70728 c -1.15014,-0.73346 -6.3205,-10.20786 -6.3205,-11.58201 0,-0.95428 0.39018,-1.43582 1.36078,-1.67942 0.74842,-0.18778 1.59051,-0.19957 1.87128,-0.0261 0.91831,0.56754 6.23651,10.20959 6.23651,11.30696 0,1.87396 -1.6688,2.92383 -3.14807,1.9805 z m 23.05989,-0.16778 c -1.50361,-0.88732 -1.18999,-2.0715 1.96681,-7.42624 3.23592,-5.48896 4.31312,-6.5172 5.83084,-5.5658 1.703,1.06756 1.33193,2.59188 -1.95038,8.0123 -3.22341,5.32313 -4.05922,6.03492 -5.84727,4.97974 z m -12.06479,-3.52368 c -0.4257,-0.51293 -0.5904,-2.89986 -0.48592,-7.04202 0.13241,-5.25322 0.31559,-6.36526 1.13273,-6.87962 0.70971,-0.44672 1.23972,-0.44672 1.94941,0 0.81716,0.51436 1.00026,1.6264 1.13275,6.87962 0.16378,6.49191 -0.19367,7.81796 -2.10746,7.81796 -0.53764,0 -1.26733,-0.34917 -1.62151,-0.77594 z"
       id="path4535"
       inkscape:connector-curvature="0" />
  </g>
</svg>
