<?xml version="1.0" encoding="UTF-8" standalone="no"?>
<svg
   xmlns:dc="http://purl.org/dc/elements/1.1/"
   xmlns:cc="http://creativecommons.org/ns#"
   xmlns:rdf="http://www.w3.org/1999/02/22-rdf-syntax-ns#"
   xmlns:svg="http://www.w3.org/2000/svg"
   xmlns="http://www.w3.org/2000/svg"
   xml:space="preserve"
   enable-background="new 0 0 359.559 211.646"
   viewBox="0 0 359.559 211.646"
   height="211.646px"
   width="359.559px"
   y="0px"
   x="0px"
   id="svg8"
   version="1.1"><metadata
     id="metadata23"><rdf:RDF><cc:Work
         rdf:about=""><dc:format>image/svg+xml</dc:format><dc:type
           rdf:resource="http://purl.org/dc/dcmitype/StillImage" /><dc:title></dc:title></cc:Work></rdf:RDF></metadata><defs
     id="defs21" /><g
     transform="translate(0.33193722,0.35952799)"
     id="layer2" /><g
     transform="translate(-44.835208,-107.38618)"
     id="layer1"><path
       d="M295.151,316.425c-1.207-1.454-1.674-8.221-1.378-19.962   c0.376-14.891,0.895-18.043,3.211-19.501c2.012-1.267,3.515-1.267,5.526,0c2.316,1.458,2.835,4.61,3.211,19.501   c0.464,18.402-0.549,22.161-5.975,22.161C298.224,318.624,296.155,317.634,295.151,316.425L295.151,316.425z M248.041,304.977   c-3.77-1.576-1.929-8.199,6.252-22.496c8.28-14.473,12.099-17.821,16.322-14.316c3.872,3.214,2.573,8.052-6.13,22.83   C256.365,304.785,253.469,307.248,248.041,304.977L248.041,304.977z M344.642,304.785c-3.088-2.131-18.294-30.324-17.776-32.958   c0.675-3.425,4.99-6.044,8.034-4.876c2.688,1.031,20.107,29.719,20.107,33.113C355.007,304.728,348.713,307.595,344.642,304.785z    M79.224,270.566c-22.024-6.887-34.931-25.51-33.312-48.065c1.194-16.638,10.373-30.662,24.929-38.087   c7.64-3.897,22.169-5.535,30.994-3.492l6.545,1.515l1.806-9.18c5.666-28.8,29.246-53.655,59.072-62.265   c11.527-3.328,32.416-3.466,43.126-0.285c6.971,2.069,17.293,6.559,19.366,8.422c0.375,0.336-1.649,3.017-4.498,5.956l-5.18,5.345   l-6.907-3.056c-14.825-6.558-38.781-5.31-54.906,2.861c-4.269,2.163-11.279,7.224-15.579,11.245   c-13.41,12.544-19.14,25.127-21.575,47.386c-0.79,7.218-1.815,13.504-2.279,13.967c-0.463,0.464-5.486-1.015-11.162-3.285   s-12.344-4.533-14.818-5.028c-6.734-1.347-17.03,2.035-23.506,7.721c-17.481,15.349-14.416,41.272,6.126,51.807   c5.407,2.773,9.848,3.004,57.786,3.004h51.928l4.907,7.895l4.907,7.895l-55.588-0.106   C100.343,272.655,84.094,272.089,79.224,270.566L79.224,270.566z M212.235,268.779c-2.69-2.69-3.092-5.2-1.272-7.966   c2.065-3.141,30.121-18.251,32.88-17.708c3.959,0.778,6.493,5.517,4.575,8.557c-1.488,2.359-30.138,19.599-32.57,19.599   C215.226,271.26,213.6,270.144,212.235,268.779z M367.306,262.274c-8.432-4.913-15.712-9.926-16.178-11.14   c-1.306-3.402,2.037-8.293,5.67-8.293c1.792,0,9.938,3.931,18.101,8.735c12.274,7.224,14.842,9.399,14.842,12.575   c0,3.082-3.867,7.228-6.605,7.082C382.86,271.222,375.737,267.187,367.306,262.274z M287.169,267.24   c-23.988-6.688-39.522-26.827-39.522-51.239c0-25.055,15.838-44.978,40.852-51.385c41.186-10.552,77.747,33.964,59.708,72.699   C337.089,261.188,311.121,273.918,287.169,267.24z M199.019,220.422c-1.042-1.042-1.895-3.087-1.895-4.544   c0-5.339,3.835-6.309,23.117-5.85l18.722,0.446l0.521,4.565c0.296,2.593-0.386,5.141-1.578,5.896   C234.546,223.067,201.222,222.625,199.019,220.422L199.019,220.422z M361.638,220.422c-1.042-1.042-1.895-3.032-1.895-4.421   c0-5.341,3.452-6.315,22.363-6.315c16.959,0,18.722,0.274,20.265,3.157c1.201,2.244,1.201,4.072,0,6.315   c-1.543,2.883-3.306,3.158-20.265,3.158C369.765,222.317,362.896,221.681,361.638,220.422z M225.927,180.85   c-14.426-8.16-17.152-10.979-15.297-15.816c1.781-4.641,5.852-4.355,15.787,1.106c22.574,12.408,26.085,15.955,20.913,21.127   C244.204,190.393,241.213,189.496,225.927,180.85z M351.91,186.117c-2.706-5.056-0.46-7.446,15.635-16.639   c15.672-8.951,19.202-9.594,22.179-4.032c2.349,4.389-0.395,6.799-21.054,18.49C358.097,189.921,354.216,190.426,351.91,186.117   L351.91,186.117z M263.983,164.271c-3.26-2.079-17.916-28.937-17.916-32.831c0-2.705,1.106-4.07,3.857-4.761   c2.121-0.532,4.509-0.565,5.305-0.074c2.603,1.609,17.678,28.94,17.678,32.052C272.907,163.968,268.177,166.944,263.983,164.271   L263.983,164.271z M329.351,163.795c-4.263-2.516-3.373-5.872,5.575-21.051c9.173-15.56,12.227-18.475,16.528-15.777   c4.827,3.026,3.775,7.347-5.528,22.712C336.788,164.768,334.419,166.785,329.351,163.795z M295.151,153.806   c-1.207-1.453-1.674-8.22-1.378-19.961c0.376-14.892,0.895-18.044,3.211-19.502c2.012-1.266,3.515-1.266,5.526,0   c2.316,1.458,2.835,4.61,3.211,19.502c0.464,18.402-0.549,22.161-5.975,22.161C298.224,156.006,296.155,155.016,295.151,153.806   L295.151,153.806z"
       fill="#C6C6C6"
       id="path4535" /><path
       d="   M293.865,268.866c-11.393-1.506-23.314-7.496-31.628-15.892c-9.214-9.306-14.036-20.883-14.562-34.969   c-0.557-14.863,3.838-27.381,13.193-37.586c12.92-14.092,34.317-20.667,52.167-16.032c20.162,5.236,36.111,23.047,39.506,44.115   c0.88,5.461,0.402,14.962-1.023,20.369c-4.025,15.267-15.914,29.242-30.498,35.855C313.269,268.242,302.062,269.95,293.865,268.866   z"
       enable-background="new    "
       stroke-linejoin="round"
       stroke-width="8.2313"
       stroke="#FFFFFF"
       fill="#FFFFFF"
       opacity="0.99"
       id="path4483" /><path
       d="   M298.533,155.873c-1.397-0.378-3.01-1.396-3.541-2.236c-1.208-1.914-1.596-9.697-1.155-23.179   c0.369-11.29,0.901-14.356,2.762-15.885c0.417-0.342,1.229-0.771,1.866-0.984c1.25-0.418,2.377-0.246,3.823,0.583   c2.449,1.403,2.962,3.994,3.405,17.224c0.115,3.415,0.158,12.164,0.069,13.996c-0.206,4.26-0.634,6.634-1.496,8.295   c-0.396,0.762-1.12,1.493-1.796,1.812c-0.796,0.376-1.18,0.453-2.373,0.482C299.185,156.002,298.953,155.987,298.533,155.873z"
       enable-background="new    "
       stroke-linejoin="round"
       stroke-width="1.0289"
       stroke="#FFFFFF"
       fill="#FFFFFF"
       opacity="0.99"
       id="path4548" /><path
       d="   M331.634,164.847c-1.304-0.342-2.929-1.279-3.763-2.172c-1.206-1.288-1.324-2.867-0.421-5.599c0.908-2.743,3.085-6.953,7.22-13.962   c4.854-8.229,7.533-12.22,9.795-14.588c1.203-1.26,2.407-2.098,3.379-2.351c0.508-0.133,1.433-0.133,1.944-0.001   c1.002,0.259,2.453,1.167,3.258,2.039c1.468,1.589,1.633,3.628,0.558,6.865c-0.947,2.849-3.079,6.995-6.73,13.091   c-6.728,11.23-9.782,15.288-12.383,16.448C333.634,165,332.549,165.087,331.634,164.847z"
       enable-background="new    "
       stroke-linejoin="round"
       stroke-width="1.0289"
       stroke="#FFFFFF"
       fill="#FFFFFF"
       opacity="0.99"
       id="path4550" /><path
       d="   M266.417,165.238c-0.64-0.093-1.094-0.243-1.844-0.612c-0.565-0.277-0.791-0.434-1.152-0.8   c-2.354-2.387-8.047-11.863-12.843-21.381c-2.555-5.069-3.911-8.193-4.389-10.109c-0.162-0.652-0.178-0.807-0.138-1.392   c0.167-2.415,1.283-3.647,3.89-4.295c1.91-0.475,3.943-0.556,5.012-0.201c0.388,0.129,0.814,0.541,1.532,1.482   c4.021,5.271,14.346,24.107,16.141,29.447c0.328,0.978,0.369,1.43,0.221,2.438c-0.429,2.922-2.22,4.952-4.761,5.396   C267.451,165.322,267.035,165.329,266.417,165.238z"
       enable-background="new    "
       stroke-linejoin="round"
       stroke-width="1.0289"
       stroke="#FFFFFF"
       fill="#FFFFFF"
       opacity="0.99"
       id="path4552" /><path
       d="   M243.011,188.907c-1.617-0.256-3.032-0.731-5.491-1.845c-2.603-1.179-8.196-4.197-14.029-7.571   c-8.242-4.768-11.641-7.372-12.858-9.851c-0.412-0.839-0.525-1.322-0.521-2.218c0.009-2.146,1.262-4.504,2.777-5.224   c0.752-0.357,1.323-0.455,2.399-0.412c2.663,0.106,6.021,1.469,12.532,5.086c3.729,2.07,4.365,2.43,6.787,3.834   c7.859,4.558,11.943,7.496,13.721,9.874c1.758,2.352,1.449,4.321-1.067,6.805c-0.788,0.778-1.703,1.294-2.6,1.466   C244.176,188.945,243.408,188.97,243.011,188.907z"
       enable-background="new    "
       stroke-linejoin="round"
       stroke-width="1.0289"
       stroke="#FFFFFF"
       fill="#FFFFFF"
       opacity="0.99"
       id="path4554" /><path
       d="   M354.922,188.817c-0.676-0.177-1.237-0.492-1.771-0.994c-0.576-0.543-0.965-1.09-1.422-1.999c-1.187-2.361-1.088-3.958,0.356-5.821   c1.622-2.092,5.065-4.529,12.565-8.896c8.24-4.797,13.301-7.408,16.437-8.481c4.537-1.553,6.741-0.834,8.665,2.826   c0.836,1.591,0.911,2.668,0.275,3.938c-1.314,2.624-5.908,5.808-19.651,13.618c-6.853,3.895-10.077,5.369-12.768,5.84   C356.78,188.993,355.54,188.979,354.922,188.817z"
       enable-background="new    "
       stroke-linejoin="round"
       stroke-width="1.0289"
       stroke="#FFFFFF"
       fill="#FFFFFF"
       opacity="0.99"
       id="path4556" /><path
       d="   M215.79,222.3c-8.568-0.226-14.86-0.848-16.417-1.622c-0.916-0.456-2.021-2.557-2.238-4.252c-0.129-1.013,0.063-2.36,0.448-3.127   c1.006-2.009,3.406-2.855,9.267-3.267c2.451-0.173,11.427-0.104,22.359,0.169c5.355,0.135,9.748,0.255,9.762,0.269   c0.013,0.013,0.149,1.075,0.303,2.361c0.403,3.378,0.384,4.705-0.091,6.188c-0.379,1.183-1.01,1.937-1.838,2.196   c-1.566,0.49-4.613,0.818-9.468,1.02C225.602,222.329,218.375,222.367,215.79,222.3L215.79,222.3z"
       enable-background="new    "
       stroke-linejoin="round"
       stroke-width="1.0289"
       stroke="#FFFFFF"
       fill="#FFFFFF"
       opacity="0.99"
       id="path4558" /><path
       d="   M215.421,271.181c-0.529-0.188-1.722-1.016-2.586-1.794c-2.622-2.36-3.518-4.614-2.741-6.897c0.207-0.607,0.659-1.476,0.968-1.858   c1.348-1.668,8.864-6.293,18.489-11.377c1.705-0.901,6.344-3.197,7.901-3.912c2.89-1.326,5.076-2.156,5.927-2.251   c0.53-0.06,1.08,0.083,1.942,0.501c0.79,0.384,1.377,0.814,1.975,1.45c2.074,2.204,2.406,5.523,0.711,7.106   c-3.341,3.119-24.789,16.134-30.854,18.722c-0.382,0.163-0.8,0.317-0.929,0.344c-0.129,0.025-0.279,0.059-0.335,0.072   C215.835,271.301,215.624,271.253,215.421,271.181L215.421,271.181z"
       enable-background="new    "
       stroke-linejoin="round"
       stroke-width="1.0289"
       stroke="#FFFFFF"
       fill="#FFFFFF"
       opacity="0.99"
       id="path4560" /><path
       d="   M249.908,305.611c-0.66-0.146-1.618-0.469-2.133-0.72c-0.471-0.229-1.021-0.787-1.246-1.262c-0.501-1.061-0.489-2.745,0.035-4.809   c0.813-3.206,3.17-8.318,6.83-14.82c5.169-9.182,8.487-13.917,11.155-15.921c1.153-0.866,2.048-1.213,3.104-1.203   c1.198,0.011,2.245,0.531,3.413,1.696c0.782,0.779,1.064,1.204,1.346,2.024c1.096,3.194-0.84,8.345-7.261,19.323   c-4.525,7.737-7.06,11.438-9.303,13.587c-1.078,1.033-2.3,1.801-3.296,2.07C251.927,305.747,250.604,305.764,249.908,305.611   L249.908,305.611z"
       enable-background="new    "
       stroke-linejoin="round"
       stroke-width="1.0289"
       stroke="#FFFFFF"
       fill="#FFFFFF"
       opacity="0.99"
       id="path4562" /><path
       d="   M299.037,318.596c-0.482-0.088-1.228-0.325-1.711-0.544c-1.014-0.46-2.137-1.38-2.458-2.015c-0.924-1.822-1.345-7.97-1.172-17.097   c0.224-11.775,0.599-16.895,1.421-19.411c0.508-1.554,1.26-2.397,2.75-3.085c0.785-0.363,1.252-0.458,2.063-0.422   c0.989,0.045,1.793,0.354,2.846,1.091c1.294,0.906,1.933,2.662,2.341,6.433c0.441,4.073,0.75,13.458,0.685,20.832   c-0.035,4.018-0.069,4.922-0.25,6.649c-0.499,4.771-1.626,6.854-4.021,7.433C300.894,318.614,299.539,318.688,299.037,318.596z"
       enable-background="new    "
       stroke-linejoin="round"
       stroke-width="1.0289"
       stroke="#FFFFFF"
       fill="#FFFFFF"
       opacity="0.99"
       id="path4564" /><path
       d="   M347.676,305.904c-0.055-0.011-0.326-0.057-0.603-0.102c-1.019-0.165-2.121-0.669-2.764-1.264   c-1.934-1.79-7.735-11.529-12.711-21.334c-2.605-5.136-4.121-8.54-4.62-10.377c-0.191-0.706-0.155-1.231,0.134-1.922   c0.29-0.696,0.642-1.262,1.115-1.795c1.785-2.011,4.444-2.918,6.548-2.235c1.065,0.346,3.819,4.015,8.361,11.139   c3.842,6.027,8.652,14.359,10.273,17.796c0.692,1.468,0.852,1.819,1.098,2.428c0.424,1.045,0.558,1.626,0.51,2.198   c-0.195,2.311-1.869,4.261-4.375,5.099C349.733,305.838,348.271,306.02,347.676,305.904z"
       enable-background="new    "
       stroke-linejoin="round"
       stroke-width="1.0289"
       stroke="#FFFFFF"
       fill="#FFFFFF"
       opacity="0.99"
       id="path4566" /><path
       d="   M382.129,270.775c-1.642-0.888-7.167-4.014-9.776-5.532c-0.663-0.385-1.507-0.876-1.875-1.089c-3.79-2.199-5.781-3.372-7.026-4.138   c-5.76-3.542-10.151-6.584-11.655-8.075c-0.635-0.629-0.694-0.71-0.812-1.113c-0.102-0.347-0.126-0.635-0.121-1.406   c0.006-0.852,0.029-1.046,0.188-1.574c0.594-1.971,2.108-3.797,3.806-4.588c0.969-0.451,1.955-0.544,2.896-0.271   c2.426,0.701,7.911,3.333,13.728,6.586c2.829,1.582,7.541,4.386,10.078,5.997c3.264,2.071,5.049,3.385,6.297,4.63   c1.018,1.016,1.607,1.966,1.812,2.914c0.133,0.619,0.104,1.583-0.064,2.21c-0.193,0.714-0.847,2.016-1.344,2.679   c-1.428,1.9-3.476,3.256-4.901,3.245C383.044,271.246,382.893,271.188,382.129,270.775L382.129,270.775z"
       enable-background="new    "
       stroke-linejoin="round"
       stroke-width="1.0289"
       stroke="#FFFFFF"
       fill="#FFFFFF"
       opacity="0.99"
       id="path4568" /><path
       d="   M375.205,222.298c-7.066-0.194-11.542-0.681-12.944-1.405c-1.502-0.777-2.561-2.979-2.537-5.275   c0.042-4.156,2.528-5.325,12.417-5.837c5.217-0.27,22.567-0.13,25.035,0.201c2.117,0.285,3.598,0.79,4.307,1.469   c0.875,0.838,1.687,2.692,1.801,4.111c0.148,1.853-0.772,4.148-2.112,5.268c-0.687,0.573-2.658,1.063-5.073,1.261   C392.882,222.354,381.379,222.468,375.205,222.298L375.205,222.298z"
       enable-background="new    "
       stroke-linejoin="round"
       stroke-width="2.9102"
       stroke="#FFFFFF"
       fill="#FFFFFF"
       opacity="0.99"
       id="path4572" /><path
       d="   M119.51,272.549c-17.958-0.133-32.536-0.711-37.531-1.489c-5.264-0.819-12.773-4.312-18.438-8.575   c-2.396-1.804-6.362-5.628-8.001-7.717c-5.177-6.595-8.496-14.797-9.424-23.284c-0.277-2.537-0.229-8.384,0.093-11.135   c1.221-10.429,5.448-19.542,12.399-26.727c5.779-5.972,11.94-9.725,18.989-11.564c5.099-1.33,9.508-1.868,15.301-1.865   c4.866,0.002,6.267,0.176,11.837,1.467c1.979,0.459,3.622,0.81,3.651,0.779c0.03-0.029,0.559-2.568,1.175-5.641   c1.666-8.303,2.582-11.598,4.669-16.779c9.293-23.081,30.287-41.776,54.903-48.893c10.476-3.028,28.813-3.517,40.282-1.072   c3.419,0.729,8.792,2.577,14.021,4.824c2.519,1.082,7.22,3.449,7.889,3.972l0.446,0.349l-0.383,0.742   c-0.21,0.408-0.922,1.388-1.582,2.178c-1.533,1.834-7.561,8.129-7.783,8.129c-0.093,0-1.931-0.778-4.085-1.729   c-7.025-3.104-10.766-4.144-18.03-5.016c-3.706-0.445-11.46-0.448-15.527-0.006c-11.558,1.257-20.949,4.33-28.613,9.363   c-7.888,5.181-14.06,10.755-19.15,17.294c-6.003,7.713-9.753,16.466-11.98,27.967c-0.646,3.332-0.917,5.184-1.715,11.703   c-0.731,5.983-1.458,10.684-1.856,12.019l-0.255,0.852l-1.029-0.035c-1.292-0.044-5.172-1.282-10.688-3.411   c-7.979-3.078-13.155-4.716-15.763-4.986c-5.575-0.578-13.357,1.797-19.467,5.94c-2.188,1.484-6.397,5.684-8.1,8.08   c-2.367,3.333-4.368,7.879-5.272,11.976c-0.571,2.589-0.706,7.878-0.271,10.658c1.564,9.99,7.888,18.47,17.283,23.177   c4.316,2.163,7.7,2.562,24.248,2.866c5.392,0.099,26.814,0.182,47.606,0.185l37.804,0.005l4.765,7.664   c2.621,4.215,4.765,7.709,4.765,7.766C196.691,272.669,132.587,272.646,119.51,272.549L119.51,272.549z"
       enable-background="new    "
       stroke-linejoin="round"
       stroke-width="2.9102"
       stroke="#FFFFFF"
       fill="#FFFFFF"
       opacity="0.99"
       id="path4500" /></g></svg>