<?xml version="1.0" encoding="UTF-8" standalone="no"?>
<!-- Created with Inkscape (http://www.inkscape.org/) -->

<svg
   xmlns:dc="http://purl.org/dc/elements/1.1/"
   xmlns:cc="http://creativecommons.org/ns#"
   xmlns:rdf="http://www.w3.org/1999/02/22-rdf-syntax-ns#"
   xmlns:svg="http://www.w3.org/2000/svg"
   xmlns="http://www.w3.org/2000/svg"
   xmlns:sodipodi="http://sodipodi.sourceforge.net/DTD/sodipodi-0.dtd"
   xmlns:inkscape="http://www.inkscape.org/namespaces/inkscape"
   width="126.84397mm"
   height="74.663979mm"
   viewBox="0 0 126.84397 74.663979"
   version="1.1"
   id="svg8"
   inkscape:version="0.92.1 r15371"
   sodipodi:docname="weather.svg">
  <defs
     id="defs2" />
  <sodipodi:namedview
     id="base"
     pagecolor="#ffffff"
     bordercolor="#666666"
     borderopacity="1.0"
     inkscape:pageopacity="0.0"
     inkscape:pageshadow="2"
     inkscape:zoom="3.959798"
     inkscape:cx="280.49928"
     inkscape:cy="149.25349"
     inkscape:document-units="mm"
     inkscape:current-layer="layer2"
     showgrid="false"
     inkscape:window-width="3000"
     inkscape:window-height="1881"
     inkscape:window-x="-14"
     inkscape:window-y="-14"
     inkscape:window-maximized="1"
     fit-margin-top="0"
     fit-margin-left="0"
     fit-margin-right="0"
     fit-margin-bottom="0" />
  <metadata
     id="metadata5">
    <rdf:RDF>
      <cc:Work
         rdf:about="">
        <dc:format>image/svg+xml</dc:format>
        <dc:type
           rdf:resource="http://purl.org/dc/dcmitype/StillImage" />
        <dc:title></dc:title>
      </cc:Work>
    </rdf:RDF>
  </metadata>
  <g
     inkscape:groupmode="layer"
     id="layer2"
     inkscape:label="Layer 2"
     transform="translate(0.33193722,0.35952799)" />
  <g
     inkscape:label="Layer 1"
     inkscape:groupmode="layer"
     id="layer1"
     transform="translate(-44.835208,-107.38618)">
    <path
       style="fill:#c6c6c6;fill-opacity:1;stroke-width:0.55697429"
       d="m 133.14106,181.13031 c -0.4257,-0.51293 -0.5904,-2.89986 -0.48592,-7.04202 0.13241,-5.2532 0.31559,-6.36526 1.13273,-6.8796 0.70971,-0.44672 1.23972,-0.44672 1.94941,0 0.81716,0.51434 1.00026,1.6264 1.13275,6.8796 0.16378,6.49191 -0.19367,7.81796 -2.10746,7.81796 -0.53764,0 -1.26733,-0.34918 -1.62151,-0.77594 z m -16.61938,-4.03843 c -1.32965,-0.55618 -0.68029,-2.8928 2.20553,-7.93645 2.9211,-5.10531 4.26813,-6.28672 5.75808,-5.05018 1.36598,1.13366 0.90774,2.84041 -2.16229,8.05394 -2.86483,4.86506 -3.88644,5.73371 -5.80132,4.93269 z m 34.07861,-0.0676 c -1.08953,-0.75184 -6.45388,-10.69767 -6.27101,-11.62691 0.2378,-1.2082 1.76029,-2.13215 2.83427,-1.72003 0.94793,0.36376 7.09313,10.48407 7.09313,11.68143 0,1.64507 -2.22031,2.65644 -3.65639,1.66551 z M 56.966736,164.95234 c -7.769658,-2.42943 -12.322737,-8.99924 -11.751495,-16.95668 0.421345,-5.86936 3.659378,-10.81668 8.794004,-13.43616 2.695155,-1.37497 7.820968,-1.9525 10.934061,-1.23192 l 2.308899,0.5344 0.637146,-3.23855 c 1.998834,-10.15989 10.317528,-18.92815 20.839244,-21.96548 4.06675,-1.17397 11.435695,-1.2227 15.214115,-0.10062 2.45891,0.73022 6.10044,2.3138 6.83192,2.97097 0.1322,0.11873 -0.58189,1.0644 -1.58691,2.10133 l -1.82733,1.88531 -2.43652,-1.07779 c -5.230055,-2.31351 -13.681325,-1.87308 -19.369669,1.00943 -1.505982,0.76315 -3.97916,2.54835 -5.495954,3.96713 -4.730808,4.42511 -6.752017,8.86424 -7.611273,16.71645 -0.278658,2.54645 -0.640483,4.76378 -0.804055,4.92734 -0.163566,0.16357 -1.935608,-0.35797 -3.937857,-1.159 -2.002249,-0.80104 -4.354687,-1.59927 -5.227644,-1.77384 -2.375738,-0.47517 -6.007995,0.71781 -8.292372,2.72353 -6.167068,5.41476 -5.085626,14.56005 2.161212,18.27646 1.90767,0.9783 3.474162,1.05973 20.385552,1.05973 h 18.319085 l 1.73117,2.78487 1.73117,2.78488 -19.610334,-0.0373 c -14.485729,-0.0275 -20.218128,-0.22727 -21.936165,-0.76447 z m 46.923554,-0.63045 c -0.94927,-0.94928 -1.09071,-1.83458 -0.44898,-2.81029 0.72876,-1.10806 10.62622,-6.43855 11.59945,-6.24716 1.39661,0.2747 2.29041,1.94644 1.614,3.01878 -0.52507,0.8324 -10.63197,6.9139 -11.49028,6.9139 -0.21942,0 -0.7928,-0.39386 -1.27419,-0.87523 z m 54.70519,-2.29479 c -2.97452,-1.7332 -5.54266,-3.50159 -5.70699,-3.92978 -0.46066,-1.20048 0.71868,-2.92573 1.99997,-2.92573 0.63225,0 3.50577,1.38671 6.38561,3.08159 4.33013,2.54841 5.23604,3.31593 5.23604,4.43618 0,1.08741 -1.36429,2.54997 -2.33051,2.49837 -0.0966,-0.004 -2.60957,-1.42744 -5.58412,-3.16063 z m -28.27037,1.75207 c -8.46262,-2.35948 -13.94268,-9.46415 -13.94268,-18.07613 0,-8.83873 5.58748,-15.8669 14.41157,-18.12752 14.5295,-3.7223 27.42732,11.98182 21.06363,25.64666 -3.92191,8.42154 -13.08267,12.91289 -21.53252,10.55699 z M 99.227615,147.26256 c -0.3676,-0.36762 -0.66836,-1.08882 -0.66836,-1.60272 0,-1.88343 1.35299,-2.22581 8.155125,-2.06367 l 6.60468,0.15746 0.18378,1.61051 c 0.10441,0.91473 -0.1362,1.81337 -0.55697,2.08011 -1.18509,0.75129 -12.94107,0.59559 -13.718335,-0.18167 z m 57.368355,0 c -0.36761,-0.36762 -0.66836,-1.06939 -0.66836,-1.55952 0,-1.88403 1.21773,-2.22791 7.88943,-2.22791 5.98267,0 6.60458,0.0968 7.14887,1.11395 0.42357,0.79146 0.42357,1.43644 0,2.22789 -0.54429,1.01706 -1.1662,1.11396 -7.14887,1.11396 -4.3539,0 -6.77697,-0.22428 -7.22107,-0.66837 z m -47.87559,-13.96008 c -5.08913,-2.87862 -6.05117,-3.8733 -5.39641,-5.57958 0.62819,-1.63706 2.0641,-1.53643 5.56927,0.39026 7.96361,4.37734 9.20219,5.62853 7.37781,7.45294 -1.10295,1.10294 -2.15822,0.78659 -7.55067,-2.26362 z m 44.44395,1.85839 c -0.95465,-1.78376 -0.16231,-2.62694 5.51548,-5.86993 5.52875,-3.15782 6.7743,-3.38426 7.8242,-1.4225 0.82869,1.54843 -0.13915,2.39853 -7.4273,6.52322 -3.72986,2.11091 -5.099,2.28905 -5.91238,0.76921 z m -31.01837,-7.70728 c -1.15014,-0.73346 -6.3205,-10.20786 -6.3205,-11.58201 0,-0.95428 0.39018,-1.43582 1.36078,-1.67942 0.74842,-0.18778 1.59051,-0.19957 1.87128,-0.0261 0.91831,0.56754 6.23651,10.20959 6.23651,11.30696 0,1.87396 -1.6688,2.92383 -3.14807,1.9805 z m 23.05989,-0.16778 c -1.50361,-0.88732 -1.18999,-2.0715 1.96681,-7.42624 3.23592,-5.48896 4.31312,-6.5172 5.83084,-5.5658 1.703,1.06756 1.33193,2.59188 -1.95038,8.0123 -3.22341,5.32313 -4.05922,6.03492 -5.84727,4.97974 z m -12.06479,-3.52368 c -0.4257,-0.51293 -0.5904,-2.89986 -0.48592,-7.04202 0.13241,-5.25322 0.31559,-6.36526 1.13273,-6.87962 0.70971,-0.44672 1.23972,-0.44672 1.94941,0 0.81716,0.51436 1.00026,1.6264 1.13275,6.87962 0.16378,6.49191 -0.19367,7.81796 -2.10746,7.81796 -0.53764,0 -1.26733,-0.34917 -1.62151,-0.77594 z"
       id="path4535"
       inkscape:connector-curvature="0" />
    <path
       style="opacity:0.98999999;fill:#faeb00;fill-opacity:1;stroke:#faeb00;stroke-width:8.23127174;stroke-linejoin:round;stroke-miterlimit:4;stroke-dasharray:none;stroke-opacity:1"
       d="m 330.7856,213.94817 c -15.19062,-2.00833 -31.08598,-9.99523 -42.17034,-21.1892 -12.28603,-12.40752 -18.71459,-27.84386 -19.41729,-46.62503 -0.74147,-19.81755 5.11749,-36.50806 17.5918,-50.114017 17.22623,-18.788958 45.75625,-27.556866 69.55568,-21.376006 26.88242,6.981531 48.14825,30.728363 52.67412,58.819393 1.17312,7.28127 0.53662,19.94938 -1.36458,27.15905 -5.36786,20.35579 -21.21786,38.99024 -40.66386,47.80748 -10.33509,4.68615 -25.27566,6.96335 -36.20553,5.51833 z"
       id="path4483"
       inkscape:connector-curvature="0"
       transform="matrix(0.26458333,0,0,0.26458333,45.167145,107.74571)" />
    <path
       style="opacity:0.98999999;fill:#faeb00;fill-opacity:1;stroke:#f5e905;stroke-width:1.02890897;stroke-linejoin:round;stroke-miterlimit:4;stroke-dasharray:none;stroke-opacity:1"
       d="m 337.00962,63.289879 c -1.86391,-0.502723 -4.01296,-1.859891 -4.72091,-2.981345 -1.61082,-2.551713 -2.12837,-12.929866 -1.54117,-30.904321 0.4918,-15.054248 1.20249,-19.141882 3.6823,-21.1795337 0.55553,-0.4564729 1.63937,-1.0280589 2.48869,-1.3124615 1.66643,-0.5580207 3.16854,-0.3292546 5.09796,0.776404 3.26523,1.8711453 3.94825,5.3261232 4.54008,22.9655912 0.15275,4.5527 0.21044,16.218427 0.0923,18.660714 -0.27482,5.680553 -0.84573,8.845666 -1.99495,11.060106 -0.52741,1.016263 -1.49306,1.990486 -2.39437,2.41562 -1.06178,0.500828 -1.5726,0.604545 -3.16416,0.642451 -1.21697,0.02899 -1.52591,0.0078 -2.08575,-0.143225 z"
       id="path4548"
       inkscape:connector-curvature="0"
       transform="matrix(0.26458333,0,0,0.26458333,45.167145,107.74571)" />
    <path
       style="opacity:0.98999999;fill:#faeb00;fill-opacity:1;stroke:#f5e905;stroke-width:1.02890897;stroke-linejoin:round;stroke-miterlimit:4;stroke-dasharray:none;stroke-opacity:1"
       d="m 381.144,75.255956 c -1.7382,-0.45586 -3.90494,-1.70646 -5.01793,-2.896252 -1.60739,-1.718309 -1.76538,-3.823416 -0.56019,-7.464419 1.21094,-3.658359 4.11306,-9.271239 9.62539,-18.616072 6.47205,-10.971814 10.0452,-16.293523 13.0603,-19.451496 1.60343,-1.679408 3.20932,-2.796683 4.50473,-3.134095 0.67682,-0.176287 1.91023,-0.176408 2.59263,-2.55e-4 1.33654,0.345008 3.27104,1.555158 4.34429,2.717611 1.95657,2.119204 2.17707,4.838112 0.74237,9.153949 -1.26258,3.798082 -4.1052,9.327322 -8.97393,17.455358 -8.96929,14.973679 -13.04211,20.383779 -16.50923,21.929908 -1.14269,0.509569 -2.58866,0.62566 -3.80843,0.305763 z"
       id="path4550"
       inkscape:connector-curvature="0"
       transform="matrix(0.26458333,0,0,0.26458333,45.167145,107.74571)" />
    <path
       style="opacity:0.98999999;fill:#faeb00;fill-opacity:1;stroke:#f5e905;stroke-width:1.02890897;stroke-linejoin:round;stroke-miterlimit:4;stroke-dasharray:none;stroke-opacity:1"
       d="m 294.18813,75.77811 c -0.85379,-0.124387 -1.45869,-0.325272 -2.45883,-0.816563 -0.75427,-0.370517 -1.05446,-0.579063 -1.53595,-1.067049 -3.13985,-3.182213 -10.72998,-15.81783 -17.12464,-28.508142 -3.40589,-6.759042 -5.21392,-10.924364 -5.85059,-13.478514 -0.21675,-0.869531 -0.23719,-1.076133 -0.18355,-1.855006 0.2218,-3.220298 1.7103,-4.864231 5.1858,-5.727302 2.54697,-0.632487 5.25765,-0.741399 6.6818,-0.268466 0.51794,0.171996 1.0863,0.721792 2.04385,1.977086 5.36108,7.028059 19.12661,32.143314 21.51979,39.262916 0.43806,1.303212 0.4928,1.905653 0.2954,3.251223 -0.57156,3.896019 -2.96026,6.602563 -6.34868,7.193455 -0.84532,0.147411 -1.39994,0.156478 -2.2244,0.03636 z"
       id="path4552"
       inkscape:connector-curvature="0"
       transform="matrix(0.26458333,0,0,0.26458333,45.167145,107.74571)" />
    <path
       style="opacity:0.98999999;fill:#faeb00;fill-opacity:1;stroke:#f5e905;stroke-width:1.02890897;stroke-linejoin:round;stroke-miterlimit:4;stroke-dasharray:none;stroke-opacity:1"
       d="m 262.9793,107.33562 c -2.15548,-0.34129 -4.04291,-0.97538 -7.32143,-2.45966 -3.47043,-1.57117 -10.92873,-5.596147 -18.70536,-10.094608 -10.98932,-6.356882 -15.52184,-9.829209 -17.1447,-13.134417 -0.54919,-1.118503 -0.70083,-1.762795 -0.69597,-2.957008 0.0117,-2.861662 1.68317,-6.004886 3.70354,-6.964354 1.00265,-0.47616 1.76493,-0.607119 3.19963,-0.549696 3.54984,0.142078 8.0265,1.958723 16.70933,6.780711 4.97201,2.761195 5.8205,3.240581 9.0496,5.112903 10.4793,6.076185 15.92364,9.994053 18.29442,13.165079 2.34395,3.135137 1.93193,5.76215 -1.42299,9.07294 -1.0518,1.03797 -2.27179,1.72575 -3.46664,1.95436 -0.64524,0.12346 -1.66876,0.15778 -2.19943,0.0738 z"
       id="path4554"
       inkscape:connector-curvature="0"
       transform="matrix(0.26458333,0,0,0.26458333,45.167145,107.74571)" />
    <path
       style="opacity:0.98999999;fill:#faeb00;fill-opacity:1;stroke:#f5e905;stroke-width:1.02890897;stroke-linejoin:round;stroke-miterlimit:4;stroke-dasharray:none;stroke-opacity:1"
       d="m 412.19374,107.21473 c -0.90116,-0.23608 -1.64929,-0.65627 -2.35996,-1.32545 -0.76822,-0.72337 -1.28744,-1.45308 -1.89605,-2.66469 -1.58166,-3.14869 -1.45128,-5.277338 0.47546,-7.76243 2.16269,-2.789426 6.75293,-6.039 16.75361,-11.860422 10.9873,-6.395732 17.73449,-9.877308 21.91506,-11.308253 6.04943,-2.070623 8.98842,-1.1121 11.55324,3.767978 1.11485,2.121207 1.21516,3.556951 0.36692,5.251394 -1.75164,3.499075 -7.87685,7.743846 -26.20129,18.157512 -9.13726,5.192651 -13.43573,7.158761 -17.02277,7.786211 -1.10614,0.19348 -2.75965,0.17418 -3.58422,-0.0418 z"
       id="path4556"
       inkscape:connector-curvature="0"
       transform="matrix(0.26458333,0,0,0.26458333,45.167145,107.74571)" />
    <path
       style="opacity:0.98999999;fill:#faeb00;fill-opacity:1;stroke:#f5e905;stroke-width:1.02890897;stroke-linejoin:round;stroke-miterlimit:4;stroke-dasharray:none;stroke-opacity:1"
       d="m 226.68466,151.85914 c -11.42403,-0.30056 -19.81329,-1.12939 -21.88942,-2.16259 -1.2208,-0.60754 -2.69529,-3.40906 -2.98355,-5.66875 -0.17227,-1.35042 0.085,-3.1477 0.59686,-4.16958 1.34177,-2.6787 4.5421,-3.80686 12.35646,-4.35583 3.26834,-0.2296 15.23494,-0.13888 29.81267,0.22601 7.14027,0.17872 12.99683,0.33948 13.01459,0.35724 0.0178,0.0177 0.19974,1.43464 0.40441,3.14864 0.53785,4.50425 0.51181,6.27335 -0.12145,8.25029 -0.50506,1.57674 -1.34623,2.58187 -2.45024,2.92784 -2.08826,0.65441 -6.1508,1.09208 -12.62426,1.36005 -3.0331,0.12555 -12.66884,0.17738 -16.11607,0.0867 z"
       id="path4558"
       inkscape:connector-curvature="0"
       transform="matrix(0.26458333,0,0,0.26458333,45.167145,107.74571)" />
    <path
       style="opacity:0.98999999;fill:#faeb00;fill-opacity:1;stroke:#f5e905;stroke-width:1.02890897;stroke-linejoin:round;stroke-miterlimit:4;stroke-dasharray:none;stroke-opacity:1"
       d="m 226.19359,217.03405 c -0.70578,-0.25124 -2.29639,-1.35446 -3.44889,-2.39209 -3.4959,-3.14746 -4.68971,-6.15211 -3.65411,-9.19689 0.27542,-0.80978 0.87841,-1.96775 1.28981,-2.47693 1.79708,-2.22418 11.81935,-8.39153 24.65247,-15.17024 2.27377,-1.20105 8.45843,-4.26312 10.53572,-5.2163 3.85214,-1.7676 6.76801,-2.87506 7.90178,-3.00114 0.70674,-0.0786 1.43954,0.11064 2.58929,0.66864 1.05425,0.51165 1.837,1.08611 2.63393,1.93301 2.76563,2.9391 3.20778,7.36473 0.94672,9.47604 -4.45361,4.15864 -33.05131,21.51158 -41.13676,24.96158 -0.50932,0.21732 -1.06666,0.42346 -1.23854,0.45808 -0.17187,0.0346 -0.37276,0.0783 -0.44642,0.097 -0.0737,0.0187 -0.35491,-0.0446 -0.625,-0.14076 z"
       id="path4560"
       inkscape:connector-curvature="0"
       transform="matrix(0.26458333,0,0,0.26458333,45.167145,107.74571)" />
    <path
       style="opacity:0.98999999;fill:#faeb00;fill-opacity:1;stroke:#f5e905;stroke-width:1.02890897;stroke-linejoin:round;stroke-miterlimit:4;stroke-dasharray:none;stroke-opacity:1"
       d="m 272.17573,262.93977 c -0.87934,-0.19383 -2.15702,-0.62466 -2.84388,-0.95894 -0.62658,-0.30495 -1.36093,-1.04908 -1.66077,-1.6829 -0.66877,-1.41366 -0.65257,-3.66016 0.0462,-6.41166 1.0855,-4.27409 4.22752,-11.09103 9.10731,-19.75927 6.89219,-12.24298 11.31599,-18.55686 14.87376,-21.22862 1.53768,-1.15474 2.73017,-1.61711 4.13805,-1.60446 1.59707,0.0143 2.99342,0.70838 4.55115,2.26208 1.04251,1.03982 1.41851,1.60569 1.79396,2.69989 1.4612,4.25842 -1.11944,11.12599 -9.68154,25.76438 -6.03412,10.31639 -9.41179,15.2497 -12.40297,18.11536 -1.4384,1.37804 -3.06728,2.40138 -4.39453,2.76083 -0.83438,0.22598 -2.59972,0.24766 -3.52678,0.0433 z"
       id="path4562"
       inkscape:connector-curvature="0"
       transform="matrix(0.26458333,0,0,0.26458333,45.167145,107.74571)" />
    <path
       style="opacity:0.98999999;fill:#faeb00;fill-opacity:1;stroke:#f5e905;stroke-width:1.02890897;stroke-linejoin:round;stroke-miterlimit:4;stroke-dasharray:none;stroke-opacity:1"
       d="m 337.68106,280.25454 c -0.64279,-0.11736 -1.63647,-0.43349 -2.28115,-0.72573 -1.35195,-0.61285 -2.84835,-1.83947 -3.27772,-2.68679 -1.23098,-2.42923 -1.79248,-10.62605 -1.5615,-22.79495 0.29803,-15.70099 0.79745,-22.52596 1.89391,-25.8818 0.67681,-2.07144 1.67974,-3.19658 3.66686,-4.11368 1.04704,-0.48324 1.66937,-0.61023 2.7507,-0.56132 1.31966,0.0597 2.39148,0.47022 3.79505,1.45358 1.72457,1.20826 2.57676,3.54993 3.12137,8.57695 0.58844,5.43171 0.99947,17.94446 0.9124,27.77565 -0.0475,5.35768 -0.0928,6.5629 -0.3338,8.86669 -0.6653,6.36042 -2.16811,9.1378 -5.36221,9.91004 -0.84799,0.20502 -2.65445,0.30359 -3.32391,0.18136 z"
       id="path4564"
       inkscape:connector-curvature="0"
       transform="matrix(0.26458333,0,0,0.26458333,45.167145,107.74571)" />
    <path
       style="opacity:0.98999999;fill:#faeb00;fill-opacity:1;stroke:#f5e905;stroke-width:1.02890897;stroke-linejoin:round;stroke-miterlimit:4;stroke-dasharray:none;stroke-opacity:1"
       d="m 402.53287,263.33047 c -0.0737,-0.0144 -0.43527,-0.075 -0.80357,-0.13465 -1.35835,-0.21992 -2.82818,-0.8923 -3.68535,-1.68588 -2.57749,-2.38631 -10.31365,-15.37117 -16.94706,-28.44501 -3.4742,-6.84733 -5.4954,-11.38705 -6.16015,-13.83599 -0.25557,-0.94152 -0.20704,-1.64103 0.17777,-2.56254 0.38765,-0.92828 0.856,-1.68168 1.48778,-2.39326 2.38001,-2.68062 5.92504,-3.89083 8.72992,-2.98022 1.42058,0.46119 5.09198,5.3524 11.14836,14.85236 5.12266,8.03535 11.53677,19.14553 13.69778,23.72657 0.92324,1.95714 1.13566,2.42691 1.46402,3.23772 0.56433,1.39352 0.74362,2.16725 0.67909,2.93068 -0.2604,3.08046 -2.49214,5.68139 -5.83292,6.79784 -1.213,0.40538 -3.16171,0.64794 -3.95567,0.49238 z"
       id="path4566"
       inkscape:connector-curvature="0"
       transform="matrix(0.26458333,0,0,0.26458333,45.167145,107.74571)" />
    <path
       style="opacity:0.98999999;fill:#faeb00;fill-opacity:1;stroke:#f5e905;stroke-width:1.02890897;stroke-linejoin:round;stroke-miterlimit:4;stroke-dasharray:none;stroke-opacity:1"
       d="m 448.47037,216.4926 c -2.18873,-1.18343 -9.55591,-5.35205 -13.03571,-7.37609 -0.88393,-0.51414 -2.00893,-1.16796 -2.5,-1.45293 -5.05257,-2.932 -7.70841,-4.49588 -9.36798,-5.5163 -7.68009,-4.72222 -13.53551,-8.77894 -15.5407,-10.76682 -0.84613,-0.83882 -0.92508,-0.94715 -1.08237,-1.48518 -0.13481,-0.46111 -0.16781,-0.84635 -0.16065,-1.875 0.008,-1.13459 0.0389,-1.39398 0.25099,-2.09821 0.79115,-2.62745 2.81079,-5.06227 5.0744,-6.11755 1.29075,-0.60175 2.60657,-0.72507 3.86179,-0.36194 3.23373,0.93551 10.54787,4.44474 18.3038,8.78192 3.77223,2.10946 10.0542,5.84709 13.4375,7.995 4.3505,2.76194 6.73156,4.51307 8.39555,6.17444 1.35615,1.35401 2.14301,2.61986 2.4151,3.88527 0.17746,0.82527 0.13993,2.10975 -0.0861,2.94643 -0.25699,0.95135 -1.12828,2.68782 -1.79202,3.57143 -1.90318,2.53365 -4.63305,4.34113 -6.53473,4.32674 -0.41921,-0.003 -0.62133,-0.081 -1.6389,-0.63121 z"
       id="path4568"
       inkscape:connector-curvature="0"
       transform="matrix(0.26458333,0,0,0.26458333,45.167145,107.74571)" />
    <path
       style="opacity:0.98999999;fill:#faeb00;fill-opacity:1;stroke:#f5e905;stroke-width:2.91019392;stroke-linejoin:round;stroke-miterlimit:4;stroke-dasharray:none;stroke-opacity:1"
       d="m 439.23782,151.85696 c -9.42108,-0.25941 -15.38917,-0.90756 -17.25869,-1.87432 -2.00226,-1.03541 -3.41454,-3.97153 -3.38329,-7.03382 0.0565,-5.5413 3.37158,-7.09932 16.55719,-7.78164 6.95452,-0.35988 30.0886,-0.17406 33.37922,0.26811 2.82338,0.37938 4.79779,1.05244 5.74256,1.95758 1.16634,1.11743 2.24916,3.58996 2.40109,5.48271 0.19819,2.46901 -1.03001,5.53142 -2.81651,7.02272 -0.9156,0.76431 -3.54391,1.41767 -6.76424,1.68149 -4.28727,0.35124 -19.62545,0.50385 -27.85733,0.27717 z"
       id="path4572"
       inkscape:connector-curvature="0"
       transform="matrix(0.26458333,0,0,0.26458333,45.167145,107.74571)" />
    <path
       style="opacity:0.98999999;fill:#ffffff;fill-opacity:1;stroke:#ffffff;stroke-width:2.91019392;stroke-linejoin:round;stroke-miterlimit:4;stroke-dasharray:none;stroke-opacity:1"
       d="m 98.311341,218.8586 c -23.94383,-0.17728 -43.38175,-0.94873 -50.041936,-1.98604 -7.017914,-1.09304 -17.031278,-5.75026 -24.583082,-11.43362 -3.194948,-2.40445 -8.48284,-7.50431 -10.668335,-10.28896 C 6.1166219,186.35658 1.6905766,175.42058 0.45298111,164.104 0.08309679,160.72177 0.14854531,152.92638 0.5776225,149.25831 c 1.626622,-13.90557 7.2640086,-26.05698 16.5322005,-35.63524 7.705501,-7.96329 15.920186,-12.96616 25.318491,-15.419358 6.798299,-1.774532 12.677174,-2.491387 20.401419,-2.487697 6.488384,0.0031 8.355573,0.234514 15.782088,1.955993 2.638175,0.611534 4.82931,1.07925 4.869193,1.039369 0.03988,-0.03988 0.744808,-3.424397 1.566507,-7.521146 2.220522,-11.070898 3.44262,-15.463511 6.224343,-22.372298 12.391086,-30.774959 40.383166,-55.702422 73.204466,-65.18992 13.96761,-4.03755002 38.41802,-4.6886062 53.71026,-1.4301765 4.55825,0.9712589 11.72271,3.4364854 18.69343,6.4322427 3.35858,1.4433918 9.62668,4.5995448 10.51852,5.2963468 l 0.59478,0.464704 -0.50969,0.989028 c -0.28032,0.543966 -1.22983,1.850602 -2.11,2.903636 -2.04375,2.445127 -10.07974,10.838569 -10.37699,10.838569 -0.12377,0 -2.57489,-1.037823 -5.44691,-2.306272 -9.36722,-4.137102 -14.35351,-5.524101 -24.04071,-6.687222 -4.94088,-0.593241 -15.27997,-0.596862 -20.70337,-0.0073 -15.40993,1.675308 -27.93188,5.773075 -38.15026,12.484544 -10.51687,6.907524 -18.74656,14.3394 -25.53336,23.058067 -8.00501,10.283618 -13.00488,21.954267 -15.97506,37.288758 -0.86057,4.44299 -1.22213,6.911313 -2.28575,15.604422 -0.97608,7.97762 -1.94448,14.24484 -2.47605,16.02437 l -0.33947,1.13642 -1.372257,-0.0472 c -1.722994,-0.0593 -6.896341,-1.71028 -14.251699,-4.54816 -10.639424,-4.10495 -17.539943,-6.28784 -21.016655,-6.64835 -7.433359,-0.7708 -17.809886,2.39577 -25.955438,7.92073 -2.918028,1.97924 -8.530713,7.57823 -10.799233,10.77289 -3.156043,4.44452 -5.824403,10.50513 -7.030336,15.96788 -0.761967,3.45164 -0.940754,10.50365 -0.360272,14.21043 2.086025,13.32071 10.51678,24.62647 23.044477,30.90297 5.755143,2.88338 10.266946,3.41664 32.330415,3.82121 7.188521,0.13181 35.752188,0.24251 63.474818,0.246 l 50.40477,0.006 6.35317,10.21881 c 3.49425,5.62034 6.35317,10.27967 6.35317,10.35406 0,0.1228 -85.47329,0.0919 -102.909289,-0.0372 z"
       id="path4500"
       inkscape:connector-curvature="0"
       transform="matrix(0.26458333,0,0,0.26458333,45.167145,107.74571)" />
  </g>
</svg>
