<?xml version="1.0" encoding="UTF-8" standalone="no"?>
<svg
   xmlns:dc="http://purl.org/dc/elements/1.1/"
   xmlns:cc="http://creativecommons.org/ns#"
   xmlns:rdf="http://www.w3.org/1999/02/22-rdf-syntax-ns#"
   xmlns:svg="http://www.w3.org/2000/svg"
   xmlns="http://www.w3.org/2000/svg"
   id="svg8"
   version="1.1"
   viewBox="0 0 59.784035 35.173714">
  <defs
     id="defs2" />
  <metadata
     id="metadata5">
    <rdf:RDF>
      <cc:Work
         rdf:about="">
        <dc:format>image/svg+xml</dc:format>
        <dc:type
           rdf:resource="http://purl.org/dc/dcmitype/StillImage" />
        <dc:title></dc:title>
      </cc:Work>
    </rdf:RDF>
  </metadata>
  <g
     transform="translate(-67.797786,-74.085376)"
     id="layer1">
    <path
       id="path4496" fill="#ffffff"
       d="m 109.62395,108.89049 c -0.20222,-0.24366 -0.28046,-1.37754 -0.23083,-3.34522 0.0629,-2.49546 0.14992,-3.02373 0.5381,-3.26806 0.33713,-0.21221 0.5889,-0.21221 0.92604,0 0.38817,0.24433 0.47516,0.7726 0.53809,3.26806 0.0778,3.0839 -0.092,3.71382 -1.00111,3.71382 -0.25541,0 -0.60204,-0.16587 -0.77029,-0.3686 z m -7.89482,-1.9184 c -0.6142,-0.25692 -0.3365,-1.23118 1.05834,-3.71299 1.39762,-2.48677 2.01605,-3.04424 2.72467,-2.45614 0.63238,0.52483 0.45391,1.17306 -1.0326,3.75057 -1.37402,2.38246 -1.84553,2.79708 -2.75041,2.41856 z m 16.02551,-0.29269 c -0.98314,-1.15382 -2.88221,-4.87886 -2.73069,-5.35626 0.17102,-0.53882 1.0194,-0.93265 1.44392,-0.67029 0.14164,0.0875 0.92487,1.33778 1.74051,2.77831 1.25395,2.21466 1.43784,2.70348 1.19073,3.16521 -0.35737,0.66775 -1.1137,0.70595 -1.64447,0.083 z m -44.217202,-5.4705 c -3.291923,-0.88511 -5.735416,-4.111759 -5.739646,-7.579239 -0.0024,-2.00467 0.720437,-3.63167 2.357018,-5.30496 1.203616,-1.23061 1.768963,-1.59486 3.045627,-1.96226 1.492815,-0.42961 3.585892,-0.42919 4.675081,9.2e-4 0.339422,0.13404 0.50833,-0.185 0.863936,-1.63185 1.196338,-4.86751 4.823147,-8.75177 9.497375,-10.17152 2.391503,-0.7264 6.467652,-0.60327 8.663654,0.26169 2.355305,0.92771 2.37617,0.95673 1.395529,1.94047 l -0.853432,0.85613 -1.395526,-0.51762 c -1.043054,-0.38687 -2.067267,-0.51761 -4.055085,-0.51761 -2.535901,0 -2.752097,0.0457 -4.649956,0.98371 -3.869769,1.91254 -6.03296,5.11086 -6.57559,9.72213 -0.162046,1.37706 -0.335216,2.54434 -0.384823,2.59395 -0.04961,0.0496 -0.831463,-0.21102 -1.737459,-0.57915 -2.181063,-0.88625 -3.163204,-1.04784 -4.360087,-0.71736 -2.243981,0.61959 -3.759323,2.30248 -4.01468,4.45857 -0.193313,1.63223 0.225066,2.98941 1.298393,4.21186 1.602638,1.8253 1.493983,1.80696 11.245123,1.89822 l 8.798866,0.0823 0.659988,0.971259 c 0.362994,0.53419 0.659989,1.06268 0.659989,1.17442 0,0.36743 -17.980534,0.20601 -19.394295,-0.17411 z m 22.515582,-0.0778 c -0.591119,-0.14181 -0.868413,-1.0558 -0.467043,-1.539429 0.426623,-0.51404 4.851393,-3.03257 5.327883,-3.03257 0.52074,0 1.01371,0.53879 1.01371,1.10793 0,0.26012 -0.44648,0.75212 -0.99219,1.09334 -2.206923,1.379969 -4.457315,2.472699 -4.88236,2.370729 z m 25.39539,-1.472859 c -2.34293,-1.37475 -2.6915,-1.72652 -2.41773,-2.43996 0.34973,-0.91136 1.29233,-0.71513 3.90088,0.81207 2.31351,1.35447 2.5645,1.57607 2.49212,2.200269 -0.13492,1.16355 -1.30357,0.99528 -3.97527,-0.572379 z m -14.09688,0.699439 c -2.08101,-0.861669 -3.73443,-2.383489 -4.84573,-4.460039 -0.62506,-1.16798 -0.70798,-1.61728 -0.70798,-3.83645 0,-2.20657 0.0853,-2.67511 0.69876,-3.83646 0.8778,-1.66187 2.59499,-3.374 4.17073,-4.15844 1.02015,-0.50786 1.63475,-0.60406 3.85922,-0.60406 2.43263,0 2.7589,0.0626 4.04906,0.77736 1.75089,0.96996 3.09096,2.43347 3.95363,4.31779 0.94079,2.05495 0.94079,4.95267 0,7.00761 -0.8658,1.89117 -2.20852,3.35376 -3.95363,4.30658 -1.20219,0.656389 -1.74439,0.777489 -3.78448,0.845239 -1.75949,0.0584 -2.65759,-0.0353 -3.43958,-0.35913 z M 93.521688,92.809891 c -0.178954,-0.17895 -0.325372,-0.5251 -0.325372,-0.76922 0,-0.88717 0.64683,-1.05796 3.713819,-0.9806 2.495468,0.0629 3.023731,0.14992 3.268075,0.5381 0.21221,0.33714 0.2122,0.5889 -4e-5,0.92604 -0.244934,0.38905 -0.773898,0.47484 -3.311302,0.53703 -2.123319,0.0521 -3.116403,-0.0226 -3.34518,-0.25135 z m 27.244212,-0.008 c -0.17462,-0.17463 -0.3175,-0.508 -0.3175,-0.74083 0,-0.8855 0.58333,-1.05834 3.57188,-1.05834 1.93146,0 3.04557,0.1087 3.25437,0.3175 0.45362,0.45361 0.39223,1.44929 -0.10101,1.63857 -0.79637,0.3056 -6.07448,0.17636 -6.40774,-0.1569 z m -22.488634,-6.52298 c -2.652614,-1.53805 -3.072942,-1.92535 -2.850422,-2.62645 0.31355,-0.98791 1.094938,-0.84322 3.77037,0.69818 2.588596,1.49136 3.087676,2.06628 2.455226,2.82833 -0.50023,0.60274 -1.02445,0.46294 -3.375174,-0.90006 z m 20.999414,0.86846 c -0.79294,-0.79294 -0.56311,-1.05686 2.47082,-2.8373 2.70626,-1.58814 3.52131,-1.67238 3.67714,-0.38003 0.0729,0.60443 -0.19315,0.83091 -2.53039,2.15427 -1.43651,0.81336 -2.74458,1.47883 -2.90682,1.47883 -0.16224,0 -0.48208,-0.1871 -0.71075,-0.41577 z m -14.86654,-3.75547 c -0.50934,-0.33499 -3.01174,-4.95542 -3.01174,-5.56088 0,-0.62003 1.16096,-1.12057 1.59185,-0.68632 0.51672,0.52074 2.90607,4.91991 2.90607,5.35054 0,0.84689 -0.81459,1.33836 -1.48618,0.89666 z m 10.89779,-0.21328 c -0.22868,-0.22868 -0.41309,-0.5561 -0.40981,-0.72761 0.003,-0.17151 0.68789,-1.44292 1.52135,-2.82537 1.57258,-2.6084 2.25067,-3.11643 2.98256,-2.23455 0.31365,0.37793 0.24771,0.65613 -0.48907,2.06329 -1.36592,2.60875 -2.40591,4.14001 -2.81177,4.14001 -0.20762,0 -0.56459,-0.1871 -0.79326,-0.41577 z m -5.68398,-1.54033 c -0.20222,-0.24366 -0.28046,-1.37754 -0.23083,-3.34522 0.0629,-2.49547 0.14992,-3.02373 0.5381,-3.26807 0.33713,-0.21221 0.5889,-0.21221 0.92604,0 0.38817,0.24434 0.47516,0.7726 0.53809,3.26807 0.0778,3.0839 -0.092,3.71382 -1.00111,3.71382 -0.25541,0 -0.60204,-0.16587 -0.77029,-0.3686 z"
       style="stroke-width:0.26458332;fill-opacity:1" />
  </g>
</svg>
