<?xml version="1.0" encoding="UTF-8" standalone="no"?>
<!-- Created with Inkscape (http://www.inkscape.org/) -->

<svg
   xmlns:dc="http://purl.org/dc/elements/1.1/"
   xmlns:cc="http://creativecommons.org/ns#"
   xmlns:rdf="http://www.w3.org/1999/02/22-rdf-syntax-ns#"
   xmlns:svg="http://www.w3.org/2000/svg"
   xmlns="http://www.w3.org/2000/svg"
   xmlns:sodipodi="http://sodipodi.sourceforge.net/DTD/sodipodi-0.dtd"
   xmlns:inkscape="http://www.inkscape.org/namespaces/inkscape"
   width="200mm"
   height="200mm"
   viewBox="0 0 200 200"
   version="1.1"
   id="svg8"
   inkscape:version="0.92.1 r15371"
   sodipodi:docname="windowClosed.svg">
  <defs
     id="defs2" />
  <sodipodi:namedview
     id="base"
     pagecolor="#ffffff"
     bordercolor="#666666"
     borderopacity="1.0"
     inkscape:pageopacity="0.0"
     inkscape:pageshadow="2"
     inkscape:zoom="1.4142136"
     inkscape:cx="245.72701"
     inkscape:cy="272.31949"
     inkscape:document-units="mm"
     inkscape:current-layer="g5098"
     showgrid="true"
     fit-margin-top="0"
     fit-margin-left="0"
     fit-margin-right="0"
     fit-margin-bottom="0"
     inkscape:window-width="3000"
     inkscape:window-height="1881"
     inkscape:window-x="-14"
     inkscape:window-y="-14"
     inkscape:window-maximized="1">
    <inkscape:grid
       type="xygrid"
       id="grid4511"
       originx="-16.726317"
       originy="-58.472912" />
  </sodipodi:namedview>
  <metadata
     id="metadata5">
    <rdf:RDF>
      <cc:Work
         rdf:about="">
        <dc:format>image/svg+xml</dc:format>
        <dc:type
           rdf:resource="http://purl.org/dc/dcmitype/StillImage" />
        <dc:title></dc:title>
      </cc:Work>
    </rdf:RDF>
  </metadata>
  <g
     inkscape:label="Layer 1"
     inkscape:groupmode="layer"
     id="layer1"
     transform="translate(-16.726317,-38.527089)">
    <g
       id="g5091"
       style="fill:#000000;fill-opacity:1">
      <g
         id="g5098">
        <g
           style="fill:#000000;fill-opacity:1"
           id="g4531"
           transform="matrix(1.1005887,0,0,0.96586076,-1.6824772,0.20563376)">
          <path
             inkscape:connector-curvature="0"
             id="path4509"
             d="m 133.7809,143.49174 c -0.69057,-0.87792 -0.71462,-2.31161 -0.0499,-2.97631 1.23868,-1.23867 6.99743,-4.71828 22.38802,-13.5275 9.65014,-5.52352 14.6966,-8.19905 15.46467,-8.19905 0.7311,0 1.39891,1.12109 1.43257,2.40492 0.0337,1.28538 0.0971,1.22902 -4.99099,4.43627 -11.10791,7.0018 -31.77064,18.55881 -33.1812,18.55881 -0.28313,0 -0.76154,-0.31371 -1.06314,-0.69714 z m 0.57226,-19.96703 c -0.71567,-0.26721 -1.12063,-1.21696 -1.12063,-2.62826 0,-0.95709 0.10206,-1.09816 1.38907,-1.92015 2.41868,-1.54479 10.93401,-6.59233 18.05781,-10.70395 13.4516,-7.76383 17.41416,-9.856411 18.66427,-9.856411 0.93217,0 1.58911,0.777997 1.76514,2.090431 0.12785,0.95319 0.0506,1.16035 -0.69051,1.85269 -1.07148,1.00092 -5.376,3.57998 -18.73798,11.22686 -10.37558,5.93781 -16.667,9.39046 -18.06655,9.91472 -0.37629,0.14095 -0.91976,0.15133 -1.26062,0.0241 z"
             style="fill:#ffffff;stroke-width:0.26458335;fill-opacity:1" />
          <path
             inkscape:connector-curvature="0"
             id="path4509-4"
             d="m 45.409752,143.22712 c -0.690567,-0.87792 -0.714617,-2.31162 -0.0499,-2.97632 1.238671,-1.23867 6.997391,-4.71828 22.387891,-13.5275 9.650086,-5.52352 14.696519,-8.19905 15.464583,-8.19905 0.731097,0 1.398904,1.12109 1.432574,2.40492 0.0337,1.28538 0.0971,1.22902 -4.990973,4.43627 -11.107847,7.0018 -31.77046,18.55882 -33.181011,18.55882 -0.28313,0 -0.761537,-0.31372 -1.063134,-0.69714 z m 0.572257,-19.96704 c -0.715667,-0.26721 -1.120624,-1.21696 -1.120624,-2.62826 0,-0.95709 0.10206,-1.09816 1.389061,-1.92015 2.418668,-1.54479 10.933947,-6.59233 18.057708,-10.70395 13.451525,-7.76383 17.414061,-9.856408 18.664165,-9.856408 0.932174,0 1.589101,0.777997 1.765128,2.090428 0.12785,0.95319 0.0506,1.16035 -0.690504,1.85269 -1.071474,1.00092 -5.37597,3.57998 -18.737875,11.22686 -10.37552,5.93781 -16.666904,9.39046 -18.066448,9.91472 -0.376287,0.14095 -0.919754,0.15133 -1.260611,0.0241 z"
             style="fill:#ffffff;stroke-width:0.26458338;fill-opacity:1" />
        </g>
        <g
           id="g5103"
           style="fill:#ffffff;fill-opacity:1">
          <path
             style="fill:#ffffff;fill-opacity:1;stroke-width:0.26458332;stroke:#ffffff;stroke-opacity:1"
             d="m 17.547476,237.59184 -0.821159,-0.93525 V 143.09442 49.532245 l 0.674923,-0.88487 0.674924,-0.88487 h 89.647886 c 82.61525,0 89.67603,0.0339 90.00653,0.432135 0.27644,0.333094 0.40015,2.379679 0.53973,8.929688 0.23606,11.076738 0.23586,160.708882 -2.3e-4,171.789062 -0.16668,7.82225 -0.2217,8.55485 -0.68064,9.06198 l -0.4993,0.55172 H 107.72938 18.368635 Z M 193.99715,143.01251 V 52.789588 H 107.74298 21.488817 v 90.222922 90.22291 h 86.254163 86.25417 z m -79.51829,84.12634 -0.91504,-0.9372 V 142.98711 59.77256 l 0.91248,-0.884411 0.91248,-0.88441 35.66616,0.179396 c 19.61639,0.09867 36.15412,0.245955 36.75049,0.327303 l 1.08433,0.147906 0.17278,3.878643 c 0.57837,12.983596 0.39938,164.209363 -0.19506,164.803803 -0.37259,0.37259 -14.88183,0.591 -44.02768,0.66276 l -29.44589,0.0725 z m 70.65475,-84.12634 V 63.24063 l -33.3375,0.09828 c -18.33563,0.05405 -33.35597,0.113587 -33.37854,0.132292 -0.1649,0.136639 -0.3226,148.428998 -0.16281,153.095468 l 0.20385,5.95313 3.175,0.14578 c 1.74625,0.0802 16.74812,0.1397 33.3375,0.13229 l 30.1625,-0.0135 V 143.0125 Z m -155.76143,84.6877 c -1.785556,-0.0967 -2.958926,-0.28043 -3.175,-0.49725 -0.279114,-0.28008 -0.342738,-15.53042 -0.342738,-82.15313 0,-44.99506 0.0997,-82.847553 0.221552,-84.116651 l 0.221551,-2.307451 0.899485,-0.168745 c 1.272694,-0.238759 72.062716,-0.285261 72.90757,-0.04789 0.38279,0.107549 0.79432,0.464736 0.91451,0.79375 0.28649,0.784292 0.4524,157.140717 0.17321,163.246747 -0.14526,3.17706 -0.32263,4.8004 -0.54927,5.02708 -0.26626,0.26632 -7.299739,0.3391 -34.386669,0.35583 -18.728566,0.0116 -35.326457,-0.048 -36.884201,-0.13229 z M 96.895067,143.01149 V 63.106295 l -33.271354,0.06717 -33.271354,0.06717 -0.06658,79.838015 -0.06658,79.83802 h 33.337932 33.337934 z"
             id="path4507"
             inkscape:connector-curvature="0"
             transform="matrix(1.1005887,0,0,0.96586077,-1.6824772,0.20563275)" />
          <path
             inkscape:connector-curvature="0"
             id="path5084"
             d="M 105.83333,144.59997 H 89.958331"
             style="fill:#ffffff;stroke:#ffffff;stroke-width:4.16499996;stroke-linecap:round;stroke-linejoin:miter;stroke-miterlimit:4;stroke-dasharray:none;stroke-opacity:1;fill-opacity:1" />
        </g>
      </g>
    </g>
  </g>
</svg>
