<?xml version="1.0" encoding="UTF-8" standalone="no"?>
<svg
   xmlns:dc="http://purl.org/dc/elements/1.1/"
   xmlns:cc="http://creativecommons.org/ns#"
   xmlns:rdf="http://www.w3.org/1999/02/22-rdf-syntax-ns#"
   xmlns:svg="http://www.w3.org/2000/svg"
   xmlns="http://www.w3.org/2000/svg"
   id="svg8"
   version="1.1"
   viewBox="0 0 318.07626 366.68475">
  <defs
     id="defs2" />
  <metadata
     id="metadata5">
    <rdf:RDF>
      <cc:Work
         rdf:about="">
        <dc:format>image/svg+xml</dc:format>
        <dc:type
           rdf:resource="http://purl.org/dc/dcmitype/StillImage" />
        <dc:title></dc:title>
      </cc:Work>
    </rdf:RDF>
  </metadata>
  <g
     transform="translate(69.220703,20.889158)"
     id="layer1">
    <path
       id="path4511" fill="#ffffff"
       d="m 19.628605,337.12227 -22.0532898,-8.63371 -32.3746872,-0.25152 -32.374678,-0.25153 -1.023322,-1.37192 -1.023331,-1.37189 V 162.47177 -0.29820227 l 1.023331,-1.37191663 1.023322,-1.3719059 32.374678,-0.2512546 32.3746872,-0.2512654 22.2607958,-8.6723012 c 12.243436,-4.76977 22.872439,-8.672312 23.620011,-8.672312 0.824717,0 1.827163,0.463604 2.549165,1.178913 l 1.189923,1.178913 0.135836,7.61937 0.135845,7.6193589 99.670809,0.1252945 99.6708,0.1252838 1.02352,1.3719059 1.02353,1.37191663 V 162.47177 325.24176 l -1.02386,1.37188 -1.02387,1.37193 -55.06358,0.0854 c -30.28497,0.0469 -75.13666,0.10198 -99.670425,0.12224 l -44.60684,0.0367 -0.135883,7.62238 -0.135882,7.62243 -1.189923,1.17889 c -0.81886,0.81129 -1.678514,1.16701 -2.756662,1.14061 -0.861703,-0.0209 -11.490715,-3.92329 -23.62002,-8.67185 z M 39.349333,162.26744 V -10.051691 L -3.2728951,6.3294501 -45.895112,22.710591 V 162.47209 302.23357 l 25.647323,9.85655 c 14.1060288,5.42109 25.8267454,9.7287 26.0460306,9.57248 0.2192853,-0.15628 0.4627152,-0.0883 0.5409595,0.15104 0.1564048,0.47849 31.0729909,12.68373 32.2679509,12.73874 0.705484,0.0323 0.742181,-8.48448 0.742181,-172.28494 z M 13.90323,324.53379 c 0,-0.0526 0.322904,-0.39768 0.717561,-0.7668 0.6125,-0.57281 0.664411,-0.56939 0.354525,0.0235 -0.270768,0.51786 -0.187123,0.61649 0.329114,0.38809 0.380681,-0.16839 0.783496,-0.13578 0.89515,0.0726 0.111654,0.20824 -0.359349,0.37869 -1.046675,0.37869 -0.687327,0 -1.249675,-0.043 -1.249675,-0.0958 z m 3.180763,-0.21544 c -0.14416,-0.26893 -0.07123,-0.48896 0.161992,-0.48896 0.233252,0 0.542049,0.22003 0.686209,0.48896 0.14416,0.26892 0.07123,0.48896 -0.161992,0.48896 -0.233262,0 -0.542049,-0.22004 -0.686209,-0.48896 z m 2.544612,0 c 0.14416,-0.26893 0.346266,-0.48896 0.44913,-0.48896 0.102864,0 0.187021,0.22003 0.187021,0.48896 0,0.26892 -0.202115,0.48896 -0.449139,0.48896 -0.247015,0 -0.331181,-0.22004 -0.187012,-0.48896 z m 1.480478,-0.2391 c 0.562935,-0.78206 1.2803,-0.56158 1.269685,0.39019 -0.0037,0.34989 -0.170586,0.28961 -0.41761,-0.15109 -0.274074,-0.48896 -0.413281,-0.52969 -0.417611,-0.12225 -0.0037,0.33617 -0.2207,0.61121 -0.48252,0.61121 -0.330455,0 -0.315762,-0.22262 0.04805,-0.72806 z m 2.336436,-4.20474 c -2.09931,-0.77589 -4.19861,-1.62448 -4.665124,-1.88578 -0.466505,-0.26125 -1.707008,-0.72484 -2.756662,-1.0301 -1.049646,-0.30531 -2.767259,-0.95157 -3.816915,-1.43618 -1.049645,-0.48461 -12.40497072,-4.88884 -25.234051,-9.78717 -18.150422,-6.93011 -23.537306,-9.17147 -24.279822,-10.10211 l -0.954221,-1.19606 V 162.42228 30.40745 l 0.978329,-1.127952 c 0.713063,-0.822117 9.659836,-4.464365 32.9957622,-13.432634 C 24.809622,4.6646142 27.851429,3.590888 29.058737,4.0761239 c 0.730671,0.2936708 1.627348,1.0598129 1.992628,1.7025606 0.599268,1.0544666 0.664131,16.3600775 0.664131,156.6930855 0,140.33301 -0.0649,155.63861 -0.664131,156.69311 -0.568354,1.00007 -2.729371,2.32697 -3.534143,2.17002 -0.140138,-0.0274 -1.972403,-0.6845 -4.071703,-1.46039 z m 0.21205,-81.34479 v -71.60874 l -14.3134337,-0.0133 -14.3134322,-0.0133 -1.1662805,-1.48557 c -0.7209968,-0.91839 -1.1662809,-2.03974 -1.1662809,-2.93704 0,-0.89932 0.4436545,-2.01338 1.1662809,-2.92865 l 1.1662805,-1.4772 14.3134322,-0.0201 14.3134337,-0.0201 V 86.456616 14.887503 L -3.2728951,25.234345 -30.203349,35.581187 V 162.4758 289.37041 l 26.8244335,10.33935 c 14.7534365,5.68669 26.8721465,10.35951 26.9304545,10.38405 0.05829,0.0245 0.10603,-32.17933 0.10603,-71.56413 z m -63.812492,75.73033 c -7.131314,-2.76812 -12.204132,-5.00028 -12.723051,-5.59858 l -0.863015,-0.99503 V 162.47177 17.277085 l 0.863015,-0.995002 c 0.518919,-0.598292 5.591737,-2.830502 12.723051,-5.598575 L -28.294887,6.0799346 -44.728831,6.0418234 -61.162776,6.0037122 V 162.47177 318.93976 l 16.433945,-0.0381 16.433944,-0.0381 L -40.154923,314.26 Z M 240.83456,206.84512 c 0.0204,-61.65206 0.0444,-117.26543 0.0535,-123.585267 0.009,-6.31984 -0.007,-26.287848 -0.0369,-44.373342 L 240.79769,6.0037767 H 144.10244 47.40726 v 4.4006603 4.400671 h 14.183761 14.183752 l 1.189932,1.180072 1.189932,1.180062 V 162.47177 307.77831 l -1.189932,1.18006 -1.189932,1.18006 H 61.591021 47.40726 v 4.40066 4.40067 h 96.69518 96.69518 l 0.0369,-112.09464 z m -138.16442,102.11325 -1.18992,-1.18006 V 162.47177 17.165242 l 1.18992,-1.180062 1.18994,-1.180072 h 63.40743 c 42.67765,0 63.6742,0.164587 64.22337,0.503454 2.21775,1.368438 2.08268,-8.135792 2.09128,147.145478 0.008,155.50237 0.14645,145.80018 -2.09128,147.18096 -0.54917,0.33885 -21.54572,0.50343 -64.22337,0.50343 h -63.40743 z m 100.06435,-8.08778 22.79547,-0.0224 V 162.47177 24.09539 L 193.40425,24.05782 C 175.73512,24.0371 159.27468,24.01466 156.82549,24.0079 154.3763,24.0015 142.687,24.0176 130.84926,24.04548 L 109.3261,24.0954 v 138.37285 138.37282 l 27.67263,0.12581 c 15.21995,0.0691 31.10786,0.0808 35.30646,0.0259 4.19861,-0.055 17.8918,-0.10992 30.4293,-0.12224 z M 133.63921,165.70192 c -1.48792,-1.47559 -1.66491,-4.64205 -0.34172,-6.11373 0.4612,-0.51297 14.99504,-9.09538 32.29739,-19.072 33.84129,-19.51307 33.70053,-19.44598 35.68737,-17.00766 1.0052,1.23368 1.24731,4.09957 0.48504,5.74175 -0.67721,1.45886 -63.61626,37.62216 -65.47809,37.62216 -0.93887,0 -1.896,-0.42276 -2.64999,-1.17052 z m 0.60285,-35.05187 c -1.1669,-0.78361 -2.10175,-3.27921 -1.80732,-4.82475 0.14352,-0.75337 0.68046,-1.81634 1.19318,-2.36213 0.51273,-0.54578 15.13988,-9.17359 32.50478,-19.17292 33.96617,-19.558919 32.81117,-19.012869 35.06116,-16.57585 1.28897,1.396104 1.56235,3.047745 0.8362,5.05147 -0.58318,1.609258 -2.14909,2.577035 -32.44445,20.05158 -32.12749,18.53135 -33.36967,19.1581 -35.34355,17.8326 z M 70.30875,162.47177 V 24.09539 H 58.85801 47.40726 l -0.01993,53.663635 c -0.01099,29.514995 -0.02784,57.294175 -0.03743,61.731525 -0.0096,4.43733 -8.47e-4,42.55806 0.01993,84.71274 l 0.03743,76.64486 h 11.45075 11.45074 z"
       style="fill-opacity:1;stroke-width:0.45537877" />
  </g>
</svg>
